G04 #@! TF.GenerationSoftware,KiCad,Pcbnew,7.0.6*
G04 #@! TF.CreationDate,2024-05-29T18:09:33+12:00*
G04 #@! TF.ProjectId,flight_computer,666c6967-6874-45f6-936f-6d7075746572,rev?*
G04 #@! TF.SameCoordinates,Original*
G04 #@! TF.FileFunction,Copper,L4,Bot*
G04 #@! TF.FilePolarity,Positive*
%FSLAX46Y46*%
G04 Gerber Fmt 4.6, Leading zero omitted, Abs format (unit mm)*
G04 Created by KiCad (PCBNEW 7.0.6) date 2024-05-29 18:09:33*
%MOMM*%
%LPD*%
G01*
G04 APERTURE LIST*
G04 Aperture macros list*
%AMRoundRect*
0 Rectangle with rounded corners*
0 $1 Rounding radius*
0 $2 $3 $4 $5 $6 $7 $8 $9 X,Y pos of 4 corners*
0 Add a 4 corners polygon primitive as box body*
4,1,4,$2,$3,$4,$5,$6,$7,$8,$9,$2,$3,0*
0 Add four circle primitives for the rounded corners*
1,1,$1+$1,$2,$3*
1,1,$1+$1,$4,$5*
1,1,$1+$1,$6,$7*
1,1,$1+$1,$8,$9*
0 Add four rect primitives between the rounded corners*
20,1,$1+$1,$2,$3,$4,$5,0*
20,1,$1+$1,$4,$5,$6,$7,0*
20,1,$1+$1,$6,$7,$8,$9,0*
20,1,$1+$1,$8,$9,$2,$3,0*%
G04 Aperture macros list end*
G04 #@! TA.AperFunction,ComponentPad*
%ADD10C,0.800000*%
G04 #@! TD*
G04 #@! TA.AperFunction,ComponentPad*
%ADD11C,6.400000*%
G04 #@! TD*
G04 #@! TA.AperFunction,ComponentPad*
%ADD12R,1.700000X1.700000*%
G04 #@! TD*
G04 #@! TA.AperFunction,ComponentPad*
%ADD13O,1.700000X1.700000*%
G04 #@! TD*
G04 #@! TA.AperFunction,ComponentPad*
%ADD14RoundRect,0.250000X0.350000X0.625000X-0.350000X0.625000X-0.350000X-0.625000X0.350000X-0.625000X0*%
G04 #@! TD*
G04 #@! TA.AperFunction,ComponentPad*
%ADD15O,1.200000X1.750000*%
G04 #@! TD*
G04 #@! TA.AperFunction,ComponentPad*
%ADD16C,2.250000*%
G04 #@! TD*
G04 #@! TA.AperFunction,ComponentPad*
%ADD17C,4.350000*%
G04 #@! TD*
G04 #@! TA.AperFunction,ComponentPad*
%ADD18R,1.524000X1.524000*%
G04 #@! TD*
G04 #@! TA.AperFunction,ComponentPad*
%ADD19C,1.524000*%
G04 #@! TD*
G04 #@! TA.AperFunction,SMDPad,CuDef*
%ADD20RoundRect,0.140000X0.140000X0.170000X-0.140000X0.170000X-0.140000X-0.170000X0.140000X-0.170000X0*%
G04 #@! TD*
G04 #@! TA.AperFunction,SMDPad,CuDef*
%ADD21RoundRect,0.150000X-0.150000X0.825000X-0.150000X-0.825000X0.150000X-0.825000X0.150000X0.825000X0*%
G04 #@! TD*
G04 #@! TA.AperFunction,SMDPad,CuDef*
%ADD22RoundRect,0.135000X-0.135000X-0.185000X0.135000X-0.185000X0.135000X0.185000X-0.135000X0.185000X0*%
G04 #@! TD*
G04 #@! TA.AperFunction,SMDPad,CuDef*
%ADD23RoundRect,0.140000X-0.140000X-0.170000X0.140000X-0.170000X0.140000X0.170000X-0.140000X0.170000X0*%
G04 #@! TD*
G04 #@! TA.AperFunction,SMDPad,CuDef*
%ADD24RoundRect,0.135000X0.135000X0.185000X-0.135000X0.185000X-0.135000X-0.185000X0.135000X-0.185000X0*%
G04 #@! TD*
G04 #@! TA.AperFunction,SMDPad,CuDef*
%ADD25RoundRect,0.135000X-0.185000X0.135000X-0.185000X-0.135000X0.185000X-0.135000X0.185000X0.135000X0*%
G04 #@! TD*
G04 #@! TA.AperFunction,SMDPad,CuDef*
%ADD26RoundRect,0.140000X0.170000X-0.140000X0.170000X0.140000X-0.170000X0.140000X-0.170000X-0.140000X0*%
G04 #@! TD*
G04 #@! TA.AperFunction,SMDPad,CuDef*
%ADD27RoundRect,0.140000X-0.170000X0.140000X-0.170000X-0.140000X0.170000X-0.140000X0.170000X0.140000X0*%
G04 #@! TD*
G04 #@! TA.AperFunction,ViaPad*
%ADD28C,0.600000*%
G04 #@! TD*
G04 #@! TA.AperFunction,Conductor*
%ADD29C,0.200000*%
G04 #@! TD*
G04 #@! TA.AperFunction,Conductor*
%ADD30C,0.300000*%
G04 #@! TD*
G04 APERTURE END LIST*
D10*
X123752944Y-71462500D03*
X124455888Y-69765444D03*
X124455888Y-73159556D03*
X126152944Y-69062500D03*
D11*
X126152944Y-71462500D03*
D10*
X126152944Y-73862500D03*
X127850000Y-69765444D03*
X127850000Y-73159556D03*
X128552944Y-71462500D03*
D12*
X150160000Y-126140000D03*
D13*
X150160000Y-123600000D03*
X152700000Y-126140000D03*
X152700000Y-123600000D03*
X155240000Y-126140000D03*
X155240000Y-123600000D03*
X157780000Y-126140000D03*
X157780000Y-123600000D03*
X160320000Y-126140000D03*
X160320000Y-123600000D03*
D14*
X160120000Y-74750000D03*
D15*
X158120000Y-74750000D03*
D10*
X123752944Y-130462500D03*
X124455888Y-128765444D03*
X124455888Y-132159556D03*
X126152944Y-128062500D03*
D11*
X126152944Y-130462500D03*
D10*
X126152944Y-132862500D03*
X127850000Y-128765444D03*
X127850000Y-132159556D03*
X128552944Y-130462500D03*
D12*
X136500000Y-92300000D03*
X131500000Y-92300000D03*
D16*
X142950000Y-85062500D03*
X135050000Y-85062500D03*
D17*
X139000000Y-74812500D03*
D12*
X153800000Y-118900000D03*
X145600000Y-128100000D03*
D18*
X125200000Y-114500000D03*
D19*
X130200000Y-114500000D03*
D12*
X149700000Y-111500000D03*
D10*
X163722944Y-71462500D03*
X164425888Y-69765444D03*
X164425888Y-73159556D03*
X166122944Y-69062500D03*
D11*
X166122944Y-71462500D03*
D10*
X166122944Y-73862500D03*
X167820000Y-69765444D03*
X167820000Y-73159556D03*
X168522944Y-71462500D03*
D12*
X141500000Y-128100000D03*
X153800000Y-115300000D03*
D10*
X163752944Y-130462500D03*
X164455888Y-128765444D03*
X164455888Y-132159556D03*
X166152944Y-128062500D03*
D11*
X166152944Y-130462500D03*
D10*
X166152944Y-132862500D03*
X167850000Y-128765444D03*
X167850000Y-132159556D03*
X168552944Y-130462500D03*
D20*
X138640000Y-80660000D03*
X137680000Y-80660000D03*
D21*
X137095000Y-82425000D03*
X138365000Y-82425000D03*
X139635000Y-82425000D03*
X140905000Y-82425000D03*
X140905000Y-87375000D03*
X139635000Y-87375000D03*
X138365000Y-87375000D03*
X137095000Y-87375000D03*
D22*
X129690000Y-97000000D03*
X130710000Y-97000000D03*
D20*
X139540000Y-79660000D03*
X138580000Y-79660000D03*
D23*
X141720000Y-116600000D03*
X142680000Y-116600000D03*
D20*
X140460000Y-80660000D03*
X139500000Y-80660000D03*
D12*
X157350000Y-130850000D03*
D13*
X154810000Y-130850000D03*
X152270000Y-130850000D03*
X149730000Y-130850000D03*
X147190000Y-130850000D03*
X144650000Y-130850000D03*
X142110000Y-130850000D03*
X149730000Y-92350000D03*
X152270000Y-92350000D03*
X154810000Y-92350000D03*
D12*
X157350000Y-92350000D03*
D24*
X125310000Y-103600000D03*
X124290000Y-103600000D03*
D25*
X137660000Y-78650000D03*
X137660000Y-79670000D03*
D24*
X125310000Y-102500000D03*
X124290000Y-102500000D03*
D26*
X124800000Y-99480000D03*
X124800000Y-98520000D03*
D27*
X142264500Y-81900000D03*
X142264500Y-82860000D03*
D22*
X129690000Y-95900000D03*
X130710000Y-95900000D03*
D24*
X125310000Y-101400000D03*
X124290000Y-101400000D03*
D25*
X140460000Y-78650000D03*
X140460000Y-79670000D03*
D28*
X130892500Y-127112500D03*
X163100000Y-85200000D03*
X137900000Y-118500000D03*
X159800000Y-79200000D03*
X152100000Y-116500000D03*
X144500000Y-125495000D03*
X130922500Y-131305000D03*
X151314647Y-115914647D03*
X124500000Y-110800000D03*
X138700000Y-121300000D03*
X159400000Y-116400000D03*
X162200000Y-85200000D03*
X142400000Y-97500000D03*
X135000000Y-117900000D03*
X145500000Y-125495000D03*
X163100000Y-84400000D03*
X123500000Y-101400000D03*
X125600000Y-100100000D03*
X135900000Y-118600000D03*
X131600000Y-97000000D03*
X133500000Y-123600000D03*
X137600000Y-120474500D03*
X143201000Y-109000000D03*
X143300000Y-81900000D03*
X123500000Y-103600000D03*
X125400000Y-109900000D03*
X162200000Y-84400000D03*
X141500000Y-96700000D03*
X123500000Y-102500000D03*
X131600000Y-95900000D03*
X132800000Y-87900000D03*
X132800000Y-84900000D03*
X143300000Y-82900000D03*
X146200000Y-82700000D03*
X162400000Y-88000000D03*
X145200000Y-83700000D03*
X166800000Y-96500000D03*
X135800000Y-81900000D03*
X144200000Y-86700000D03*
X136222500Y-131300000D03*
X167500000Y-118200000D03*
X131800000Y-83900000D03*
X142060000Y-80630000D03*
X132800000Y-85900000D03*
X137022500Y-132200000D03*
X151800631Y-78997969D03*
X160600000Y-99200000D03*
X146667400Y-91873500D03*
X132800000Y-82900000D03*
X132800000Y-86900000D03*
X143216926Y-123544566D03*
X142900000Y-104390000D03*
X141700000Y-104890000D03*
X142700000Y-117300000D03*
X156610000Y-84535000D03*
X154800000Y-79099500D03*
X124900000Y-96400000D03*
X134800000Y-87900000D03*
X160600000Y-107900000D03*
X160700000Y-79200000D03*
X146200000Y-83700000D03*
X138100000Y-85400000D03*
X160600000Y-101400000D03*
X135222500Y-130600000D03*
X146200000Y-86700000D03*
X131800000Y-86900000D03*
X130962500Y-132265000D03*
X161800000Y-113100000D03*
X145200000Y-85700000D03*
X167700000Y-113100000D03*
X145200000Y-81700000D03*
X135800000Y-86900000D03*
X145200000Y-84700000D03*
X135777500Y-129850000D03*
X132800000Y-83900000D03*
X137900000Y-116300000D03*
X137100000Y-85400000D03*
X131800000Y-87900000D03*
X139100000Y-85400000D03*
X160600000Y-110000000D03*
X155679500Y-133200000D03*
X157200000Y-105800000D03*
X162210000Y-81735000D03*
X160600000Y-103600000D03*
X143297929Y-91085117D03*
X142200000Y-87700000D03*
X161700000Y-97600000D03*
X146200000Y-84700000D03*
X141100000Y-85400000D03*
X142200000Y-86700000D03*
X141600000Y-95700000D03*
X136300000Y-124900000D03*
X145200000Y-82700000D03*
X151600000Y-82400000D03*
X131800000Y-84900000D03*
X154092206Y-79013609D03*
X140100000Y-84400000D03*
X146200000Y-81700000D03*
X132800000Y-81900000D03*
X157800000Y-104500000D03*
X153100000Y-133200000D03*
X159400000Y-105800000D03*
X133800000Y-86900000D03*
X167500000Y-116000000D03*
X134800000Y-120800000D03*
X142400000Y-95000000D03*
X135800000Y-87900000D03*
X165800000Y-113100000D03*
X136760000Y-80630000D03*
X134487500Y-123600000D03*
X131687500Y-128853750D03*
X152000000Y-117500000D03*
X139100000Y-84400000D03*
X143200000Y-86700000D03*
X145200000Y-86700000D03*
X133800000Y-87900000D03*
X138170000Y-127342500D03*
X131800000Y-81900000D03*
X133800000Y-81900000D03*
X168800000Y-96500000D03*
X161300000Y-118600000D03*
X133300000Y-120800000D03*
X131800000Y-85900000D03*
X137170000Y-127342500D03*
X145200000Y-87700000D03*
X146200000Y-87700000D03*
X146200000Y-85700000D03*
X142600000Y-125100000D03*
X131175000Y-123320000D03*
X138100000Y-84400000D03*
X144200000Y-87700000D03*
X160600000Y-112100000D03*
X143200000Y-87700000D03*
X159000000Y-103600000D03*
X152450000Y-79050000D03*
X133600000Y-112800000D03*
X163250500Y-87100000D03*
X131800000Y-82900000D03*
X163700000Y-113100000D03*
X151640000Y-69400000D03*
X150640000Y-70300000D03*
X151423911Y-118176089D03*
X160600000Y-105600000D03*
X152600000Y-83300000D03*
X141100000Y-84400000D03*
X134600000Y-111900000D03*
X134800000Y-86900000D03*
X163700000Y-97600000D03*
X133800000Y-82900000D03*
X123800000Y-106900000D03*
X134322500Y-129705000D03*
X125700000Y-98200000D03*
X164800000Y-96500000D03*
X130867219Y-128153750D03*
X135800000Y-82900000D03*
X135000000Y-116900000D03*
X135900000Y-116100000D03*
X140100000Y-85400000D03*
X140676089Y-113523911D03*
X156900000Y-78200000D03*
X137100000Y-84400000D03*
X140600000Y-124300000D03*
X141600000Y-125100000D03*
X139070000Y-127342500D03*
X139800000Y-124937500D03*
X139770000Y-128142500D03*
X139100000Y-124937500D03*
X153390500Y-70300000D03*
X141700000Y-117300000D03*
X141700000Y-106800000D03*
X142074500Y-114900000D03*
X140727387Y-114332853D03*
X148800000Y-71900000D03*
X148900000Y-70000000D03*
X146507243Y-111799500D03*
X144824049Y-114674909D03*
X126000000Y-103600000D03*
X138246747Y-110199500D03*
X126000000Y-102500000D03*
X129300000Y-102500000D03*
X147125500Y-114700000D03*
X143800000Y-114700000D03*
X141300000Y-112100000D03*
X126000000Y-101400000D03*
X140900000Y-89000000D03*
X142976089Y-114923911D03*
X129900000Y-99200000D03*
X131400000Y-99100000D03*
X140600000Y-111130500D03*
X128900000Y-97000000D03*
X138400000Y-89000000D03*
X128900000Y-95900000D03*
X148200000Y-123100000D03*
X143200000Y-119000000D03*
X141926089Y-119226089D03*
X160309382Y-85427923D03*
X161210000Y-85435000D03*
X160909503Y-87735000D03*
X160210000Y-87735000D03*
X158100497Y-87800000D03*
X158485000Y-84435000D03*
X158497850Y-85289366D03*
X158800000Y-87800000D03*
X152419927Y-120280073D03*
X150089262Y-120210738D03*
X132487000Y-123200000D03*
X144300000Y-120200000D03*
X140900000Y-122400000D03*
X133522500Y-131400000D03*
X153600000Y-83500000D03*
X147400000Y-112000000D03*
X143080594Y-111924708D03*
X144117400Y-90036000D03*
X145117400Y-90036000D03*
X142350000Y-111600000D03*
X143800500Y-106100000D03*
X145117400Y-106100000D03*
X139100000Y-110700000D03*
X132475000Y-125107500D03*
X135200000Y-125700000D03*
X138900000Y-120400000D03*
X130902289Y-126313057D03*
D29*
X124800000Y-99480000D02*
X124980000Y-99480000D01*
X124290000Y-101400000D02*
X123500000Y-101400000D01*
X130710000Y-97000000D02*
X131600000Y-97000000D01*
X130710000Y-95900000D02*
X131600000Y-95900000D01*
X141305000Y-82425000D02*
X140905000Y-82425000D01*
X142264500Y-81900000D02*
X143300000Y-81900000D01*
X124290000Y-102500000D02*
X123500000Y-102500000D01*
X141830000Y-81900000D02*
X141305000Y-82425000D01*
X124290000Y-103600000D02*
X123500000Y-103600000D01*
X124980000Y-99480000D02*
X125600000Y-100100000D01*
X142264500Y-81900000D02*
X141830000Y-81900000D01*
X137600000Y-83700000D02*
X137095000Y-83195000D01*
X137095000Y-83195000D02*
X137095000Y-82425000D01*
X142081396Y-82860000D02*
X141241396Y-83700000D01*
X141241396Y-83700000D02*
X137600000Y-83700000D01*
D30*
X136790000Y-80660000D02*
X136760000Y-80630000D01*
D29*
X142680000Y-117280000D02*
X142700000Y-117300000D01*
X125700000Y-98200000D02*
X125120000Y-98200000D01*
X143260000Y-82860000D02*
X143300000Y-82900000D01*
D30*
X140460000Y-80660000D02*
X142030000Y-80660000D01*
X137680000Y-80660000D02*
X136790000Y-80660000D01*
D29*
X142264500Y-82860000D02*
X142081396Y-82860000D01*
X142680000Y-116600000D02*
X142680000Y-117280000D01*
X142264500Y-82860000D02*
X143260000Y-82860000D01*
X125120000Y-98200000D02*
X124800000Y-98520000D01*
D30*
X142030000Y-80660000D02*
X142060000Y-80630000D01*
D29*
X141700000Y-116620000D02*
X141720000Y-116600000D01*
X141700000Y-117300000D02*
X141700000Y-116620000D01*
X140727387Y-114332853D02*
X141507353Y-114332853D01*
X141700000Y-106800000D02*
X141700000Y-108900000D01*
X141700000Y-108900000D02*
X139900000Y-110700000D01*
X140636502Y-114332853D02*
X140727387Y-114332853D01*
X139900000Y-113596351D02*
X140636502Y-114332853D01*
X141507353Y-114332853D02*
X142074500Y-114900000D01*
X139900000Y-110700000D02*
X139900000Y-113596351D01*
D30*
X149700000Y-71000000D02*
X156900000Y-71000000D01*
X148800000Y-71900000D02*
X149700000Y-71000000D01*
X158120000Y-72220000D02*
X158120000Y-74750000D01*
X156900000Y-71000000D02*
X158120000Y-72220000D01*
D29*
X148200000Y-72148529D02*
X148200000Y-70700000D01*
X148200000Y-70700000D02*
X148900000Y-70000000D01*
X146507243Y-111492757D02*
X148300000Y-109700000D01*
X148300000Y-109700000D02*
X148300000Y-72248529D01*
X146507243Y-111799500D02*
X146507243Y-111492757D01*
X148300000Y-72248529D02*
X148200000Y-72148529D01*
D30*
X139500000Y-80660000D02*
X139500000Y-79700000D01*
X139500000Y-79700000D02*
X139540000Y-79660000D01*
X139500000Y-80660000D02*
X139500000Y-82290000D01*
X140450000Y-79660000D02*
X140460000Y-79670000D01*
X139540000Y-79660000D02*
X140450000Y-79660000D01*
X139500000Y-82290000D02*
X139635000Y-82425000D01*
X138580000Y-79660000D02*
X137670000Y-79660000D01*
X138640000Y-80660000D02*
X138640000Y-79720000D01*
X137670000Y-79660000D02*
X137660000Y-79670000D01*
X138640000Y-79720000D02*
X138580000Y-79660000D01*
X138500000Y-82290000D02*
X138365000Y-82425000D01*
X138640000Y-80660000D02*
X138500000Y-80800000D01*
X138500000Y-80800000D02*
X138500000Y-82290000D01*
D29*
X151310000Y-123010000D02*
X144824049Y-116524049D01*
X152700000Y-126140000D02*
X151310000Y-124750000D01*
X151310000Y-124750000D02*
X151310000Y-123010000D01*
X144824049Y-116524049D02*
X144824049Y-114674909D01*
X126000000Y-103600000D02*
X125310000Y-103600000D01*
X138246747Y-110199500D02*
X136199500Y-110199500D01*
X125310000Y-102500000D02*
X126000000Y-102500000D01*
X136199500Y-110199500D02*
X129300000Y-103300000D01*
X147125500Y-114700000D02*
X147125500Y-114074500D01*
X147125500Y-114074500D02*
X149700000Y-111500000D01*
X129300000Y-103300000D02*
X129300000Y-102500000D01*
X143600000Y-114700000D02*
X141300000Y-112400000D01*
X126000000Y-101400000D02*
X125310000Y-101400000D01*
X141300000Y-112400000D02*
X141300000Y-112100000D01*
X143800000Y-114700000D02*
X143600000Y-114700000D01*
X129900000Y-99200000D02*
X131300000Y-99200000D01*
X142976089Y-114876089D02*
X140600000Y-112500000D01*
D30*
X140905000Y-88995000D02*
X140900000Y-89000000D01*
D29*
X131300000Y-99200000D02*
X131400000Y-99100000D01*
X142976089Y-114923911D02*
X142976089Y-114876089D01*
D30*
X140905000Y-87375000D02*
X140905000Y-88995000D01*
D29*
X140600000Y-112500000D02*
X140600000Y-111130500D01*
X138400000Y-89000000D02*
X138400000Y-87410000D01*
X128900000Y-97000000D02*
X129690000Y-97000000D01*
X138400000Y-87410000D02*
X138365000Y-87375000D01*
X128900000Y-95900000D02*
X129690000Y-95900000D01*
X148200000Y-122500000D02*
X148200000Y-123100000D01*
X143200000Y-119000000D02*
X144700000Y-119000000D01*
X144700000Y-119000000D02*
X148200000Y-122500000D01*
X149730000Y-130030000D02*
X149730000Y-130850000D01*
X142300000Y-119600000D02*
X144548529Y-119600000D01*
X141926089Y-119226089D02*
X142300000Y-119600000D01*
X144548529Y-119600000D02*
X147600000Y-122651471D01*
X147600000Y-127900000D02*
X149730000Y-130030000D01*
X147600000Y-122651471D02*
X147600000Y-127900000D01*
D30*
X143950000Y-84062500D02*
X143950000Y-81150000D01*
X143950000Y-81150000D02*
X141450000Y-78650000D01*
X142950000Y-85062500D02*
X143950000Y-84062500D01*
X141450000Y-78650000D02*
X140460000Y-78650000D01*
X135050000Y-85062500D02*
X135050000Y-80250000D01*
X136650000Y-78650000D02*
X137660000Y-78650000D01*
X135050000Y-80250000D02*
X136650000Y-78650000D01*
D29*
X152350592Y-120210738D02*
X150089262Y-120210738D01*
X152419927Y-120280073D02*
X152350592Y-120210738D01*
X132300000Y-131400000D02*
X133522500Y-131400000D01*
X131404320Y-124282680D02*
X130100000Y-124282680D01*
X132487000Y-123200000D02*
X131404320Y-124282680D01*
X141900000Y-120200000D02*
X144300000Y-120200000D01*
X140900000Y-121200000D02*
X141900000Y-120200000D01*
X140900000Y-122400000D02*
X140900000Y-121200000D01*
X130100000Y-129200000D02*
X132300000Y-131400000D01*
X130100000Y-124282680D02*
X130100000Y-129200000D01*
X147400000Y-112000000D02*
X147400000Y-111200000D01*
X153600000Y-105000000D02*
X153600000Y-83500000D01*
X147400000Y-111200000D02*
X153600000Y-105000000D01*
X144117400Y-91056059D02*
X144117400Y-90036000D01*
X144400000Y-91338659D02*
X144117400Y-91056059D01*
X144400000Y-110605302D02*
X144400000Y-91338659D01*
X143080594Y-111924708D02*
X144400000Y-110605302D01*
X143800500Y-110149500D02*
X142350000Y-111600000D01*
X145117400Y-106100000D02*
X145117400Y-90036000D01*
X143800500Y-106100000D02*
X143800500Y-110149500D01*
X139100000Y-110700000D02*
X139100000Y-101600000D01*
X139100000Y-89600000D02*
X133100000Y-89600000D01*
X131500000Y-91200000D02*
X131500000Y-92300000D01*
X139635000Y-89065000D02*
X139100000Y-89600000D01*
X139100000Y-101600000D02*
X131500000Y-94000000D01*
X133100000Y-89600000D02*
X131500000Y-91200000D01*
X139635000Y-87375000D02*
X139635000Y-89065000D01*
X131500000Y-94000000D02*
X131500000Y-92300000D01*
X134607500Y-125107500D02*
X135200000Y-125700000D01*
X132475000Y-125107500D02*
X134607500Y-125107500D01*
X135087500Y-124368529D02*
X138100000Y-121356029D01*
X138100000Y-121356029D02*
X138100000Y-121051471D01*
X138751471Y-120400000D02*
X138900000Y-120400000D01*
X138100000Y-121051471D02*
X138751471Y-120400000D01*
X130902289Y-126313057D02*
X130902289Y-125797711D01*
X132331471Y-124368529D02*
X135087500Y-124368529D01*
X130902289Y-125797711D02*
X132331471Y-124368529D01*
G04 #@! TA.AperFunction,Conductor*
G36*
X159053039Y-83854685D02*
G01*
X159098794Y-83907489D01*
X159110000Y-83959000D01*
X159110000Y-90511000D01*
X159090315Y-90578039D01*
X159037511Y-90623794D01*
X158986000Y-90635000D01*
X157434000Y-90635000D01*
X157366961Y-90615315D01*
X157321206Y-90562511D01*
X157310000Y-90511000D01*
X157310000Y-83959000D01*
X157329685Y-83891961D01*
X157382489Y-83846206D01*
X157434000Y-83835000D01*
X158986000Y-83835000D01*
X159053039Y-83854685D01*
G37*
G04 #@! TD.AperFunction*
G04 #@! TA.AperFunction,Conductor*
G36*
X161679585Y-83954685D02*
G01*
X161725340Y-84007489D01*
X161735284Y-84076647D01*
X161722079Y-84114795D01*
X161722249Y-84114866D01*
X161721073Y-84117703D01*
X161719932Y-84121002D01*
X161719137Y-84122378D01*
X161663671Y-84256287D01*
X161663670Y-84256291D01*
X161644750Y-84399999D01*
X161644750Y-84400000D01*
X161663670Y-84543708D01*
X161663671Y-84543712D01*
X161719138Y-84677623D01*
X161719139Y-84677626D01*
X161755117Y-84724512D01*
X161780312Y-84789681D01*
X161766274Y-84858126D01*
X161755119Y-84875484D01*
X161719138Y-84922375D01*
X161719138Y-84922376D01*
X161663671Y-85056287D01*
X161663670Y-85056291D01*
X161644750Y-85199999D01*
X161644750Y-85200000D01*
X161663670Y-85343708D01*
X161663671Y-85343712D01*
X161719138Y-85477623D01*
X161719139Y-85477626D01*
X161756168Y-85525882D01*
X161784375Y-85562642D01*
X161809570Y-85627810D01*
X161810000Y-85638128D01*
X161810000Y-90511000D01*
X161790315Y-90578039D01*
X161737511Y-90623794D01*
X161686000Y-90635000D01*
X159934000Y-90635000D01*
X159866961Y-90615315D01*
X159821206Y-90562511D01*
X159810000Y-90511000D01*
X159810000Y-84059000D01*
X159829685Y-83991961D01*
X159882489Y-83946206D01*
X159934000Y-83935000D01*
X161612546Y-83935000D01*
X161679585Y-83954685D01*
G37*
G04 #@! TD.AperFunction*
M02*
