G04 #@! TF.GenerationSoftware,KiCad,Pcbnew,7.0.6*
G04 #@! TF.CreationDate,2024-05-29T18:09:33+12:00*
G04 #@! TF.ProjectId,flight_computer,666c6967-6874-45f6-936f-6d7075746572,rev?*
G04 #@! TF.SameCoordinates,Original*
G04 #@! TF.FileFunction,Soldermask,Bot*
G04 #@! TF.FilePolarity,Negative*
%FSLAX46Y46*%
G04 Gerber Fmt 4.6, Leading zero omitted, Abs format (unit mm)*
G04 Created by KiCad (PCBNEW 7.0.6) date 2024-05-29 18:09:33*
%MOMM*%
%LPD*%
G01*
G04 APERTURE LIST*
G04 Aperture macros list*
%AMRoundRect*
0 Rectangle with rounded corners*
0 $1 Rounding radius*
0 $2 $3 $4 $5 $6 $7 $8 $9 X,Y pos of 4 corners*
0 Add a 4 corners polygon primitive as box body*
4,1,4,$2,$3,$4,$5,$6,$7,$8,$9,$2,$3,0*
0 Add four circle primitives for the rounded corners*
1,1,$1+$1,$2,$3*
1,1,$1+$1,$4,$5*
1,1,$1+$1,$6,$7*
1,1,$1+$1,$8,$9*
0 Add four rect primitives between the rounded corners*
20,1,$1+$1,$2,$3,$4,$5,0*
20,1,$1+$1,$4,$5,$6,$7,0*
20,1,$1+$1,$6,$7,$8,$9,0*
20,1,$1+$1,$8,$9,$2,$3,0*%
G04 Aperture macros list end*
%ADD10C,0.800000*%
%ADD11C,6.400000*%
%ADD12R,1.700000X1.700000*%
%ADD13O,1.700000X1.700000*%
%ADD14RoundRect,0.250000X0.350000X0.625000X-0.350000X0.625000X-0.350000X-0.625000X0.350000X-0.625000X0*%
%ADD15O,1.200000X1.750000*%
%ADD16C,2.250000*%
%ADD17C,4.350000*%
%ADD18R,1.524000X1.524000*%
%ADD19C,1.524000*%
%ADD20RoundRect,0.140000X0.140000X0.170000X-0.140000X0.170000X-0.140000X-0.170000X0.140000X-0.170000X0*%
%ADD21RoundRect,0.150000X-0.150000X0.825000X-0.150000X-0.825000X0.150000X-0.825000X0.150000X0.825000X0*%
%ADD22RoundRect,0.135000X-0.135000X-0.185000X0.135000X-0.185000X0.135000X0.185000X-0.135000X0.185000X0*%
%ADD23RoundRect,0.140000X-0.140000X-0.170000X0.140000X-0.170000X0.140000X0.170000X-0.140000X0.170000X0*%
%ADD24RoundRect,0.135000X0.135000X0.185000X-0.135000X0.185000X-0.135000X-0.185000X0.135000X-0.185000X0*%
%ADD25RoundRect,0.135000X-0.185000X0.135000X-0.185000X-0.135000X0.185000X-0.135000X0.185000X0.135000X0*%
%ADD26RoundRect,0.140000X0.170000X-0.140000X0.170000X0.140000X-0.170000X0.140000X-0.170000X-0.140000X0*%
%ADD27RoundRect,0.140000X-0.170000X0.140000X-0.170000X-0.140000X0.170000X-0.140000X0.170000X0.140000X0*%
G04 APERTURE END LIST*
D10*
X123752944Y-71462500D03*
X124455888Y-69765444D03*
X124455888Y-73159556D03*
X126152944Y-69062500D03*
D11*
X126152944Y-71462500D03*
D10*
X126152944Y-73862500D03*
X127850000Y-69765444D03*
X127850000Y-73159556D03*
X128552944Y-71462500D03*
D12*
X150160000Y-126140000D03*
D13*
X150160000Y-123600000D03*
X152700000Y-126140000D03*
X152700000Y-123600000D03*
X155240000Y-126140000D03*
X155240000Y-123600000D03*
X157780000Y-126140000D03*
X157780000Y-123600000D03*
X160320000Y-126140000D03*
X160320000Y-123600000D03*
D14*
X160120000Y-74750000D03*
D15*
X158120000Y-74750000D03*
D10*
X123752944Y-130462500D03*
X124455888Y-128765444D03*
X124455888Y-132159556D03*
X126152944Y-128062500D03*
D11*
X126152944Y-130462500D03*
D10*
X126152944Y-132862500D03*
X127850000Y-128765444D03*
X127850000Y-132159556D03*
X128552944Y-130462500D03*
D12*
X136500000Y-92300000D03*
X131500000Y-92300000D03*
D16*
X142950000Y-85062500D03*
X135050000Y-85062500D03*
D17*
X139000000Y-74812500D03*
D12*
X153800000Y-118900000D03*
X145600000Y-128100000D03*
D18*
X125200000Y-114500000D03*
D19*
X130200000Y-114500000D03*
D12*
X149700000Y-111500000D03*
D10*
X163722944Y-71462500D03*
X164425888Y-69765444D03*
X164425888Y-73159556D03*
X166122944Y-69062500D03*
D11*
X166122944Y-71462500D03*
D10*
X166122944Y-73862500D03*
X167820000Y-69765444D03*
X167820000Y-73159556D03*
X168522944Y-71462500D03*
D12*
X141500000Y-128100000D03*
X153800000Y-115300000D03*
D10*
X163752944Y-130462500D03*
X164455888Y-128765444D03*
X164455888Y-132159556D03*
X166152944Y-128062500D03*
D11*
X166152944Y-130462500D03*
D10*
X166152944Y-132862500D03*
X167850000Y-128765444D03*
X167850000Y-132159556D03*
X168552944Y-130462500D03*
D20*
X138640000Y-80660000D03*
X137680000Y-80660000D03*
D21*
X137095000Y-82425000D03*
X138365000Y-82425000D03*
X139635000Y-82425000D03*
X140905000Y-82425000D03*
X140905000Y-87375000D03*
X139635000Y-87375000D03*
X138365000Y-87375000D03*
X137095000Y-87375000D03*
D22*
X129690000Y-97000000D03*
X130710000Y-97000000D03*
D20*
X139540000Y-79660000D03*
X138580000Y-79660000D03*
D23*
X141720000Y-116600000D03*
X142680000Y-116600000D03*
D20*
X140460000Y-80660000D03*
X139500000Y-80660000D03*
D12*
X157350000Y-130850000D03*
D13*
X154810000Y-130850000D03*
X152270000Y-130850000D03*
X149730000Y-130850000D03*
X147190000Y-130850000D03*
X144650000Y-130850000D03*
X142110000Y-130850000D03*
X149730000Y-92350000D03*
X152270000Y-92350000D03*
X154810000Y-92350000D03*
D12*
X157350000Y-92350000D03*
D24*
X125310000Y-103600000D03*
X124290000Y-103600000D03*
D25*
X137660000Y-78650000D03*
X137660000Y-79670000D03*
D24*
X125310000Y-102500000D03*
X124290000Y-102500000D03*
D26*
X124800000Y-99480000D03*
X124800000Y-98520000D03*
D27*
X142264500Y-81900000D03*
X142264500Y-82860000D03*
D22*
X129690000Y-95900000D03*
X130710000Y-95900000D03*
D24*
X125310000Y-101400000D03*
X124290000Y-101400000D03*
D25*
X140460000Y-78650000D03*
X140460000Y-79670000D03*
M02*
