M48
; DRILL file {KiCad 7.0.6} date Wed May 29 18:09:38 2024
; FORMAT={-:-/ absolute / metric / decimal}
; #@! TF.CreationDate,2024-05-29T18:09:38+12:00
; #@! TF.GenerationSoftware,Kicad,Pcbnew,7.0.6
; #@! TF.FileFunction,Plated,1,4,PTH
FMAT,2
METRIC
; #@! TA.AperFunction,Plated,PTH,ViaDrill
T1C0.300
; #@! TA.AperFunction,Plated,PTH,ComponentDrill
T2C0.500
; #@! TA.AperFunction,Plated,PTH,ComponentDrill
T3C0.750
; #@! TA.AperFunction,Plated,PTH,ComponentDrill
T4C0.762
; #@! TA.AperFunction,Plated,PTH,ComponentDrill
T5C1.000
; #@! TA.AperFunction,Plated,PTH,ComponentDrill
T6C1.500
; #@! TA.AperFunction,Plated,PTH,ComponentDrill
T7C2.900
; #@! TA.AperFunction,Plated,PTH,ComponentDrill
T8C3.200
%
G90
G05
T1
X123.5Y-101.4
X123.5Y-102.5
X123.5Y-103.6
X123.8Y-106.9
X124.5Y-110.8
X124.9Y-96.4
X125.4Y-109.9
X125.6Y-100.1
X125.7Y-98.2
X126.0Y-101.4
X126.0Y-102.5
X126.0Y-103.6
X128.9Y-95.9
X128.9Y-97.0
X129.3Y-102.5
X129.9Y-99.2
X130.867Y-128.154
X130.892Y-127.112
X130.902Y-126.313
X130.922Y-131.305
X130.963Y-132.265
X131.175Y-123.32
X131.4Y-99.1
X131.6Y-95.9
X131.6Y-97.0
X131.688Y-128.854
X131.8Y-81.9
X131.8Y-82.9
X131.8Y-83.9
X131.8Y-84.9
X131.8Y-85.9
X131.8Y-86.9
X131.8Y-87.9
X132.475Y-125.107
X132.487Y-123.2
X132.8Y-81.9
X132.8Y-82.9
X132.8Y-83.9
X132.8Y-84.9
X132.8Y-85.9
X132.8Y-86.9
X132.8Y-87.9
X133.3Y-120.8
X133.5Y-123.6
X133.523Y-131.4
X133.6Y-112.8
X133.8Y-81.9
X133.8Y-82.9
X133.8Y-86.9
X133.8Y-87.9
X134.322Y-129.705
X134.487Y-123.6
X134.6Y-111.9
X134.8Y-86.9
X134.8Y-87.9
X134.8Y-120.8
X135.0Y-116.9
X135.0Y-117.9
X135.2Y-125.7
X135.222Y-130.6
X135.778Y-129.85
X135.8Y-81.9
X135.8Y-82.9
X135.8Y-86.9
X135.8Y-87.9
X135.9Y-116.1
X135.9Y-118.6
X136.222Y-131.3
X136.3Y-124.9
X136.76Y-80.63
X137.023Y-132.2
X137.1Y-84.4
X137.1Y-85.4
X137.17Y-127.343
X137.6Y-120.474
X137.9Y-116.3
X137.9Y-118.5
X138.1Y-84.4
X138.1Y-85.4
X138.17Y-127.343
X138.247Y-110.2
X138.4Y-89.0
X138.7Y-121.3
X138.9Y-120.4
X139.07Y-127.343
X139.1Y-84.4
X139.1Y-85.4
X139.1Y-110.7
X139.1Y-124.938
X139.77Y-128.142
X139.8Y-124.938
X140.1Y-84.4
X140.1Y-85.4
X140.6Y-111.13
X140.6Y-124.3
X140.676Y-113.524
X140.727Y-114.333
X140.9Y-89.0
X140.9Y-122.4
X141.1Y-84.4
X141.1Y-85.4
X141.3Y-112.1
X141.5Y-96.7
X141.6Y-95.7
X141.6Y-125.1
X141.7Y-104.89
X141.7Y-106.8
X141.7Y-117.3
X141.926Y-119.226
X142.06Y-80.63
X142.075Y-114.9
X142.2Y-86.7
X142.2Y-87.7
X142.35Y-111.6
X142.4Y-95.0
X142.4Y-97.5
X142.6Y-125.1
X142.7Y-117.3
X142.9Y-104.39
X142.976Y-114.924
X143.081Y-111.925
X143.2Y-86.7
X143.2Y-87.7
X143.2Y-119.0
X143.201Y-109.0
X143.217Y-123.545
X143.298Y-91.085
X143.3Y-81.9
X143.3Y-82.9
X143.8Y-114.7
X143.8Y-106.1
X144.117Y-90.036
X144.2Y-86.7
X144.2Y-87.7
X144.3Y-120.2
X144.5Y-125.495
X144.824Y-114.675
X145.117Y-90.036
X145.117Y-106.1
X145.2Y-81.7
X145.2Y-82.7
X145.2Y-83.7
X145.2Y-84.7
X145.2Y-85.7
X145.2Y-86.7
X145.2Y-87.7
X145.5Y-125.495
X146.2Y-81.7
X146.2Y-82.7
X146.2Y-83.7
X146.2Y-84.7
X146.2Y-85.7
X146.2Y-86.7
X146.2Y-87.7
X146.507Y-111.799
X146.667Y-91.873
X147.125Y-114.7
X147.4Y-112.0
X148.2Y-123.1
X148.8Y-71.9
X148.9Y-70.0
X150.089Y-120.211
X150.64Y-70.3
X151.315Y-115.915
X151.424Y-118.176
X151.6Y-82.4
X151.64Y-69.4
X151.801Y-78.998
X152.0Y-117.5
X152.1Y-116.5
X152.42Y-120.28
X152.45Y-79.05
X152.6Y-83.3
X153.1Y-133.2
X153.391Y-70.3
X153.6Y-83.5
X154.092Y-79.014
X154.8Y-79.099
X155.679Y-133.2
X156.61Y-84.535
X156.9Y-78.2
X157.2Y-105.8
X157.8Y-104.5
X158.1Y-87.8
X158.485Y-84.435
X158.498Y-85.289
X158.8Y-87.8
X159.0Y-103.6
X159.4Y-105.8
X159.4Y-116.4
X159.8Y-79.2
X160.21Y-87.735
X160.309Y-85.428
X160.6Y-99.2
X160.6Y-101.4
X160.6Y-103.6
X160.6Y-105.6
X160.6Y-107.9
X160.6Y-110.0
X160.6Y-112.1
X160.7Y-79.2
X160.91Y-87.735
X161.21Y-85.435
X161.3Y-118.6
X161.7Y-97.6
X161.8Y-113.1
X162.2Y-84.4
X162.2Y-85.2
X162.21Y-81.735
X162.4Y-88.0
X163.1Y-84.4
X163.1Y-85.2
X163.25Y-87.1
X163.7Y-97.6
X163.7Y-113.1
X164.8Y-96.5
X165.8Y-113.1
X166.8Y-96.5
X167.5Y-116.0
X167.5Y-118.2
X167.7Y-113.1
X168.8Y-96.5
T2
X123.753Y-71.462
X123.753Y-130.463
X124.456Y-69.765
X124.456Y-73.16
X124.456Y-128.765
X124.456Y-132.16
X126.153Y-69.062
X126.153Y-73.862
X126.153Y-128.062
X126.153Y-132.862
X127.85Y-69.765
X127.85Y-73.16
X127.85Y-128.765
X127.85Y-132.16
X128.553Y-71.462
X128.553Y-130.463
X163.723Y-71.462
X163.753Y-130.463
X164.426Y-69.765
X164.426Y-73.16
X164.456Y-128.765
X164.456Y-132.16
X166.123Y-69.062
X166.123Y-73.862
X166.153Y-128.062
X166.153Y-132.862
X167.82Y-69.765
X167.82Y-73.16
X167.85Y-128.765
X167.85Y-132.16
X168.523Y-71.462
X168.553Y-130.463
T3
X158.12Y-74.75
X160.12Y-74.75
T4
X125.2Y-114.5
X130.2Y-114.5
T5
X131.5Y-92.3
X136.5Y-92.3
X141.5Y-128.1
X142.11Y-130.85
X144.65Y-130.85
X145.6Y-128.1
X147.19Y-130.85
X149.7Y-111.5
X149.73Y-92.35
X149.73Y-130.85
X150.16Y-123.6
X150.16Y-126.14
X152.27Y-92.35
X152.27Y-130.85
X152.7Y-123.6
X152.7Y-126.14
X153.8Y-115.3
X153.8Y-118.9
X154.81Y-92.35
X154.81Y-130.85
X155.24Y-123.6
X155.24Y-126.14
X157.35Y-92.35
X157.35Y-130.85
X157.78Y-123.6
X157.78Y-126.14
X160.32Y-123.6
X160.32Y-126.14
T6
X135.05Y-85.062
X142.95Y-85.062
T7
X139.0Y-74.812
T8
X126.153Y-71.462
X126.153Y-130.463
X166.123Y-71.462
X166.153Y-130.463
T0
M30
