G04 #@! TF.GenerationSoftware,KiCad,Pcbnew,7.0.6*
G04 #@! TF.CreationDate,2024-05-29T18:09:33+12:00*
G04 #@! TF.ProjectId,flight_computer,666c6967-6874-45f6-936f-6d7075746572,rev?*
G04 #@! TF.SameCoordinates,Original*
G04 #@! TF.FileFunction,Paste,Top*
G04 #@! TF.FilePolarity,Positive*
%FSLAX46Y46*%
G04 Gerber Fmt 4.6, Leading zero omitted, Abs format (unit mm)*
G04 Created by KiCad (PCBNEW 7.0.6) date 2024-05-29 18:09:33*
%MOMM*%
%LPD*%
G01*
G04 APERTURE LIST*
G04 Aperture macros list*
%AMRoundRect*
0 Rectangle with rounded corners*
0 $1 Rounding radius*
0 $2 $3 $4 $5 $6 $7 $8 $9 X,Y pos of 4 corners*
0 Add a 4 corners polygon primitive as box body*
4,1,4,$2,$3,$4,$5,$6,$7,$8,$9,$2,$3,0*
0 Add four circle primitives for the rounded corners*
1,1,$1+$1,$2,$3*
1,1,$1+$1,$4,$5*
1,1,$1+$1,$6,$7*
1,1,$1+$1,$8,$9*
0 Add four rect primitives between the rounded corners*
20,1,$1+$1,$2,$3,$4,$5,0*
20,1,$1+$1,$4,$5,$6,$7,0*
20,1,$1+$1,$6,$7,$8,$9,0*
20,1,$1+$1,$8,$9,$2,$3,0*%
G04 Aperture macros list end*
%ADD10RoundRect,0.140000X0.170000X-0.140000X0.170000X0.140000X-0.170000X0.140000X-0.170000X-0.140000X0*%
%ADD11RoundRect,0.135000X0.185000X-0.135000X0.185000X0.135000X-0.185000X0.135000X-0.185000X-0.135000X0*%
%ADD12RoundRect,0.140000X-0.170000X0.140000X-0.170000X-0.140000X0.170000X-0.140000X0.170000X0.140000X0*%
%ADD13RoundRect,0.135000X0.135000X0.185000X-0.135000X0.185000X-0.135000X-0.185000X0.135000X-0.185000X0*%
%ADD14RoundRect,0.075000X-0.662500X-0.075000X0.662500X-0.075000X0.662500X0.075000X-0.662500X0.075000X0*%
%ADD15RoundRect,0.075000X-0.075000X-0.662500X0.075000X-0.662500X0.075000X0.662500X-0.075000X0.662500X0*%
%ADD16RoundRect,0.218750X0.218750X0.256250X-0.218750X0.256250X-0.218750X-0.256250X0.218750X-0.256250X0*%
%ADD17RoundRect,0.087500X-0.225000X-0.087500X0.225000X-0.087500X0.225000X0.087500X-0.225000X0.087500X0*%
%ADD18RoundRect,0.087500X-0.087500X-0.225000X0.087500X-0.225000X0.087500X0.225000X-0.087500X0.225000X0*%
%ADD19RoundRect,0.140000X0.140000X0.170000X-0.140000X0.170000X-0.140000X-0.170000X0.140000X-0.170000X0*%
%ADD20RoundRect,0.218750X-0.381250X0.218750X-0.381250X-0.218750X0.381250X-0.218750X0.381250X0.218750X0*%
%ADD21R,0.700000X0.450000*%
%ADD22RoundRect,0.135000X-0.135000X-0.185000X0.135000X-0.185000X0.135000X0.185000X-0.135000X0.185000X0*%
%ADD23R,1.000000X0.900000*%
%ADD24RoundRect,0.140000X-0.140000X-0.170000X0.140000X-0.170000X0.140000X0.170000X-0.140000X0.170000X0*%
%ADD25R,0.700000X1.400000*%
%ADD26R,4.000000X1.000000*%
%ADD27R,1.200000X1.400000*%
%ADD28R,0.500000X1.500000*%
%ADD29R,0.500000X0.600000*%
%ADD30R,0.812800X2.489200*%
%ADD31R,2.000000X0.800000*%
%ADD32R,1.400000X1.800000*%
%ADD33R,1.900000X1.400000*%
%ADD34RoundRect,0.250000X0.312500X0.625000X-0.312500X0.625000X-0.312500X-0.625000X0.312500X-0.625000X0*%
%ADD35RoundRect,0.135000X-0.185000X0.135000X-0.185000X-0.135000X0.185000X-0.135000X0.185000X0.135000X0*%
%ADD36RoundRect,0.008100X0.126900X-0.421900X0.126900X0.421900X-0.126900X0.421900X-0.126900X-0.421900X0*%
%ADD37RoundRect,0.008100X0.421900X0.126900X-0.421900X0.126900X-0.421900X-0.126900X0.421900X-0.126900X0*%
%ADD38RoundRect,0.150000X0.587500X0.150000X-0.587500X0.150000X-0.587500X-0.150000X0.587500X-0.150000X0*%
%ADD39RoundRect,0.150000X-0.512500X-0.150000X0.512500X-0.150000X0.512500X0.150000X-0.512500X0.150000X0*%
%ADD40RoundRect,0.243750X0.243750X0.456250X-0.243750X0.456250X-0.243750X-0.456250X0.243750X-0.456250X0*%
%ADD41RoundRect,0.250000X0.375000X0.850000X-0.375000X0.850000X-0.375000X-0.850000X0.375000X-0.850000X0*%
%ADD42RoundRect,0.150000X0.150000X-0.512500X0.150000X0.512500X-0.150000X0.512500X-0.150000X-0.512500X0*%
%ADD43RoundRect,0.087500X-0.125000X-0.087500X0.125000X-0.087500X0.125000X0.087500X-0.125000X0.087500X0*%
%ADD44RoundRect,0.087500X-0.087500X-0.125000X0.087500X-0.125000X0.087500X0.125000X-0.087500X0.125000X0*%
%ADD45R,1.400000X1.200000*%
%ADD46R,0.700000X0.300000*%
%ADD47R,0.550000X0.910000*%
G04 APERTURE END LIST*
D10*
X162210000Y-83515000D03*
X162210000Y-82555000D03*
D11*
X142900000Y-108310000D03*
X142900000Y-107290000D03*
D10*
X135900000Y-117880000D03*
X135900000Y-116920000D03*
X138900000Y-117880000D03*
X138900000Y-116920000D03*
D12*
X155040000Y-72820000D03*
X155040000Y-73780000D03*
X139800000Y-112920000D03*
X139800000Y-113880000D03*
D13*
X124410000Y-110000000D03*
X123390000Y-110000000D03*
D12*
X150300000Y-116520000D03*
X150300000Y-117480000D03*
D14*
X140437500Y-114850000D03*
X140437500Y-115350000D03*
X140437500Y-115850000D03*
X140437500Y-116350000D03*
X140437500Y-116850000D03*
X140437500Y-117350000D03*
X140437500Y-117850000D03*
X140437500Y-118350000D03*
X140437500Y-118850000D03*
X140437500Y-119350000D03*
X140437500Y-119850000D03*
X140437500Y-120350000D03*
D15*
X141850000Y-121762500D03*
X142350000Y-121762500D03*
X142850000Y-121762500D03*
X143350000Y-121762500D03*
X143850000Y-121762500D03*
X144350000Y-121762500D03*
X144850000Y-121762500D03*
X145350000Y-121762500D03*
X145850000Y-121762500D03*
X146350000Y-121762500D03*
X146850000Y-121762500D03*
X147350000Y-121762500D03*
D14*
X148762500Y-120350000D03*
X148762500Y-119850000D03*
X148762500Y-119350000D03*
X148762500Y-118850000D03*
X148762500Y-118350000D03*
X148762500Y-117850000D03*
X148762500Y-117350000D03*
X148762500Y-116850000D03*
X148762500Y-116350000D03*
X148762500Y-115850000D03*
X148762500Y-115350000D03*
X148762500Y-114850000D03*
D15*
X147350000Y-113437500D03*
X146850000Y-113437500D03*
X146350000Y-113437500D03*
X145850000Y-113437500D03*
X145350000Y-113437500D03*
X144850000Y-113437500D03*
X144350000Y-113437500D03*
X143850000Y-113437500D03*
X143350000Y-113437500D03*
X142850000Y-113437500D03*
X142350000Y-113437500D03*
X141850000Y-113437500D03*
D12*
X151310000Y-116520000D03*
X151310000Y-117480000D03*
D16*
X148787500Y-132900000D03*
X147212500Y-132900000D03*
D10*
X142900000Y-106380000D03*
X142900000Y-105420000D03*
X137900000Y-117880000D03*
X137900000Y-116920000D03*
X136900000Y-117880000D03*
X136900000Y-116920000D03*
D17*
X131225000Y-124357500D03*
X131225000Y-124857500D03*
X131225000Y-125357500D03*
X131225000Y-125857500D03*
D18*
X131887500Y-126020000D03*
X132387500Y-126020000D03*
X132887500Y-126020000D03*
D17*
X133550000Y-125857500D03*
X133550000Y-125357500D03*
X133550000Y-124857500D03*
X133550000Y-124357500D03*
D18*
X132887500Y-124195000D03*
X132387500Y-124195000D03*
X131887500Y-124195000D03*
D19*
X152520000Y-70300000D03*
X151560000Y-70300000D03*
D11*
X154040000Y-73810000D03*
X154040000Y-72790000D03*
D10*
X160685000Y-80915000D03*
X160685000Y-79955000D03*
D20*
X137600000Y-121337500D03*
X137600000Y-123462500D03*
D21*
X153302500Y-80350000D03*
X153302500Y-79050000D03*
X151302500Y-79700000D03*
D22*
X149030000Y-74700000D03*
X150050000Y-74700000D03*
D23*
X159400000Y-119500000D03*
X159400000Y-115400000D03*
X157800000Y-115400000D03*
X157800000Y-119500000D03*
D24*
X145120000Y-92710000D03*
X146080000Y-92710000D03*
D19*
X133572500Y-128112500D03*
X132612500Y-128112500D03*
D11*
X144500000Y-124695000D03*
X144500000Y-123675000D03*
D12*
X157510000Y-83535000D03*
X157510000Y-84495000D03*
D24*
X141620000Y-123300000D03*
X142580000Y-123300000D03*
D25*
X165025000Y-104600000D03*
D26*
X166675000Y-97600000D03*
D27*
X168575000Y-104600000D03*
D26*
X166675000Y-111600000D03*
D28*
X168925000Y-112350000D03*
D29*
X168925000Y-113900000D03*
D30*
X145299999Y-107900000D03*
X146400000Y-107900000D03*
X147500000Y-107900000D03*
X148600000Y-107900000D03*
X149700001Y-107900000D03*
X150800001Y-107900000D03*
X151899999Y-107900000D03*
X154899999Y-107900000D03*
X156000000Y-107900000D03*
X157100000Y-107900000D03*
X158200000Y-107900000D03*
X159300001Y-107900000D03*
X159300001Y-95700000D03*
X158200000Y-95700000D03*
X157100000Y-95700000D03*
X156000000Y-95700000D03*
X154899999Y-95700000D03*
X151899999Y-95700000D03*
X150800001Y-95700000D03*
X149700001Y-95700000D03*
X148600000Y-95700000D03*
X147500000Y-95700000D03*
X146400000Y-95700000D03*
X145299999Y-95700000D03*
D31*
X127450000Y-103615000D03*
X127850000Y-102515000D03*
X127450000Y-101415000D03*
X127250000Y-100315000D03*
X127450000Y-99215000D03*
X127250000Y-98115000D03*
X127450000Y-97015000D03*
X127450000Y-95915000D03*
D32*
X138000000Y-96725000D03*
X138000000Y-102425000D03*
D33*
X124850000Y-95125000D03*
X123850000Y-108275000D03*
D34*
X153102500Y-77200000D03*
X150177500Y-77200000D03*
D35*
X159710000Y-79925000D03*
X159710000Y-80945000D03*
D13*
X153610000Y-82400000D03*
X152590000Y-82400000D03*
D12*
X131822500Y-131305000D03*
X131822500Y-132265000D03*
D10*
X143400000Y-96680000D03*
X143400000Y-95720000D03*
D36*
X159120000Y-84470000D03*
X159620000Y-84470000D03*
X160120000Y-84470000D03*
X160620000Y-84470000D03*
D37*
X161055000Y-83535000D03*
X161055000Y-83035000D03*
D36*
X160620000Y-82100000D03*
X160120000Y-82100000D03*
X159620000Y-82100000D03*
X159120000Y-82100000D03*
D37*
X158685000Y-83035000D03*
X158685000Y-83535000D03*
D12*
X131692500Y-127132500D03*
X131692500Y-128092500D03*
D35*
X130900000Y-120290000D03*
X130900000Y-121310000D03*
D13*
X152830000Y-74700000D03*
X153850000Y-74700000D03*
D38*
X156877500Y-79250000D03*
X156877500Y-77350000D03*
X155002500Y-78300000D03*
D12*
X162385000Y-86155000D03*
X162385000Y-87115000D03*
D16*
X160650000Y-78062500D03*
X159075000Y-78062500D03*
D22*
X153890000Y-133200000D03*
X154910000Y-133200000D03*
D24*
X136222500Y-128190000D03*
X137182500Y-128190000D03*
D39*
X150302500Y-71550000D03*
X150302500Y-72500000D03*
X150302500Y-73450000D03*
X152577500Y-73450000D03*
X152577500Y-71550000D03*
D11*
X144100000Y-91820000D03*
X144100000Y-90800000D03*
D40*
X166512500Y-118180000D03*
X164637500Y-118180000D03*
D41*
X160560000Y-89335000D03*
X158410000Y-89335000D03*
D19*
X144160000Y-92710000D03*
X143200000Y-92710000D03*
D40*
X166475000Y-116000000D03*
X164600000Y-116000000D03*
D19*
X161465000Y-86235000D03*
X160505000Y-86235000D03*
D13*
X146010000Y-133200000D03*
X144990000Y-133200000D03*
D22*
X156390000Y-133200000D03*
X157410000Y-133200000D03*
D10*
X148840000Y-72820000D03*
X148840000Y-73780000D03*
D24*
X141620000Y-124300000D03*
X142580000Y-124300000D03*
D19*
X139082500Y-128190000D03*
X138122500Y-128190000D03*
X143860000Y-133200000D03*
X142900000Y-133200000D03*
D11*
X160563000Y-119585000D03*
X160563000Y-118565000D03*
D10*
X142400000Y-96680000D03*
X142400000Y-95720000D03*
D19*
X150960000Y-74700000D03*
X151920000Y-74700000D03*
D42*
X132150000Y-120837500D03*
X134050000Y-120837500D03*
X133100000Y-118562500D03*
D13*
X155510000Y-80500000D03*
X154490000Y-80500000D03*
D11*
X145500000Y-124705000D03*
X145500000Y-123685000D03*
D19*
X138115000Y-124952500D03*
X137155000Y-124952500D03*
D11*
X145100000Y-91820000D03*
X145100000Y-90800000D03*
D43*
X132775000Y-131200000D03*
X132775000Y-131700000D03*
D44*
X133037500Y-132212500D03*
X133537500Y-132212500D03*
X134037500Y-132212500D03*
D43*
X134300000Y-131700000D03*
X134300000Y-131200000D03*
D44*
X134037500Y-130687500D03*
X133537500Y-130687500D03*
X133037500Y-130687500D03*
D11*
X163337500Y-116500000D03*
X163337500Y-115480000D03*
D22*
X135212500Y-132205000D03*
X136232500Y-132205000D03*
D24*
X132642500Y-129705000D03*
X133602500Y-129705000D03*
D45*
X136100000Y-114330000D03*
X138300000Y-114330000D03*
X138300000Y-112630000D03*
X136100000Y-112630000D03*
D11*
X163375000Y-118700000D03*
X163375000Y-117680000D03*
D13*
X155510000Y-82400000D03*
X154490000Y-82400000D03*
D12*
X134600000Y-112800000D03*
X134600000Y-113760000D03*
D46*
X136817500Y-129350000D03*
X136817500Y-129850000D03*
X138417500Y-129850000D03*
X138417500Y-129350000D03*
D47*
X137617500Y-129600000D03*
D22*
X146380000Y-110000000D03*
X147400000Y-110000000D03*
D19*
X133572500Y-127112500D03*
X132612500Y-127112500D03*
D23*
X141700000Y-107950000D03*
X141700000Y-103850000D03*
X140100000Y-103850000D03*
X140100000Y-107950000D03*
M02*
