%TF.GenerationSoftware,KiCad,Pcbnew,7.0.6*%
%TF.CreationDate,2024-05-29T18:09:39+12:00*%
%TF.ProjectId,flight_computer,666c6967-6874-45f6-936f-6d7075746572,rev?*%
%TF.SameCoordinates,Original*%
%TF.FileFunction,Drillmap*%
%TF.FilePolarity,Positive*%
%FSLAX45Y45*%
G04 Gerber Fmt 4.5, Leading zero omitted, Abs format (unit mm)*
G04 Created by KiCad (PCBNEW 7.0.6) date 2024-05-29 18:09:39*
%MOMM*%
%LPD*%
G01*
G04 APERTURE LIST*
%ADD10C,0.100000*%
%ADD11C,0.200000*%
%ADD12C,0.030000*%
%ADD13C,0.050000*%
%ADD14C,0.075000*%
%ADD15C,0.076200*%
%ADD16C,0.150000*%
%ADD17C,0.290000*%
%ADD18C,0.320000*%
G04 APERTURE END LIST*
D10*
X16965000Y-11646250D02*
X16965000Y-8546250D01*
X12615000Y-13396250D02*
X16615000Y-13396250D01*
X16965000Y-8546250D02*
G75*
G03*
X16615000Y-8196250I-350000J0D01*
G01*
X12615000Y-6796250D02*
G75*
G03*
X12615000Y-7496250I0J-350000D01*
G01*
X16615000Y-13396250D02*
G75*
G03*
X16615000Y-12696250I0J350000D01*
G01*
X12265000Y-11646250D02*
G75*
G03*
X12615000Y-11996250I350000J0D01*
G01*
X16615000Y-7496250D02*
G75*
G03*
X16615000Y-6796250I0J350000D01*
G01*
X12615000Y-12696250D02*
G75*
G03*
X12615000Y-13396250I0J-350000D01*
G01*
X12265000Y-8546250D02*
X12265000Y-11646250D01*
X16615000Y-11996250D02*
G75*
G03*
X16615000Y-12696250I0J-350000D01*
G01*
X12615000Y-8196250D02*
G75*
G03*
X12265000Y-8546250I0J-350000D01*
G01*
X16615000Y-7496250D02*
G75*
G03*
X16615000Y-8196250I0J-350000D01*
G01*
X12615000Y-12696250D02*
G75*
G03*
X12615000Y-11996250I0J350000D01*
G01*
X12615000Y-6796250D02*
X16615000Y-6796250D01*
X16615000Y-11996250D02*
G75*
G03*
X16965000Y-11646250I0J350000D01*
G01*
X12615000Y-8196250D02*
G75*
G03*
X12615000Y-7496250I0J350000D01*
G01*
D11*
D12*
X12335000Y-10125000D02*
X12365000Y-10155000D01*
X12365000Y-10125000D02*
X12335000Y-10155000D01*
X12335000Y-10235000D02*
X12365000Y-10265000D01*
X12365000Y-10235000D02*
X12335000Y-10265000D01*
X12335000Y-10345000D02*
X12365000Y-10375000D01*
X12365000Y-10345000D02*
X12335000Y-10375000D01*
X12365000Y-10675000D02*
X12395000Y-10705000D01*
X12395000Y-10675000D02*
X12365000Y-10705000D01*
X12435000Y-11065000D02*
X12465000Y-11095000D01*
X12465000Y-11065000D02*
X12435000Y-11095000D01*
X12475000Y-9625000D02*
X12505000Y-9655000D01*
X12505000Y-9625000D02*
X12475000Y-9655000D01*
X12525000Y-10975000D02*
X12555000Y-11005000D01*
X12555000Y-10975000D02*
X12525000Y-11005000D01*
X12545000Y-9995000D02*
X12575000Y-10025000D01*
X12575000Y-9995000D02*
X12545000Y-10025000D01*
X12555000Y-9805000D02*
X12585000Y-9835000D01*
X12585000Y-9805000D02*
X12555000Y-9835000D01*
X12585000Y-10125000D02*
X12615000Y-10155000D01*
X12615000Y-10125000D02*
X12585000Y-10155000D01*
X12585000Y-10235000D02*
X12615000Y-10265000D01*
X12615000Y-10235000D02*
X12585000Y-10265000D01*
X12585000Y-10345000D02*
X12615000Y-10375000D01*
X12615000Y-10345000D02*
X12585000Y-10375000D01*
X12875000Y-9575000D02*
X12905000Y-9605000D01*
X12905000Y-9575000D02*
X12875000Y-9605000D01*
X12875000Y-9685000D02*
X12905000Y-9715000D01*
X12905000Y-9685000D02*
X12875000Y-9715000D01*
X12915000Y-10235000D02*
X12945000Y-10265000D01*
X12945000Y-10235000D02*
X12915000Y-10265000D01*
X12975000Y-9905000D02*
X13005000Y-9935000D01*
X13005000Y-9905000D02*
X12975000Y-9935000D01*
X13071722Y-12800375D02*
X13101722Y-12830375D01*
X13101722Y-12800375D02*
X13071722Y-12830375D01*
X13074250Y-12696250D02*
X13104250Y-12726250D01*
X13104250Y-12696250D02*
X13074250Y-12726250D01*
X13075229Y-12616306D02*
X13105229Y-12646306D01*
X13105229Y-12616306D02*
X13075229Y-12646306D01*
X13077250Y-13115500D02*
X13107250Y-13145500D01*
X13107250Y-13115500D02*
X13077250Y-13145500D01*
X13081250Y-13211500D02*
X13111250Y-13241500D01*
X13111250Y-13211500D02*
X13081250Y-13241500D01*
X13102500Y-12317000D02*
X13132500Y-12347000D01*
X13132500Y-12317000D02*
X13102500Y-12347000D01*
X13125000Y-9895000D02*
X13155000Y-9925000D01*
X13155000Y-9895000D02*
X13125000Y-9925000D01*
X13145000Y-9575000D02*
X13175000Y-9605000D01*
X13175000Y-9575000D02*
X13145000Y-9605000D01*
X13145000Y-9685000D02*
X13175000Y-9715000D01*
X13175000Y-9685000D02*
X13145000Y-9715000D01*
X13153750Y-12870375D02*
X13183750Y-12900375D01*
X13183750Y-12870375D02*
X13153750Y-12900375D01*
X13165000Y-8175000D02*
X13195000Y-8205000D01*
X13195000Y-8175000D02*
X13165000Y-8205000D01*
X13165000Y-8275000D02*
X13195000Y-8305000D01*
X13195000Y-8275000D02*
X13165000Y-8305000D01*
X13165000Y-8375000D02*
X13195000Y-8405000D01*
X13195000Y-8375000D02*
X13165000Y-8405000D01*
X13165000Y-8475000D02*
X13195000Y-8505000D01*
X13195000Y-8475000D02*
X13165000Y-8505000D01*
X13165000Y-8575000D02*
X13195000Y-8605000D01*
X13195000Y-8575000D02*
X13165000Y-8605000D01*
X13165000Y-8675000D02*
X13195000Y-8705000D01*
X13195000Y-8675000D02*
X13165000Y-8705000D01*
X13165000Y-8775000D02*
X13195000Y-8805000D01*
X13195000Y-8775000D02*
X13165000Y-8805000D01*
X13232500Y-12495750D02*
X13262500Y-12525750D01*
X13262500Y-12495750D02*
X13232500Y-12525750D01*
X13233700Y-12305000D02*
X13263700Y-12335000D01*
X13263700Y-12305000D02*
X13233700Y-12335000D01*
X13265000Y-8175000D02*
X13295000Y-8205000D01*
X13295000Y-8175000D02*
X13265000Y-8205000D01*
X13265000Y-8275000D02*
X13295000Y-8305000D01*
X13295000Y-8275000D02*
X13265000Y-8305000D01*
X13265000Y-8375000D02*
X13295000Y-8405000D01*
X13295000Y-8375000D02*
X13265000Y-8405000D01*
X13265000Y-8475000D02*
X13295000Y-8505000D01*
X13295000Y-8475000D02*
X13265000Y-8505000D01*
X13265000Y-8575000D02*
X13295000Y-8605000D01*
X13295000Y-8575000D02*
X13265000Y-8605000D01*
X13265000Y-8675000D02*
X13295000Y-8705000D01*
X13295000Y-8675000D02*
X13265000Y-8705000D01*
X13265000Y-8775000D02*
X13295000Y-8805000D01*
X13295000Y-8775000D02*
X13265000Y-8805000D01*
X13315000Y-12065000D02*
X13345000Y-12095000D01*
X13345000Y-12065000D02*
X13315000Y-12095000D01*
X13335000Y-12345000D02*
X13365000Y-12375000D01*
X13365000Y-12345000D02*
X13335000Y-12375000D01*
X13337250Y-13125000D02*
X13367250Y-13155000D01*
X13367250Y-13125000D02*
X13337250Y-13155000D01*
X13345000Y-11265000D02*
X13375000Y-11295000D01*
X13375000Y-11265000D02*
X13345000Y-11295000D01*
X13365000Y-8175000D02*
X13395000Y-8205000D01*
X13395000Y-8175000D02*
X13365000Y-8205000D01*
X13365000Y-8275000D02*
X13395000Y-8305000D01*
X13395000Y-8275000D02*
X13365000Y-8305000D01*
X13365000Y-8675000D02*
X13395000Y-8705000D01*
X13395000Y-8675000D02*
X13365000Y-8705000D01*
X13365000Y-8775000D02*
X13395000Y-8805000D01*
X13395000Y-8775000D02*
X13365000Y-8805000D01*
X13417250Y-12955500D02*
X13447250Y-12985500D01*
X13447250Y-12955500D02*
X13417250Y-12985500D01*
X13433750Y-12345000D02*
X13463750Y-12375000D01*
X13463750Y-12345000D02*
X13433750Y-12375000D01*
X13445000Y-11175000D02*
X13475000Y-11205000D01*
X13475000Y-11175000D02*
X13445000Y-11205000D01*
X13465000Y-8675000D02*
X13495000Y-8705000D01*
X13495000Y-8675000D02*
X13465000Y-8705000D01*
X13465000Y-8775000D02*
X13495000Y-8805000D01*
X13495000Y-8775000D02*
X13465000Y-8805000D01*
X13465000Y-12065000D02*
X13495000Y-12095000D01*
X13495000Y-12065000D02*
X13465000Y-12095000D01*
X13485000Y-11675000D02*
X13515000Y-11705000D01*
X13515000Y-11675000D02*
X13485000Y-11705000D01*
X13485000Y-11775000D02*
X13515000Y-11805000D01*
X13515000Y-11775000D02*
X13485000Y-11805000D01*
X13505000Y-12555000D02*
X13535000Y-12585000D01*
X13535000Y-12555000D02*
X13505000Y-12585000D01*
X13507250Y-13045000D02*
X13537250Y-13075000D01*
X13537250Y-13045000D02*
X13507250Y-13075000D01*
X13562750Y-12970000D02*
X13592750Y-13000000D01*
X13592750Y-12970000D02*
X13562750Y-13000000D01*
X13565000Y-8175000D02*
X13595000Y-8205000D01*
X13595000Y-8175000D02*
X13565000Y-8205000D01*
X13565000Y-8275000D02*
X13595000Y-8305000D01*
X13595000Y-8275000D02*
X13565000Y-8305000D01*
X13565000Y-8675000D02*
X13595000Y-8705000D01*
X13595000Y-8675000D02*
X13565000Y-8705000D01*
X13565000Y-8775000D02*
X13595000Y-8805000D01*
X13595000Y-8775000D02*
X13565000Y-8805000D01*
X13575000Y-11595000D02*
X13605000Y-11625000D01*
X13605000Y-11595000D02*
X13575000Y-11625000D01*
X13575000Y-11845000D02*
X13605000Y-11875000D01*
X13605000Y-11845000D02*
X13575000Y-11875000D01*
X13607250Y-13115000D02*
X13637250Y-13145000D01*
X13637250Y-13115000D02*
X13607250Y-13145000D01*
X13615000Y-12475000D02*
X13645000Y-12505000D01*
X13645000Y-12475000D02*
X13615000Y-12505000D01*
X13661000Y-8048000D02*
X13691000Y-8078000D01*
X13691000Y-8048000D02*
X13661000Y-8078000D01*
X13687250Y-13205000D02*
X13717250Y-13235000D01*
X13717250Y-13205000D02*
X13687250Y-13235000D01*
X13695000Y-8425000D02*
X13725000Y-8455000D01*
X13725000Y-8425000D02*
X13695000Y-8455000D01*
X13695000Y-8525000D02*
X13725000Y-8555000D01*
X13725000Y-8525000D02*
X13695000Y-8555000D01*
X13702000Y-12719250D02*
X13732000Y-12749250D01*
X13732000Y-12719250D02*
X13702000Y-12749250D01*
X13745000Y-12032450D02*
X13775000Y-12062450D01*
X13775000Y-12032450D02*
X13745000Y-12062450D01*
X13775000Y-11615000D02*
X13805000Y-11645000D01*
X13805000Y-11615000D02*
X13775000Y-11645000D01*
X13775000Y-11835000D02*
X13805000Y-11865000D01*
X13805000Y-11835000D02*
X13775000Y-11865000D01*
X13795000Y-8425000D02*
X13825000Y-8455000D01*
X13825000Y-8425000D02*
X13795000Y-8455000D01*
X13795000Y-8525000D02*
X13825000Y-8555000D01*
X13825000Y-8525000D02*
X13795000Y-8555000D01*
X13802000Y-12719250D02*
X13832000Y-12749250D01*
X13832000Y-12719250D02*
X13802000Y-12749250D01*
X13809675Y-11004950D02*
X13839675Y-11034950D01*
X13839675Y-11004950D02*
X13809675Y-11034950D01*
X13825000Y-8885000D02*
X13855000Y-8915000D01*
X13855000Y-8885000D02*
X13825000Y-8915000D01*
X13855000Y-12115000D02*
X13885000Y-12145000D01*
X13885000Y-12115000D02*
X13855000Y-12145000D01*
X13875000Y-12025000D02*
X13905000Y-12055000D01*
X13905000Y-12025000D02*
X13875000Y-12055000D01*
X13892000Y-12719250D02*
X13922000Y-12749250D01*
X13922000Y-12719250D02*
X13892000Y-12749250D01*
X13895000Y-8425000D02*
X13925000Y-8455000D01*
X13925000Y-8425000D02*
X13895000Y-8455000D01*
X13895000Y-8525000D02*
X13925000Y-8555000D01*
X13925000Y-8525000D02*
X13895000Y-8555000D01*
X13895000Y-11055000D02*
X13925000Y-11085000D01*
X13925000Y-11055000D02*
X13895000Y-11085000D01*
X13895000Y-12478750D02*
X13925000Y-12508750D01*
X13925000Y-12478750D02*
X13895000Y-12508750D01*
X13962000Y-12799250D02*
X13992000Y-12829250D01*
X13992000Y-12799250D02*
X13962000Y-12829250D01*
X13965000Y-12478750D02*
X13995000Y-12508750D01*
X13995000Y-12478750D02*
X13965000Y-12508750D01*
X13995000Y-8425000D02*
X14025000Y-8455000D01*
X14025000Y-8425000D02*
X13995000Y-8455000D01*
X13995000Y-8525000D02*
X14025000Y-8555000D01*
X14025000Y-8525000D02*
X13995000Y-8555000D01*
X14045000Y-11098050D02*
X14075000Y-11128050D01*
X14075000Y-11098050D02*
X14045000Y-11128050D01*
X14045000Y-12415000D02*
X14075000Y-12445000D01*
X14075000Y-12415000D02*
X14045000Y-12445000D01*
X14052609Y-11337391D02*
X14082609Y-11367391D01*
X14082609Y-11337391D02*
X14052609Y-11367391D01*
X14057739Y-11418285D02*
X14087739Y-11448285D01*
X14087739Y-11418285D02*
X14057739Y-11448285D01*
X14075000Y-8885000D02*
X14105000Y-8915000D01*
X14105000Y-8885000D02*
X14075000Y-8915000D01*
X14075000Y-12225000D02*
X14105000Y-12255000D01*
X14105000Y-12225000D02*
X14075000Y-12255000D01*
X14095000Y-8425000D02*
X14125000Y-8455000D01*
X14125000Y-8425000D02*
X14095000Y-8455000D01*
X14095000Y-8525000D02*
X14125000Y-8555000D01*
X14125000Y-8525000D02*
X14095000Y-8555000D01*
X14115000Y-11195000D02*
X14145000Y-11225000D01*
X14145000Y-11195000D02*
X14115000Y-11225000D01*
X14135000Y-9655000D02*
X14165000Y-9685000D01*
X14165000Y-9655000D02*
X14135000Y-9685000D01*
X14145000Y-9555000D02*
X14175000Y-9585000D01*
X14175000Y-9555000D02*
X14145000Y-9585000D01*
X14145000Y-12495000D02*
X14175000Y-12525000D01*
X14175000Y-12495000D02*
X14145000Y-12525000D01*
X14155000Y-10474000D02*
X14185000Y-10504000D01*
X14185000Y-10474000D02*
X14155000Y-10504000D01*
X14155000Y-10665000D02*
X14185000Y-10695000D01*
X14185000Y-10665000D02*
X14155000Y-10695000D01*
X14155000Y-11715000D02*
X14185000Y-11745000D01*
X14185000Y-11715000D02*
X14155000Y-11745000D01*
X14177609Y-11907609D02*
X14207609Y-11937609D01*
X14207609Y-11907609D02*
X14177609Y-11937609D01*
X14191000Y-8048000D02*
X14221000Y-8078000D01*
X14221000Y-8048000D02*
X14191000Y-8078000D01*
X14192450Y-11475000D02*
X14222450Y-11505000D01*
X14222450Y-11475000D02*
X14192450Y-11505000D01*
X14205000Y-8655000D02*
X14235000Y-8685000D01*
X14235000Y-8655000D02*
X14205000Y-8685000D01*
X14205000Y-8755000D02*
X14235000Y-8785000D01*
X14235000Y-8755000D02*
X14205000Y-8785000D01*
X14220000Y-11145000D02*
X14250000Y-11175000D01*
X14250000Y-11145000D02*
X14220000Y-11175000D01*
X14225000Y-9485000D02*
X14255000Y-9515000D01*
X14255000Y-9485000D02*
X14225000Y-9515000D01*
X14225000Y-9735000D02*
X14255000Y-9765000D01*
X14255000Y-9735000D02*
X14225000Y-9765000D01*
X14245000Y-12495000D02*
X14275000Y-12525000D01*
X14275000Y-12495000D02*
X14245000Y-12525000D01*
X14255000Y-11715000D02*
X14285000Y-11745000D01*
X14285000Y-11715000D02*
X14255000Y-11745000D01*
X14275000Y-10424000D02*
X14305000Y-10454000D01*
X14305000Y-10424000D02*
X14275000Y-10454000D01*
X14282609Y-11477391D02*
X14312609Y-11507391D01*
X14312609Y-11477391D02*
X14282609Y-11507391D01*
X14293059Y-11177471D02*
X14323059Y-11207471D01*
X14323059Y-11177471D02*
X14293059Y-11207471D01*
X14305000Y-8655000D02*
X14335000Y-8685000D01*
X14335000Y-8655000D02*
X14305000Y-8685000D01*
X14305000Y-8755000D02*
X14335000Y-8785000D01*
X14335000Y-8755000D02*
X14305000Y-8785000D01*
X14305000Y-11885000D02*
X14335000Y-11915000D01*
X14335000Y-11885000D02*
X14305000Y-11915000D01*
X14305100Y-10885000D02*
X14335100Y-10915000D01*
X14335100Y-10885000D02*
X14305100Y-10915000D01*
X14306693Y-12339457D02*
X14336693Y-12369457D01*
X14336693Y-12339457D02*
X14306693Y-12369457D01*
X14314793Y-9093512D02*
X14344793Y-9123512D01*
X14344793Y-9093512D02*
X14314793Y-9123512D01*
X14315000Y-8175000D02*
X14345000Y-8205000D01*
X14345000Y-8175000D02*
X14315000Y-8205000D01*
X14315000Y-8275000D02*
X14345000Y-8305000D01*
X14345000Y-8275000D02*
X14315000Y-8305000D01*
X14365000Y-11455000D02*
X14395000Y-11485000D01*
X14395000Y-11455000D02*
X14365000Y-11485000D01*
X14365050Y-10595000D02*
X14395050Y-10625000D01*
X14395050Y-10595000D02*
X14365050Y-10625000D01*
X14396740Y-8988600D02*
X14426740Y-9018600D01*
X14426740Y-8988600D02*
X14396740Y-9018600D01*
X14405000Y-8655000D02*
X14435000Y-8685000D01*
X14435000Y-8655000D02*
X14405000Y-8685000D01*
X14405000Y-8755000D02*
X14435000Y-8785000D01*
X14435000Y-8755000D02*
X14405000Y-8785000D01*
X14415000Y-12005000D02*
X14445000Y-12035000D01*
X14445000Y-12005000D02*
X14415000Y-12035000D01*
X14435000Y-12534500D02*
X14465000Y-12564500D01*
X14465000Y-12534500D02*
X14435000Y-12564500D01*
X14467405Y-11452491D02*
X14497405Y-11482491D01*
X14497405Y-11452491D02*
X14467405Y-11482491D01*
X14496740Y-8988600D02*
X14526740Y-9018600D01*
X14526740Y-8988600D02*
X14496740Y-9018600D01*
X14496740Y-10595000D02*
X14526740Y-10625000D01*
X14526740Y-10595000D02*
X14496740Y-10625000D01*
X14505000Y-8155000D02*
X14535000Y-8185000D01*
X14535000Y-8155000D02*
X14505000Y-8185000D01*
X14505000Y-8255000D02*
X14535000Y-8285000D01*
X14535000Y-8255000D02*
X14505000Y-8285000D01*
X14505000Y-8355000D02*
X14535000Y-8385000D01*
X14535000Y-8355000D02*
X14505000Y-8385000D01*
X14505000Y-8455000D02*
X14535000Y-8485000D01*
X14535000Y-8455000D02*
X14505000Y-8485000D01*
X14505000Y-8555000D02*
X14535000Y-8585000D01*
X14535000Y-8555000D02*
X14505000Y-8585000D01*
X14505000Y-8655000D02*
X14535000Y-8685000D01*
X14535000Y-8655000D02*
X14505000Y-8685000D01*
X14505000Y-8755000D02*
X14535000Y-8785000D01*
X14535000Y-8755000D02*
X14505000Y-8785000D01*
X14535000Y-12534500D02*
X14565000Y-12564500D01*
X14565000Y-12534500D02*
X14535000Y-12564500D01*
X14605000Y-8155000D02*
X14635000Y-8185000D01*
X14635000Y-8155000D02*
X14605000Y-8185000D01*
X14605000Y-8255000D02*
X14635000Y-8285000D01*
X14635000Y-8255000D02*
X14605000Y-8285000D01*
X14605000Y-8355000D02*
X14635000Y-8385000D01*
X14635000Y-8355000D02*
X14605000Y-8385000D01*
X14605000Y-8455000D02*
X14635000Y-8485000D01*
X14635000Y-8455000D02*
X14605000Y-8485000D01*
X14605000Y-8555000D02*
X14635000Y-8585000D01*
X14635000Y-8555000D02*
X14605000Y-8585000D01*
X14605000Y-8655000D02*
X14635000Y-8685000D01*
X14635000Y-8655000D02*
X14605000Y-8685000D01*
X14605000Y-8755000D02*
X14635000Y-8785000D01*
X14635000Y-8755000D02*
X14605000Y-8785000D01*
X14635724Y-11164950D02*
X14665724Y-11194950D01*
X14665724Y-11164950D02*
X14635724Y-11194950D01*
X14651740Y-9172350D02*
X14681740Y-9202350D01*
X14681740Y-9172350D02*
X14651740Y-9202350D01*
X14697550Y-11455000D02*
X14727550Y-11485000D01*
X14727550Y-11455000D02*
X14697550Y-11485000D01*
X14725000Y-11185000D02*
X14755000Y-11215000D01*
X14755000Y-11185000D02*
X14725000Y-11215000D01*
X14805000Y-12295000D02*
X14835000Y-12325000D01*
X14835000Y-12295000D02*
X14805000Y-12325000D01*
X14865000Y-7175000D02*
X14895000Y-7205000D01*
X14895000Y-7175000D02*
X14865000Y-7205000D01*
X14875000Y-6985000D02*
X14905000Y-7015000D01*
X14905000Y-6985000D02*
X14875000Y-7015000D01*
X14993926Y-12006074D02*
X15023926Y-12036074D01*
X15023926Y-12006074D02*
X14993926Y-12036074D01*
X15049000Y-7015000D02*
X15079000Y-7045000D01*
X15079000Y-7015000D02*
X15049000Y-7045000D01*
X15116465Y-11576465D02*
X15146465Y-11606465D01*
X15146465Y-11576465D02*
X15116465Y-11606465D01*
X15127391Y-11802609D02*
X15157391Y-11832609D01*
X15157391Y-11802609D02*
X15127391Y-11832609D01*
X15145000Y-8225000D02*
X15175000Y-8255000D01*
X15175000Y-8225000D02*
X15145000Y-8255000D01*
X15149000Y-6925000D02*
X15179000Y-6955000D01*
X15179000Y-6925000D02*
X15149000Y-6955000D01*
X15165063Y-7884797D02*
X15195063Y-7914797D01*
X15195063Y-7884797D02*
X15165063Y-7914797D01*
X15185000Y-11735000D02*
X15215000Y-11765000D01*
X15215000Y-11735000D02*
X15185000Y-11765000D01*
X15195000Y-11635000D02*
X15225000Y-11665000D01*
X15225000Y-11635000D02*
X15195000Y-11665000D01*
X15226993Y-12013007D02*
X15256993Y-12043007D01*
X15256993Y-12013007D02*
X15226993Y-12043007D01*
X15230000Y-7890000D02*
X15260000Y-7920000D01*
X15260000Y-7890000D02*
X15230000Y-7920000D01*
X15245000Y-8315000D02*
X15275000Y-8345000D01*
X15275000Y-8315000D02*
X15245000Y-8345000D01*
X15295000Y-13305000D02*
X15325000Y-13335000D01*
X15325000Y-13305000D02*
X15295000Y-13335000D01*
X15324050Y-7015000D02*
X15354050Y-7045000D01*
X15354050Y-7015000D02*
X15324050Y-7045000D01*
X15345000Y-8335000D02*
X15375000Y-8365000D01*
X15375000Y-8335000D02*
X15345000Y-8365000D01*
X15394221Y-7886361D02*
X15424221Y-7916361D01*
X15424221Y-7886361D02*
X15394221Y-7916361D01*
X15465000Y-7894950D02*
X15495000Y-7924950D01*
X15495000Y-7894950D02*
X15465000Y-7924950D01*
X15552950Y-13305000D02*
X15582950Y-13335000D01*
X15582950Y-13305000D02*
X15552950Y-13335000D01*
X15646000Y-8438500D02*
X15676000Y-8468500D01*
X15676000Y-8438500D02*
X15646000Y-8468500D01*
X15675000Y-7805000D02*
X15705000Y-7835000D01*
X15705000Y-7805000D02*
X15675000Y-7835000D01*
X15705000Y-10565000D02*
X15735000Y-10595000D01*
X15735000Y-10565000D02*
X15705000Y-10595000D01*
X15765000Y-10435000D02*
X15795000Y-10465000D01*
X15795000Y-10435000D02*
X15765000Y-10465000D01*
X15795050Y-8765000D02*
X15825050Y-8795000D01*
X15825050Y-8765000D02*
X15795050Y-8795000D01*
X15833500Y-8428500D02*
X15863500Y-8458500D01*
X15863500Y-8428500D02*
X15833500Y-8458500D01*
X15834785Y-8513937D02*
X15864785Y-8543937D01*
X15864785Y-8513937D02*
X15834785Y-8543937D01*
X15865000Y-8765000D02*
X15895000Y-8795000D01*
X15895000Y-8765000D02*
X15865000Y-8795000D01*
X15885000Y-10345000D02*
X15915000Y-10375000D01*
X15915000Y-10345000D02*
X15885000Y-10375000D01*
X15925000Y-10565000D02*
X15955000Y-10595000D01*
X15955000Y-10565000D02*
X15925000Y-10595000D01*
X15925000Y-11625000D02*
X15955000Y-11655000D01*
X15955000Y-11625000D02*
X15925000Y-11655000D01*
X15965000Y-7905000D02*
X15995000Y-7935000D01*
X15995000Y-7905000D02*
X15965000Y-7935000D01*
X16006000Y-8758500D02*
X16036000Y-8788500D01*
X16036000Y-8758500D02*
X16006000Y-8788500D01*
X16015938Y-8527792D02*
X16045938Y-8557792D01*
X16045938Y-8527792D02*
X16015938Y-8557792D01*
X16045000Y-9905000D02*
X16075000Y-9935000D01*
X16075000Y-9905000D02*
X16045000Y-9935000D01*
X16045000Y-10125000D02*
X16075000Y-10155000D01*
X16075000Y-10125000D02*
X16045000Y-10155000D01*
X16045000Y-10345000D02*
X16075000Y-10375000D01*
X16075000Y-10345000D02*
X16045000Y-10375000D01*
X16045000Y-10545000D02*
X16075000Y-10575000D01*
X16075000Y-10545000D02*
X16045000Y-10575000D01*
X16045000Y-10775000D02*
X16075000Y-10805000D01*
X16075000Y-10775000D02*
X16045000Y-10805000D01*
X16045000Y-10985000D02*
X16075000Y-11015000D01*
X16075000Y-10985000D02*
X16045000Y-11015000D01*
X16045000Y-11195000D02*
X16075000Y-11225000D01*
X16075000Y-11195000D02*
X16045000Y-11225000D01*
X16055000Y-7905000D02*
X16085000Y-7935000D01*
X16085000Y-7905000D02*
X16055000Y-7935000D01*
X16075950Y-8758500D02*
X16105950Y-8788500D01*
X16105950Y-8758500D02*
X16075950Y-8788500D01*
X16106000Y-8528500D02*
X16136000Y-8558500D01*
X16136000Y-8528500D02*
X16106000Y-8558500D01*
X16115000Y-11845000D02*
X16145000Y-11875000D01*
X16145000Y-11845000D02*
X16115000Y-11875000D01*
X16155000Y-9745000D02*
X16185000Y-9775000D01*
X16185000Y-9745000D02*
X16155000Y-9775000D01*
X16165000Y-11295000D02*
X16195000Y-11325000D01*
X16195000Y-11295000D02*
X16165000Y-11325000D01*
X16205000Y-8425000D02*
X16235000Y-8455000D01*
X16235000Y-8425000D02*
X16205000Y-8455000D01*
X16205000Y-8505000D02*
X16235000Y-8535000D01*
X16235000Y-8505000D02*
X16205000Y-8535000D01*
X16206000Y-8158500D02*
X16236000Y-8188500D01*
X16236000Y-8158500D02*
X16206000Y-8188500D01*
X16225000Y-8785000D02*
X16255000Y-8815000D01*
X16255000Y-8785000D02*
X16225000Y-8815000D01*
X16295000Y-8425000D02*
X16325000Y-8455000D01*
X16325000Y-8425000D02*
X16295000Y-8455000D01*
X16295000Y-8505000D02*
X16325000Y-8535000D01*
X16325000Y-8505000D02*
X16295000Y-8535000D01*
X16310050Y-8695000D02*
X16340050Y-8725000D01*
X16340050Y-8695000D02*
X16310050Y-8725000D01*
X16355000Y-9745000D02*
X16385000Y-9775000D01*
X16385000Y-9745000D02*
X16355000Y-9775000D01*
X16355000Y-11295000D02*
X16385000Y-11325000D01*
X16385000Y-11295000D02*
X16355000Y-11325000D01*
X16465000Y-9635000D02*
X16495000Y-9665000D01*
X16495000Y-9635000D02*
X16465000Y-9665000D01*
X16565000Y-11295000D02*
X16595000Y-11325000D01*
X16595000Y-11295000D02*
X16565000Y-11325000D01*
X16665000Y-9635000D02*
X16695000Y-9665000D01*
X16695000Y-9635000D02*
X16665000Y-9665000D01*
X16735000Y-11585000D02*
X16765000Y-11615000D01*
X16765000Y-11585000D02*
X16735000Y-11615000D01*
X16735000Y-11805000D02*
X16765000Y-11835000D01*
X16765000Y-11805000D02*
X16735000Y-11835000D01*
X16755000Y-11295000D02*
X16785000Y-11325000D01*
X16785000Y-11295000D02*
X16755000Y-11325000D01*
X16865000Y-9635000D02*
X16895000Y-9665000D01*
X16895000Y-9635000D02*
X16865000Y-9665000D01*
D13*
X12400294Y-7146250D02*
G75*
G03*
X12400294Y-7146250I-25000J0D01*
G01*
X12400294Y-13046250D02*
G75*
G03*
X12400294Y-13046250I-25000J0D01*
G01*
X12470589Y-6976544D02*
G75*
G03*
X12470589Y-6976544I-25000J0D01*
G01*
X12470589Y-7315956D02*
G75*
G03*
X12470589Y-7315956I-25000J0D01*
G01*
X12470589Y-12876544D02*
G75*
G03*
X12470589Y-12876544I-25000J0D01*
G01*
X12470589Y-13215956D02*
G75*
G03*
X12470589Y-13215956I-25000J0D01*
G01*
X12640294Y-6906250D02*
G75*
G03*
X12640294Y-6906250I-25000J0D01*
G01*
X12640294Y-7386250D02*
G75*
G03*
X12640294Y-7386250I-25000J0D01*
G01*
X12640294Y-12806250D02*
G75*
G03*
X12640294Y-12806250I-25000J0D01*
G01*
X12640294Y-13286250D02*
G75*
G03*
X12640294Y-13286250I-25000J0D01*
G01*
X12810000Y-6976544D02*
G75*
G03*
X12810000Y-6976544I-25000J0D01*
G01*
X12810000Y-7315956D02*
G75*
G03*
X12810000Y-7315956I-25000J0D01*
G01*
X12810000Y-12876544D02*
G75*
G03*
X12810000Y-12876544I-25000J0D01*
G01*
X12810000Y-13215956D02*
G75*
G03*
X12810000Y-13215956I-25000J0D01*
G01*
X12880294Y-7146250D02*
G75*
G03*
X12880294Y-7146250I-25000J0D01*
G01*
X12880294Y-13046250D02*
G75*
G03*
X12880294Y-13046250I-25000J0D01*
G01*
X16397294Y-7146250D02*
G75*
G03*
X16397294Y-7146250I-25000J0D01*
G01*
X16400294Y-13046250D02*
G75*
G03*
X16400294Y-13046250I-25000J0D01*
G01*
X16467589Y-6976544D02*
G75*
G03*
X16467589Y-6976544I-25000J0D01*
G01*
X16467589Y-7315956D02*
G75*
G03*
X16467589Y-7315956I-25000J0D01*
G01*
X16470589Y-12876544D02*
G75*
G03*
X16470589Y-12876544I-25000J0D01*
G01*
X16470589Y-13215956D02*
G75*
G03*
X16470589Y-13215956I-25000J0D01*
G01*
X16637294Y-6906250D02*
G75*
G03*
X16637294Y-6906250I-25000J0D01*
G01*
X16637294Y-7386250D02*
G75*
G03*
X16637294Y-7386250I-25000J0D01*
G01*
X16640294Y-12806250D02*
G75*
G03*
X16640294Y-12806250I-25000J0D01*
G01*
X16640294Y-13286250D02*
G75*
G03*
X16640294Y-13286250I-25000J0D01*
G01*
X16807000Y-6976544D02*
G75*
G03*
X16807000Y-6976544I-25000J0D01*
G01*
X16807000Y-7315956D02*
G75*
G03*
X16807000Y-7315956I-25000J0D01*
G01*
X16810000Y-12876544D02*
G75*
G03*
X16810000Y-12876544I-25000J0D01*
G01*
X16810000Y-13215956D02*
G75*
G03*
X16810000Y-13215956I-25000J0D01*
G01*
X16877294Y-7146250D02*
G75*
G03*
X16877294Y-7146250I-25000J0D01*
G01*
X16880294Y-13046250D02*
G75*
G03*
X16880294Y-13046250I-25000J0D01*
G01*
D14*
X15812000Y-7437500D02*
X15812000Y-7512500D01*
X15774500Y-7475000D02*
X15849500Y-7475000D01*
X16012000Y-7437500D02*
X16012000Y-7512500D01*
X15974500Y-7475000D02*
X16049500Y-7475000D01*
D15*
X12546941Y-11476941D02*
X12546941Y-11423059D01*
X12493059Y-11423059D01*
X12493059Y-11476941D01*
X12546941Y-11476941D01*
X13046941Y-11476941D02*
X13046941Y-11423059D01*
X12993059Y-11423059D01*
X12993059Y-11476941D01*
X13046941Y-11476941D01*
D10*
X13150000Y-9280000D02*
X13200000Y-9230000D01*
X13150000Y-9180000D01*
X13100000Y-9230000D01*
X13150000Y-9280000D01*
X13650000Y-9280000D02*
X13700000Y-9230000D01*
X13650000Y-9180000D01*
X13600000Y-9230000D01*
X13650000Y-9280000D01*
X14150000Y-12860000D02*
X14200000Y-12810000D01*
X14150000Y-12760000D01*
X14100000Y-12810000D01*
X14150000Y-12860000D01*
X14211000Y-13135000D02*
X14261000Y-13085000D01*
X14211000Y-13035000D01*
X14161000Y-13085000D01*
X14211000Y-13135000D01*
X14465000Y-13135000D02*
X14515000Y-13085000D01*
X14465000Y-13035000D01*
X14415000Y-13085000D01*
X14465000Y-13135000D01*
X14560000Y-12860000D02*
X14610000Y-12810000D01*
X14560000Y-12760000D01*
X14510000Y-12810000D01*
X14560000Y-12860000D01*
X14719000Y-13135000D02*
X14769000Y-13085000D01*
X14719000Y-13035000D01*
X14669000Y-13085000D01*
X14719000Y-13135000D01*
X14970000Y-11200000D02*
X15020000Y-11150000D01*
X14970000Y-11100000D01*
X14920000Y-11150000D01*
X14970000Y-11200000D01*
X14973000Y-9285000D02*
X15023000Y-9235000D01*
X14973000Y-9185000D01*
X14923000Y-9235000D01*
X14973000Y-9285000D01*
X14973000Y-13135000D02*
X15023000Y-13085000D01*
X14973000Y-13035000D01*
X14923000Y-13085000D01*
X14973000Y-13135000D01*
X15016000Y-12410000D02*
X15066000Y-12360000D01*
X15016000Y-12310000D01*
X14966000Y-12360000D01*
X15016000Y-12410000D01*
X15016000Y-12664000D02*
X15066000Y-12614000D01*
X15016000Y-12564000D01*
X14966000Y-12614000D01*
X15016000Y-12664000D01*
X15227000Y-9285000D02*
X15277000Y-9235000D01*
X15227000Y-9185000D01*
X15177000Y-9235000D01*
X15227000Y-9285000D01*
X15227000Y-13135000D02*
X15277000Y-13085000D01*
X15227000Y-13035000D01*
X15177000Y-13085000D01*
X15227000Y-13135000D01*
X15270000Y-12410000D02*
X15320000Y-12360000D01*
X15270000Y-12310000D01*
X15220000Y-12360000D01*
X15270000Y-12410000D01*
X15270000Y-12664000D02*
X15320000Y-12614000D01*
X15270000Y-12564000D01*
X15220000Y-12614000D01*
X15270000Y-12664000D01*
X15380000Y-11580000D02*
X15430000Y-11530000D01*
X15380000Y-11480000D01*
X15330000Y-11530000D01*
X15380000Y-11580000D01*
X15380000Y-11940000D02*
X15430000Y-11890000D01*
X15380000Y-11840000D01*
X15330000Y-11890000D01*
X15380000Y-11940000D01*
X15481000Y-9285000D02*
X15531000Y-9235000D01*
X15481000Y-9185000D01*
X15431000Y-9235000D01*
X15481000Y-9285000D01*
X15481000Y-13135000D02*
X15531000Y-13085000D01*
X15481000Y-13035000D01*
X15431000Y-13085000D01*
X15481000Y-13135000D01*
X15524000Y-12410000D02*
X15574000Y-12360000D01*
X15524000Y-12310000D01*
X15474000Y-12360000D01*
X15524000Y-12410000D01*
X15524000Y-12664000D02*
X15574000Y-12614000D01*
X15524000Y-12564000D01*
X15474000Y-12614000D01*
X15524000Y-12664000D01*
X15735000Y-9285000D02*
X15785000Y-9235000D01*
X15735000Y-9185000D01*
X15685000Y-9235000D01*
X15735000Y-9285000D01*
X15735000Y-13135000D02*
X15785000Y-13085000D01*
X15735000Y-13035000D01*
X15685000Y-13085000D01*
X15735000Y-13135000D01*
X15778000Y-12410000D02*
X15828000Y-12360000D01*
X15778000Y-12310000D01*
X15728000Y-12360000D01*
X15778000Y-12410000D01*
X15778000Y-12664000D02*
X15828000Y-12614000D01*
X15778000Y-12564000D01*
X15728000Y-12614000D01*
X15778000Y-12664000D01*
X16032000Y-12410000D02*
X16082000Y-12360000D01*
X16032000Y-12310000D01*
X15982000Y-12360000D01*
X16032000Y-12410000D01*
X16032000Y-12664000D02*
X16082000Y-12614000D01*
X16032000Y-12564000D01*
X15982000Y-12614000D01*
X16032000Y-12664000D01*
D16*
X13430000Y-8431250D02*
X13580000Y-8581250D01*
X13580000Y-8431250D02*
X13430000Y-8581250D01*
X13580000Y-8506250D02*
G75*
G03*
X13580000Y-8506250I-75000J0D01*
G01*
X14220000Y-8431250D02*
X14370000Y-8581250D01*
X14370000Y-8431250D02*
X14220000Y-8581250D01*
X14370000Y-8506250D02*
G75*
G03*
X14370000Y-8506250I-75000J0D01*
G01*
D17*
X13755000Y-7336250D02*
X14045000Y-7626250D01*
X14045000Y-7336250D02*
X13755000Y-7626250D01*
X13900000Y-7336250D02*
X13900000Y-7626250D01*
X13755000Y-7481250D02*
X14045000Y-7481250D01*
D18*
X12455294Y-6986250D02*
X12775294Y-7306250D01*
X12775294Y-6986250D02*
X12455294Y-7306250D01*
X12728433Y-7259388D02*
X12728433Y-7033112D01*
X12502156Y-7033112D01*
X12502156Y-7259388D01*
X12728433Y-7259388D01*
X12455294Y-12886250D02*
X12775294Y-13206250D01*
X12775294Y-12886250D02*
X12455294Y-13206250D01*
X12728433Y-13159388D02*
X12728433Y-12933112D01*
X12502156Y-12933112D01*
X12502156Y-13159388D01*
X12728433Y-13159388D01*
X16452294Y-6986250D02*
X16772294Y-7306250D01*
X16772294Y-6986250D02*
X16452294Y-7306250D01*
X16725433Y-7259388D02*
X16725433Y-7033112D01*
X16499156Y-7033112D01*
X16499156Y-7259388D01*
X16725433Y-7259388D01*
X16455294Y-12886250D02*
X16775294Y-13206250D01*
X16775294Y-12886250D02*
X16455294Y-13206250D01*
X16728433Y-13159388D02*
X16728433Y-12933112D01*
X16502156Y-12933112D01*
X16502156Y-13159388D01*
X16728433Y-13159388D01*
D11*
X12520777Y-13712734D02*
X12520777Y-13512734D01*
X12520777Y-13512734D02*
X12568396Y-13512734D01*
X12568396Y-13512734D02*
X12596967Y-13522258D01*
X12596967Y-13522258D02*
X12616015Y-13541305D01*
X12616015Y-13541305D02*
X12625539Y-13560353D01*
X12625539Y-13560353D02*
X12635062Y-13598448D01*
X12635062Y-13598448D02*
X12635062Y-13627019D01*
X12635062Y-13627019D02*
X12625539Y-13665115D01*
X12625539Y-13665115D02*
X12616015Y-13684162D01*
X12616015Y-13684162D02*
X12596967Y-13703210D01*
X12596967Y-13703210D02*
X12568396Y-13712734D01*
X12568396Y-13712734D02*
X12520777Y-13712734D01*
X12720777Y-13712734D02*
X12720777Y-13579400D01*
X12720777Y-13617496D02*
X12730301Y-13598448D01*
X12730301Y-13598448D02*
X12739824Y-13588924D01*
X12739824Y-13588924D02*
X12758872Y-13579400D01*
X12758872Y-13579400D02*
X12777920Y-13579400D01*
X12844586Y-13712734D02*
X12844586Y-13579400D01*
X12844586Y-13512734D02*
X12835062Y-13522258D01*
X12835062Y-13522258D02*
X12844586Y-13531781D01*
X12844586Y-13531781D02*
X12854110Y-13522258D01*
X12854110Y-13522258D02*
X12844586Y-13512734D01*
X12844586Y-13512734D02*
X12844586Y-13531781D01*
X12968396Y-13712734D02*
X12949348Y-13703210D01*
X12949348Y-13703210D02*
X12939824Y-13684162D01*
X12939824Y-13684162D02*
X12939824Y-13512734D01*
X13073158Y-13712734D02*
X13054110Y-13703210D01*
X13054110Y-13703210D02*
X13044586Y-13684162D01*
X13044586Y-13684162D02*
X13044586Y-13512734D01*
X13301729Y-13712734D02*
X13301729Y-13512734D01*
X13301729Y-13512734D02*
X13368396Y-13655591D01*
X13368396Y-13655591D02*
X13435062Y-13512734D01*
X13435062Y-13512734D02*
X13435062Y-13712734D01*
X13616015Y-13712734D02*
X13616015Y-13607972D01*
X13616015Y-13607972D02*
X13606491Y-13588924D01*
X13606491Y-13588924D02*
X13587443Y-13579400D01*
X13587443Y-13579400D02*
X13549348Y-13579400D01*
X13549348Y-13579400D02*
X13530301Y-13588924D01*
X13616015Y-13703210D02*
X13596967Y-13712734D01*
X13596967Y-13712734D02*
X13549348Y-13712734D01*
X13549348Y-13712734D02*
X13530301Y-13703210D01*
X13530301Y-13703210D02*
X13520777Y-13684162D01*
X13520777Y-13684162D02*
X13520777Y-13665115D01*
X13520777Y-13665115D02*
X13530301Y-13646067D01*
X13530301Y-13646067D02*
X13549348Y-13636543D01*
X13549348Y-13636543D02*
X13596967Y-13636543D01*
X13596967Y-13636543D02*
X13616015Y-13627019D01*
X13711253Y-13579400D02*
X13711253Y-13779400D01*
X13711253Y-13588924D02*
X13730301Y-13579400D01*
X13730301Y-13579400D02*
X13768396Y-13579400D01*
X13768396Y-13579400D02*
X13787443Y-13588924D01*
X13787443Y-13588924D02*
X13796967Y-13598448D01*
X13796967Y-13598448D02*
X13806491Y-13617496D01*
X13806491Y-13617496D02*
X13806491Y-13674638D01*
X13806491Y-13674638D02*
X13796967Y-13693686D01*
X13796967Y-13693686D02*
X13787443Y-13703210D01*
X13787443Y-13703210D02*
X13768396Y-13712734D01*
X13768396Y-13712734D02*
X13730301Y-13712734D01*
X13730301Y-13712734D02*
X13711253Y-13703210D01*
X13892205Y-13693686D02*
X13901729Y-13703210D01*
X13901729Y-13703210D02*
X13892205Y-13712734D01*
X13892205Y-13712734D02*
X13882682Y-13703210D01*
X13882682Y-13703210D02*
X13892205Y-13693686D01*
X13892205Y-13693686D02*
X13892205Y-13712734D01*
X13892205Y-13588924D02*
X13901729Y-13598448D01*
X13901729Y-13598448D02*
X13892205Y-13607972D01*
X13892205Y-13607972D02*
X13882682Y-13598448D01*
X13882682Y-13598448D02*
X13892205Y-13588924D01*
X13892205Y-13588924D02*
X13892205Y-13607972D01*
D12*
X12230000Y-14026250D02*
X12260000Y-14056250D01*
X12260000Y-14026250D02*
X12230000Y-14056250D01*
D11*
X12558872Y-13932734D02*
X12577920Y-13932734D01*
X12577920Y-13932734D02*
X12596967Y-13942258D01*
X12596967Y-13942258D02*
X12606491Y-13951781D01*
X12606491Y-13951781D02*
X12616015Y-13970829D01*
X12616015Y-13970829D02*
X12625539Y-14008924D01*
X12625539Y-14008924D02*
X12625539Y-14056543D01*
X12625539Y-14056543D02*
X12616015Y-14094638D01*
X12616015Y-14094638D02*
X12606491Y-14113686D01*
X12606491Y-14113686D02*
X12596967Y-14123210D01*
X12596967Y-14123210D02*
X12577920Y-14132734D01*
X12577920Y-14132734D02*
X12558872Y-14132734D01*
X12558872Y-14132734D02*
X12539824Y-14123210D01*
X12539824Y-14123210D02*
X12530301Y-14113686D01*
X12530301Y-14113686D02*
X12520777Y-14094638D01*
X12520777Y-14094638D02*
X12511253Y-14056543D01*
X12511253Y-14056543D02*
X12511253Y-14008924D01*
X12511253Y-14008924D02*
X12520777Y-13970829D01*
X12520777Y-13970829D02*
X12530301Y-13951781D01*
X12530301Y-13951781D02*
X12539824Y-13942258D01*
X12539824Y-13942258D02*
X12558872Y-13932734D01*
X12711253Y-14113686D02*
X12720777Y-14123210D01*
X12720777Y-14123210D02*
X12711253Y-14132734D01*
X12711253Y-14132734D02*
X12701729Y-14123210D01*
X12701729Y-14123210D02*
X12711253Y-14113686D01*
X12711253Y-14113686D02*
X12711253Y-14132734D01*
X12787443Y-13932734D02*
X12911253Y-13932734D01*
X12911253Y-13932734D02*
X12844586Y-14008924D01*
X12844586Y-14008924D02*
X12873158Y-14008924D01*
X12873158Y-14008924D02*
X12892205Y-14018448D01*
X12892205Y-14018448D02*
X12901729Y-14027972D01*
X12901729Y-14027972D02*
X12911253Y-14047019D01*
X12911253Y-14047019D02*
X12911253Y-14094638D01*
X12911253Y-14094638D02*
X12901729Y-14113686D01*
X12901729Y-14113686D02*
X12892205Y-14123210D01*
X12892205Y-14123210D02*
X12873158Y-14132734D01*
X12873158Y-14132734D02*
X12816015Y-14132734D01*
X12816015Y-14132734D02*
X12796967Y-14123210D01*
X12796967Y-14123210D02*
X12787443Y-14113686D01*
X13035062Y-13932734D02*
X13054110Y-13932734D01*
X13054110Y-13932734D02*
X13073158Y-13942258D01*
X13073158Y-13942258D02*
X13082682Y-13951781D01*
X13082682Y-13951781D02*
X13092205Y-13970829D01*
X13092205Y-13970829D02*
X13101729Y-14008924D01*
X13101729Y-14008924D02*
X13101729Y-14056543D01*
X13101729Y-14056543D02*
X13092205Y-14094638D01*
X13092205Y-14094638D02*
X13082682Y-14113686D01*
X13082682Y-14113686D02*
X13073158Y-14123210D01*
X13073158Y-14123210D02*
X13054110Y-14132734D01*
X13054110Y-14132734D02*
X13035062Y-14132734D01*
X13035062Y-14132734D02*
X13016015Y-14123210D01*
X13016015Y-14123210D02*
X13006491Y-14113686D01*
X13006491Y-14113686D02*
X12996967Y-14094638D01*
X12996967Y-14094638D02*
X12987443Y-14056543D01*
X12987443Y-14056543D02*
X12987443Y-14008924D01*
X12987443Y-14008924D02*
X12996967Y-13970829D01*
X12996967Y-13970829D02*
X13006491Y-13951781D01*
X13006491Y-13951781D02*
X13016015Y-13942258D01*
X13016015Y-13942258D02*
X13035062Y-13932734D01*
X13225539Y-13932734D02*
X13244586Y-13932734D01*
X13244586Y-13932734D02*
X13263634Y-13942258D01*
X13263634Y-13942258D02*
X13273158Y-13951781D01*
X13273158Y-13951781D02*
X13282682Y-13970829D01*
X13282682Y-13970829D02*
X13292205Y-14008924D01*
X13292205Y-14008924D02*
X13292205Y-14056543D01*
X13292205Y-14056543D02*
X13282682Y-14094638D01*
X13282682Y-14094638D02*
X13273158Y-14113686D01*
X13273158Y-14113686D02*
X13263634Y-14123210D01*
X13263634Y-14123210D02*
X13244586Y-14132734D01*
X13244586Y-14132734D02*
X13225539Y-14132734D01*
X13225539Y-14132734D02*
X13206491Y-14123210D01*
X13206491Y-14123210D02*
X13196967Y-14113686D01*
X13196967Y-14113686D02*
X13187443Y-14094638D01*
X13187443Y-14094638D02*
X13177920Y-14056543D01*
X13177920Y-14056543D02*
X13177920Y-14008924D01*
X13177920Y-14008924D02*
X13187443Y-13970829D01*
X13187443Y-13970829D02*
X13196967Y-13951781D01*
X13196967Y-13951781D02*
X13206491Y-13942258D01*
X13206491Y-13942258D02*
X13225539Y-13932734D01*
X13377920Y-14132734D02*
X13377920Y-13999400D01*
X13377920Y-14018448D02*
X13387443Y-14008924D01*
X13387443Y-14008924D02*
X13406491Y-13999400D01*
X13406491Y-13999400D02*
X13435063Y-13999400D01*
X13435063Y-13999400D02*
X13454110Y-14008924D01*
X13454110Y-14008924D02*
X13463634Y-14027972D01*
X13463634Y-14027972D02*
X13463634Y-14132734D01*
X13463634Y-14027972D02*
X13473158Y-14008924D01*
X13473158Y-14008924D02*
X13492205Y-13999400D01*
X13492205Y-13999400D02*
X13520777Y-13999400D01*
X13520777Y-13999400D02*
X13539824Y-14008924D01*
X13539824Y-14008924D02*
X13549348Y-14027972D01*
X13549348Y-14027972D02*
X13549348Y-14132734D01*
X13644586Y-14132734D02*
X13644586Y-13999400D01*
X13644586Y-14018448D02*
X13654110Y-14008924D01*
X13654110Y-14008924D02*
X13673158Y-13999400D01*
X13673158Y-13999400D02*
X13701729Y-13999400D01*
X13701729Y-13999400D02*
X13720777Y-14008924D01*
X13720777Y-14008924D02*
X13730301Y-14027972D01*
X13730301Y-14027972D02*
X13730301Y-14132734D01*
X13730301Y-14027972D02*
X13739824Y-14008924D01*
X13739824Y-14008924D02*
X13758872Y-13999400D01*
X13758872Y-13999400D02*
X13787443Y-13999400D01*
X13787443Y-13999400D02*
X13806491Y-14008924D01*
X13806491Y-14008924D02*
X13816015Y-14027972D01*
X13816015Y-14027972D02*
X13816015Y-14132734D01*
X14206491Y-13923210D02*
X14035063Y-14180353D01*
X14463634Y-13932734D02*
X14482682Y-13932734D01*
X14482682Y-13932734D02*
X14501729Y-13942258D01*
X14501729Y-13942258D02*
X14511253Y-13951781D01*
X14511253Y-13951781D02*
X14520777Y-13970829D01*
X14520777Y-13970829D02*
X14530301Y-14008924D01*
X14530301Y-14008924D02*
X14530301Y-14056543D01*
X14530301Y-14056543D02*
X14520777Y-14094638D01*
X14520777Y-14094638D02*
X14511253Y-14113686D01*
X14511253Y-14113686D02*
X14501729Y-14123210D01*
X14501729Y-14123210D02*
X14482682Y-14132734D01*
X14482682Y-14132734D02*
X14463634Y-14132734D01*
X14463634Y-14132734D02*
X14444586Y-14123210D01*
X14444586Y-14123210D02*
X14435063Y-14113686D01*
X14435063Y-14113686D02*
X14425539Y-14094638D01*
X14425539Y-14094638D02*
X14416015Y-14056543D01*
X14416015Y-14056543D02*
X14416015Y-14008924D01*
X14416015Y-14008924D02*
X14425539Y-13970829D01*
X14425539Y-13970829D02*
X14435063Y-13951781D01*
X14435063Y-13951781D02*
X14444586Y-13942258D01*
X14444586Y-13942258D02*
X14463634Y-13932734D01*
X14616015Y-14113686D02*
X14625539Y-14123210D01*
X14625539Y-14123210D02*
X14616015Y-14132734D01*
X14616015Y-14132734D02*
X14606491Y-14123210D01*
X14606491Y-14123210D02*
X14616015Y-14113686D01*
X14616015Y-14113686D02*
X14616015Y-14132734D01*
X14749348Y-13932734D02*
X14768396Y-13932734D01*
X14768396Y-13932734D02*
X14787444Y-13942258D01*
X14787444Y-13942258D02*
X14796967Y-13951781D01*
X14796967Y-13951781D02*
X14806491Y-13970829D01*
X14806491Y-13970829D02*
X14816015Y-14008924D01*
X14816015Y-14008924D02*
X14816015Y-14056543D01*
X14816015Y-14056543D02*
X14806491Y-14094638D01*
X14806491Y-14094638D02*
X14796967Y-14113686D01*
X14796967Y-14113686D02*
X14787444Y-14123210D01*
X14787444Y-14123210D02*
X14768396Y-14132734D01*
X14768396Y-14132734D02*
X14749348Y-14132734D01*
X14749348Y-14132734D02*
X14730301Y-14123210D01*
X14730301Y-14123210D02*
X14720777Y-14113686D01*
X14720777Y-14113686D02*
X14711253Y-14094638D01*
X14711253Y-14094638D02*
X14701729Y-14056543D01*
X14701729Y-14056543D02*
X14701729Y-14008924D01*
X14701729Y-14008924D02*
X14711253Y-13970829D01*
X14711253Y-13970829D02*
X14720777Y-13951781D01*
X14720777Y-13951781D02*
X14730301Y-13942258D01*
X14730301Y-13942258D02*
X14749348Y-13932734D01*
X15006491Y-14132734D02*
X14892206Y-14132734D01*
X14949348Y-14132734D02*
X14949348Y-13932734D01*
X14949348Y-13932734D02*
X14930301Y-13961305D01*
X14930301Y-13961305D02*
X14911253Y-13980353D01*
X14911253Y-13980353D02*
X14892206Y-13989877D01*
X15196967Y-14132734D02*
X15082682Y-14132734D01*
X15139825Y-14132734D02*
X15139825Y-13932734D01*
X15139825Y-13932734D02*
X15120777Y-13961305D01*
X15120777Y-13961305D02*
X15101729Y-13980353D01*
X15101729Y-13980353D02*
X15082682Y-13989877D01*
X15311253Y-14018448D02*
X15292206Y-14008924D01*
X15292206Y-14008924D02*
X15282682Y-13999400D01*
X15282682Y-13999400D02*
X15273158Y-13980353D01*
X15273158Y-13980353D02*
X15273158Y-13970829D01*
X15273158Y-13970829D02*
X15282682Y-13951781D01*
X15282682Y-13951781D02*
X15292206Y-13942258D01*
X15292206Y-13942258D02*
X15311253Y-13932734D01*
X15311253Y-13932734D02*
X15349348Y-13932734D01*
X15349348Y-13932734D02*
X15368396Y-13942258D01*
X15368396Y-13942258D02*
X15377920Y-13951781D01*
X15377920Y-13951781D02*
X15387444Y-13970829D01*
X15387444Y-13970829D02*
X15387444Y-13980353D01*
X15387444Y-13980353D02*
X15377920Y-13999400D01*
X15377920Y-13999400D02*
X15368396Y-14008924D01*
X15368396Y-14008924D02*
X15349348Y-14018448D01*
X15349348Y-14018448D02*
X15311253Y-14018448D01*
X15311253Y-14018448D02*
X15292206Y-14027972D01*
X15292206Y-14027972D02*
X15282682Y-14037496D01*
X15282682Y-14037496D02*
X15273158Y-14056543D01*
X15273158Y-14056543D02*
X15273158Y-14094638D01*
X15273158Y-14094638D02*
X15282682Y-14113686D01*
X15282682Y-14113686D02*
X15292206Y-14123210D01*
X15292206Y-14123210D02*
X15311253Y-14132734D01*
X15311253Y-14132734D02*
X15349348Y-14132734D01*
X15349348Y-14132734D02*
X15368396Y-14123210D01*
X15368396Y-14123210D02*
X15377920Y-14113686D01*
X15377920Y-14113686D02*
X15387444Y-14094638D01*
X15387444Y-14094638D02*
X15387444Y-14056543D01*
X15387444Y-14056543D02*
X15377920Y-14037496D01*
X15377920Y-14037496D02*
X15368396Y-14027972D01*
X15368396Y-14027972D02*
X15349348Y-14018448D01*
X15463634Y-13932734D02*
X15463634Y-13970829D01*
X15539825Y-13932734D02*
X15539825Y-13970829D01*
X15835063Y-14208924D02*
X15825539Y-14199400D01*
X15825539Y-14199400D02*
X15806491Y-14170829D01*
X15806491Y-14170829D02*
X15796968Y-14151781D01*
X15796968Y-14151781D02*
X15787444Y-14123210D01*
X15787444Y-14123210D02*
X15777920Y-14075591D01*
X15777920Y-14075591D02*
X15777920Y-14037496D01*
X15777920Y-14037496D02*
X15787444Y-13989877D01*
X15787444Y-13989877D02*
X15796968Y-13961305D01*
X15796968Y-13961305D02*
X15806491Y-13942258D01*
X15806491Y-13942258D02*
X15825539Y-13913686D01*
X15825539Y-13913686D02*
X15835063Y-13904162D01*
X15901729Y-13951781D02*
X15911253Y-13942258D01*
X15911253Y-13942258D02*
X15930301Y-13932734D01*
X15930301Y-13932734D02*
X15977920Y-13932734D01*
X15977920Y-13932734D02*
X15996968Y-13942258D01*
X15996968Y-13942258D02*
X16006491Y-13951781D01*
X16006491Y-13951781D02*
X16016015Y-13970829D01*
X16016015Y-13970829D02*
X16016015Y-13989877D01*
X16016015Y-13989877D02*
X16006491Y-14018448D01*
X16006491Y-14018448D02*
X15892206Y-14132734D01*
X15892206Y-14132734D02*
X16016015Y-14132734D01*
X16092206Y-13951781D02*
X16101729Y-13942258D01*
X16101729Y-13942258D02*
X16120777Y-13932734D01*
X16120777Y-13932734D02*
X16168396Y-13932734D01*
X16168396Y-13932734D02*
X16187444Y-13942258D01*
X16187444Y-13942258D02*
X16196968Y-13951781D01*
X16196968Y-13951781D02*
X16206491Y-13970829D01*
X16206491Y-13970829D02*
X16206491Y-13989877D01*
X16206491Y-13989877D02*
X16196968Y-14018448D01*
X16196968Y-14018448D02*
X16082682Y-14132734D01*
X16082682Y-14132734D02*
X16206491Y-14132734D01*
X16282682Y-13951781D02*
X16292206Y-13942258D01*
X16292206Y-13942258D02*
X16311253Y-13932734D01*
X16311253Y-13932734D02*
X16358872Y-13932734D01*
X16358872Y-13932734D02*
X16377920Y-13942258D01*
X16377920Y-13942258D02*
X16387444Y-13951781D01*
X16387444Y-13951781D02*
X16396968Y-13970829D01*
X16396968Y-13970829D02*
X16396968Y-13989877D01*
X16396968Y-13989877D02*
X16387444Y-14018448D01*
X16387444Y-14018448D02*
X16273158Y-14132734D01*
X16273158Y-14132734D02*
X16396968Y-14132734D01*
X16635063Y-14132734D02*
X16635063Y-13932734D01*
X16720777Y-14132734D02*
X16720777Y-14027972D01*
X16720777Y-14027972D02*
X16711253Y-14008924D01*
X16711253Y-14008924D02*
X16692206Y-13999400D01*
X16692206Y-13999400D02*
X16663634Y-13999400D01*
X16663634Y-13999400D02*
X16644587Y-14008924D01*
X16644587Y-14008924D02*
X16635063Y-14018448D01*
X16844587Y-14132734D02*
X16825539Y-14123210D01*
X16825539Y-14123210D02*
X16816015Y-14113686D01*
X16816015Y-14113686D02*
X16806492Y-14094638D01*
X16806492Y-14094638D02*
X16806492Y-14037496D01*
X16806492Y-14037496D02*
X16816015Y-14018448D01*
X16816015Y-14018448D02*
X16825539Y-14008924D01*
X16825539Y-14008924D02*
X16844587Y-13999400D01*
X16844587Y-13999400D02*
X16873158Y-13999400D01*
X16873158Y-13999400D02*
X16892206Y-14008924D01*
X16892206Y-14008924D02*
X16901730Y-14018448D01*
X16901730Y-14018448D02*
X16911253Y-14037496D01*
X16911253Y-14037496D02*
X16911253Y-14094638D01*
X16911253Y-14094638D02*
X16901730Y-14113686D01*
X16901730Y-14113686D02*
X16892206Y-14123210D01*
X16892206Y-14123210D02*
X16873158Y-14132734D01*
X16873158Y-14132734D02*
X16844587Y-14132734D01*
X17025539Y-14132734D02*
X17006492Y-14123210D01*
X17006492Y-14123210D02*
X16996968Y-14104162D01*
X16996968Y-14104162D02*
X16996968Y-13932734D01*
X17177920Y-14123210D02*
X17158873Y-14132734D01*
X17158873Y-14132734D02*
X17120777Y-14132734D01*
X17120777Y-14132734D02*
X17101730Y-14123210D01*
X17101730Y-14123210D02*
X17092206Y-14104162D01*
X17092206Y-14104162D02*
X17092206Y-14027972D01*
X17092206Y-14027972D02*
X17101730Y-14008924D01*
X17101730Y-14008924D02*
X17120777Y-13999400D01*
X17120777Y-13999400D02*
X17158873Y-13999400D01*
X17158873Y-13999400D02*
X17177920Y-14008924D01*
X17177920Y-14008924D02*
X17187444Y-14027972D01*
X17187444Y-14027972D02*
X17187444Y-14047019D01*
X17187444Y-14047019D02*
X17092206Y-14066067D01*
X17263634Y-14123210D02*
X17282682Y-14132734D01*
X17282682Y-14132734D02*
X17320777Y-14132734D01*
X17320777Y-14132734D02*
X17339825Y-14123210D01*
X17339825Y-14123210D02*
X17349349Y-14104162D01*
X17349349Y-14104162D02*
X17349349Y-14094638D01*
X17349349Y-14094638D02*
X17339825Y-14075591D01*
X17339825Y-14075591D02*
X17320777Y-14066067D01*
X17320777Y-14066067D02*
X17292206Y-14066067D01*
X17292206Y-14066067D02*
X17273158Y-14056543D01*
X17273158Y-14056543D02*
X17263634Y-14037496D01*
X17263634Y-14037496D02*
X17263634Y-14027972D01*
X17263634Y-14027972D02*
X17273158Y-14008924D01*
X17273158Y-14008924D02*
X17292206Y-13999400D01*
X17292206Y-13999400D02*
X17320777Y-13999400D01*
X17320777Y-13999400D02*
X17339825Y-14008924D01*
X17416015Y-14208924D02*
X17425539Y-14199400D01*
X17425539Y-14199400D02*
X17444587Y-14170829D01*
X17444587Y-14170829D02*
X17454111Y-14151781D01*
X17454111Y-14151781D02*
X17463634Y-14123210D01*
X17463634Y-14123210D02*
X17473158Y-14075591D01*
X17473158Y-14075591D02*
X17473158Y-14037496D01*
X17473158Y-14037496D02*
X17463634Y-13989877D01*
X17463634Y-13989877D02*
X17454111Y-13961305D01*
X17454111Y-13961305D02*
X17444587Y-13942258D01*
X17444587Y-13942258D02*
X17425539Y-13913686D01*
X17425539Y-13913686D02*
X17416015Y-13904162D01*
D13*
X12260000Y-14305250D02*
G75*
G03*
X12260000Y-14305250I-25000J0D01*
G01*
D11*
X12558872Y-14196734D02*
X12577920Y-14196734D01*
X12577920Y-14196734D02*
X12596967Y-14206258D01*
X12596967Y-14206258D02*
X12606491Y-14215781D01*
X12606491Y-14215781D02*
X12616015Y-14234829D01*
X12616015Y-14234829D02*
X12625539Y-14272924D01*
X12625539Y-14272924D02*
X12625539Y-14320543D01*
X12625539Y-14320543D02*
X12616015Y-14358638D01*
X12616015Y-14358638D02*
X12606491Y-14377686D01*
X12606491Y-14377686D02*
X12596967Y-14387210D01*
X12596967Y-14387210D02*
X12577920Y-14396734D01*
X12577920Y-14396734D02*
X12558872Y-14396734D01*
X12558872Y-14396734D02*
X12539824Y-14387210D01*
X12539824Y-14387210D02*
X12530301Y-14377686D01*
X12530301Y-14377686D02*
X12520777Y-14358638D01*
X12520777Y-14358638D02*
X12511253Y-14320543D01*
X12511253Y-14320543D02*
X12511253Y-14272924D01*
X12511253Y-14272924D02*
X12520777Y-14234829D01*
X12520777Y-14234829D02*
X12530301Y-14215781D01*
X12530301Y-14215781D02*
X12539824Y-14206258D01*
X12539824Y-14206258D02*
X12558872Y-14196734D01*
X12711253Y-14377686D02*
X12720777Y-14387210D01*
X12720777Y-14387210D02*
X12711253Y-14396734D01*
X12711253Y-14396734D02*
X12701729Y-14387210D01*
X12701729Y-14387210D02*
X12711253Y-14377686D01*
X12711253Y-14377686D02*
X12711253Y-14396734D01*
X12901729Y-14196734D02*
X12806491Y-14196734D01*
X12806491Y-14196734D02*
X12796967Y-14291972D01*
X12796967Y-14291972D02*
X12806491Y-14282448D01*
X12806491Y-14282448D02*
X12825539Y-14272924D01*
X12825539Y-14272924D02*
X12873158Y-14272924D01*
X12873158Y-14272924D02*
X12892205Y-14282448D01*
X12892205Y-14282448D02*
X12901729Y-14291972D01*
X12901729Y-14291972D02*
X12911253Y-14311019D01*
X12911253Y-14311019D02*
X12911253Y-14358638D01*
X12911253Y-14358638D02*
X12901729Y-14377686D01*
X12901729Y-14377686D02*
X12892205Y-14387210D01*
X12892205Y-14387210D02*
X12873158Y-14396734D01*
X12873158Y-14396734D02*
X12825539Y-14396734D01*
X12825539Y-14396734D02*
X12806491Y-14387210D01*
X12806491Y-14387210D02*
X12796967Y-14377686D01*
X13035062Y-14196734D02*
X13054110Y-14196734D01*
X13054110Y-14196734D02*
X13073158Y-14206258D01*
X13073158Y-14206258D02*
X13082682Y-14215781D01*
X13082682Y-14215781D02*
X13092205Y-14234829D01*
X13092205Y-14234829D02*
X13101729Y-14272924D01*
X13101729Y-14272924D02*
X13101729Y-14320543D01*
X13101729Y-14320543D02*
X13092205Y-14358638D01*
X13092205Y-14358638D02*
X13082682Y-14377686D01*
X13082682Y-14377686D02*
X13073158Y-14387210D01*
X13073158Y-14387210D02*
X13054110Y-14396734D01*
X13054110Y-14396734D02*
X13035062Y-14396734D01*
X13035062Y-14396734D02*
X13016015Y-14387210D01*
X13016015Y-14387210D02*
X13006491Y-14377686D01*
X13006491Y-14377686D02*
X12996967Y-14358638D01*
X12996967Y-14358638D02*
X12987443Y-14320543D01*
X12987443Y-14320543D02*
X12987443Y-14272924D01*
X12987443Y-14272924D02*
X12996967Y-14234829D01*
X12996967Y-14234829D02*
X13006491Y-14215781D01*
X13006491Y-14215781D02*
X13016015Y-14206258D01*
X13016015Y-14206258D02*
X13035062Y-14196734D01*
X13225539Y-14196734D02*
X13244586Y-14196734D01*
X13244586Y-14196734D02*
X13263634Y-14206258D01*
X13263634Y-14206258D02*
X13273158Y-14215781D01*
X13273158Y-14215781D02*
X13282682Y-14234829D01*
X13282682Y-14234829D02*
X13292205Y-14272924D01*
X13292205Y-14272924D02*
X13292205Y-14320543D01*
X13292205Y-14320543D02*
X13282682Y-14358638D01*
X13282682Y-14358638D02*
X13273158Y-14377686D01*
X13273158Y-14377686D02*
X13263634Y-14387210D01*
X13263634Y-14387210D02*
X13244586Y-14396734D01*
X13244586Y-14396734D02*
X13225539Y-14396734D01*
X13225539Y-14396734D02*
X13206491Y-14387210D01*
X13206491Y-14387210D02*
X13196967Y-14377686D01*
X13196967Y-14377686D02*
X13187443Y-14358638D01*
X13187443Y-14358638D02*
X13177920Y-14320543D01*
X13177920Y-14320543D02*
X13177920Y-14272924D01*
X13177920Y-14272924D02*
X13187443Y-14234829D01*
X13187443Y-14234829D02*
X13196967Y-14215781D01*
X13196967Y-14215781D02*
X13206491Y-14206258D01*
X13206491Y-14206258D02*
X13225539Y-14196734D01*
X13377920Y-14396734D02*
X13377920Y-14263400D01*
X13377920Y-14282448D02*
X13387443Y-14272924D01*
X13387443Y-14272924D02*
X13406491Y-14263400D01*
X13406491Y-14263400D02*
X13435063Y-14263400D01*
X13435063Y-14263400D02*
X13454110Y-14272924D01*
X13454110Y-14272924D02*
X13463634Y-14291972D01*
X13463634Y-14291972D02*
X13463634Y-14396734D01*
X13463634Y-14291972D02*
X13473158Y-14272924D01*
X13473158Y-14272924D02*
X13492205Y-14263400D01*
X13492205Y-14263400D02*
X13520777Y-14263400D01*
X13520777Y-14263400D02*
X13539824Y-14272924D01*
X13539824Y-14272924D02*
X13549348Y-14291972D01*
X13549348Y-14291972D02*
X13549348Y-14396734D01*
X13644586Y-14396734D02*
X13644586Y-14263400D01*
X13644586Y-14282448D02*
X13654110Y-14272924D01*
X13654110Y-14272924D02*
X13673158Y-14263400D01*
X13673158Y-14263400D02*
X13701729Y-14263400D01*
X13701729Y-14263400D02*
X13720777Y-14272924D01*
X13720777Y-14272924D02*
X13730301Y-14291972D01*
X13730301Y-14291972D02*
X13730301Y-14396734D01*
X13730301Y-14291972D02*
X13739824Y-14272924D01*
X13739824Y-14272924D02*
X13758872Y-14263400D01*
X13758872Y-14263400D02*
X13787443Y-14263400D01*
X13787443Y-14263400D02*
X13806491Y-14272924D01*
X13806491Y-14272924D02*
X13816015Y-14291972D01*
X13816015Y-14291972D02*
X13816015Y-14396734D01*
X14206491Y-14187210D02*
X14035063Y-14444353D01*
X14463634Y-14196734D02*
X14482682Y-14196734D01*
X14482682Y-14196734D02*
X14501729Y-14206258D01*
X14501729Y-14206258D02*
X14511253Y-14215781D01*
X14511253Y-14215781D02*
X14520777Y-14234829D01*
X14520777Y-14234829D02*
X14530301Y-14272924D01*
X14530301Y-14272924D02*
X14530301Y-14320543D01*
X14530301Y-14320543D02*
X14520777Y-14358638D01*
X14520777Y-14358638D02*
X14511253Y-14377686D01*
X14511253Y-14377686D02*
X14501729Y-14387210D01*
X14501729Y-14387210D02*
X14482682Y-14396734D01*
X14482682Y-14396734D02*
X14463634Y-14396734D01*
X14463634Y-14396734D02*
X14444586Y-14387210D01*
X14444586Y-14387210D02*
X14435063Y-14377686D01*
X14435063Y-14377686D02*
X14425539Y-14358638D01*
X14425539Y-14358638D02*
X14416015Y-14320543D01*
X14416015Y-14320543D02*
X14416015Y-14272924D01*
X14416015Y-14272924D02*
X14425539Y-14234829D01*
X14425539Y-14234829D02*
X14435063Y-14215781D01*
X14435063Y-14215781D02*
X14444586Y-14206258D01*
X14444586Y-14206258D02*
X14463634Y-14196734D01*
X14616015Y-14377686D02*
X14625539Y-14387210D01*
X14625539Y-14387210D02*
X14616015Y-14396734D01*
X14616015Y-14396734D02*
X14606491Y-14387210D01*
X14606491Y-14387210D02*
X14616015Y-14377686D01*
X14616015Y-14377686D02*
X14616015Y-14396734D01*
X14749348Y-14196734D02*
X14768396Y-14196734D01*
X14768396Y-14196734D02*
X14787444Y-14206258D01*
X14787444Y-14206258D02*
X14796967Y-14215781D01*
X14796967Y-14215781D02*
X14806491Y-14234829D01*
X14806491Y-14234829D02*
X14816015Y-14272924D01*
X14816015Y-14272924D02*
X14816015Y-14320543D01*
X14816015Y-14320543D02*
X14806491Y-14358638D01*
X14806491Y-14358638D02*
X14796967Y-14377686D01*
X14796967Y-14377686D02*
X14787444Y-14387210D01*
X14787444Y-14387210D02*
X14768396Y-14396734D01*
X14768396Y-14396734D02*
X14749348Y-14396734D01*
X14749348Y-14396734D02*
X14730301Y-14387210D01*
X14730301Y-14387210D02*
X14720777Y-14377686D01*
X14720777Y-14377686D02*
X14711253Y-14358638D01*
X14711253Y-14358638D02*
X14701729Y-14320543D01*
X14701729Y-14320543D02*
X14701729Y-14272924D01*
X14701729Y-14272924D02*
X14711253Y-14234829D01*
X14711253Y-14234829D02*
X14720777Y-14215781D01*
X14720777Y-14215781D02*
X14730301Y-14206258D01*
X14730301Y-14206258D02*
X14749348Y-14196734D01*
X15006491Y-14396734D02*
X14892206Y-14396734D01*
X14949348Y-14396734D02*
X14949348Y-14196734D01*
X14949348Y-14196734D02*
X14930301Y-14225305D01*
X14930301Y-14225305D02*
X14911253Y-14244353D01*
X14911253Y-14244353D02*
X14892206Y-14253877D01*
X15101729Y-14396734D02*
X15139825Y-14396734D01*
X15139825Y-14396734D02*
X15158872Y-14387210D01*
X15158872Y-14387210D02*
X15168396Y-14377686D01*
X15168396Y-14377686D02*
X15187444Y-14349115D01*
X15187444Y-14349115D02*
X15196967Y-14311019D01*
X15196967Y-14311019D02*
X15196967Y-14234829D01*
X15196967Y-14234829D02*
X15187444Y-14215781D01*
X15187444Y-14215781D02*
X15177920Y-14206258D01*
X15177920Y-14206258D02*
X15158872Y-14196734D01*
X15158872Y-14196734D02*
X15120777Y-14196734D01*
X15120777Y-14196734D02*
X15101729Y-14206258D01*
X15101729Y-14206258D02*
X15092206Y-14215781D01*
X15092206Y-14215781D02*
X15082682Y-14234829D01*
X15082682Y-14234829D02*
X15082682Y-14282448D01*
X15082682Y-14282448D02*
X15092206Y-14301496D01*
X15092206Y-14301496D02*
X15101729Y-14311019D01*
X15101729Y-14311019D02*
X15120777Y-14320543D01*
X15120777Y-14320543D02*
X15158872Y-14320543D01*
X15158872Y-14320543D02*
X15177920Y-14311019D01*
X15177920Y-14311019D02*
X15187444Y-14301496D01*
X15187444Y-14301496D02*
X15196967Y-14282448D01*
X15263634Y-14196734D02*
X15396967Y-14196734D01*
X15396967Y-14196734D02*
X15311253Y-14396734D01*
X15463634Y-14196734D02*
X15463634Y-14234829D01*
X15539825Y-14196734D02*
X15539825Y-14234829D01*
X15835063Y-14472924D02*
X15825539Y-14463400D01*
X15825539Y-14463400D02*
X15806491Y-14434829D01*
X15806491Y-14434829D02*
X15796968Y-14415781D01*
X15796968Y-14415781D02*
X15787444Y-14387210D01*
X15787444Y-14387210D02*
X15777920Y-14339591D01*
X15777920Y-14339591D02*
X15777920Y-14301496D01*
X15777920Y-14301496D02*
X15787444Y-14253877D01*
X15787444Y-14253877D02*
X15796968Y-14225305D01*
X15796968Y-14225305D02*
X15806491Y-14206258D01*
X15806491Y-14206258D02*
X15825539Y-14177686D01*
X15825539Y-14177686D02*
X15835063Y-14168162D01*
X15892206Y-14196734D02*
X16016015Y-14196734D01*
X16016015Y-14196734D02*
X15949348Y-14272924D01*
X15949348Y-14272924D02*
X15977920Y-14272924D01*
X15977920Y-14272924D02*
X15996968Y-14282448D01*
X15996968Y-14282448D02*
X16006491Y-14291972D01*
X16006491Y-14291972D02*
X16016015Y-14311019D01*
X16016015Y-14311019D02*
X16016015Y-14358638D01*
X16016015Y-14358638D02*
X16006491Y-14377686D01*
X16006491Y-14377686D02*
X15996968Y-14387210D01*
X15996968Y-14387210D02*
X15977920Y-14396734D01*
X15977920Y-14396734D02*
X15920777Y-14396734D01*
X15920777Y-14396734D02*
X15901729Y-14387210D01*
X15901729Y-14387210D02*
X15892206Y-14377686D01*
X16092206Y-14215781D02*
X16101729Y-14206258D01*
X16101729Y-14206258D02*
X16120777Y-14196734D01*
X16120777Y-14196734D02*
X16168396Y-14196734D01*
X16168396Y-14196734D02*
X16187444Y-14206258D01*
X16187444Y-14206258D02*
X16196968Y-14215781D01*
X16196968Y-14215781D02*
X16206491Y-14234829D01*
X16206491Y-14234829D02*
X16206491Y-14253877D01*
X16206491Y-14253877D02*
X16196968Y-14282448D01*
X16196968Y-14282448D02*
X16082682Y-14396734D01*
X16082682Y-14396734D02*
X16206491Y-14396734D01*
X16444587Y-14396734D02*
X16444587Y-14196734D01*
X16530301Y-14396734D02*
X16530301Y-14291972D01*
X16530301Y-14291972D02*
X16520777Y-14272924D01*
X16520777Y-14272924D02*
X16501730Y-14263400D01*
X16501730Y-14263400D02*
X16473158Y-14263400D01*
X16473158Y-14263400D02*
X16454110Y-14272924D01*
X16454110Y-14272924D02*
X16444587Y-14282448D01*
X16654110Y-14396734D02*
X16635063Y-14387210D01*
X16635063Y-14387210D02*
X16625539Y-14377686D01*
X16625539Y-14377686D02*
X16616015Y-14358638D01*
X16616015Y-14358638D02*
X16616015Y-14301496D01*
X16616015Y-14301496D02*
X16625539Y-14282448D01*
X16625539Y-14282448D02*
X16635063Y-14272924D01*
X16635063Y-14272924D02*
X16654110Y-14263400D01*
X16654110Y-14263400D02*
X16682682Y-14263400D01*
X16682682Y-14263400D02*
X16701730Y-14272924D01*
X16701730Y-14272924D02*
X16711253Y-14282448D01*
X16711253Y-14282448D02*
X16720777Y-14301496D01*
X16720777Y-14301496D02*
X16720777Y-14358638D01*
X16720777Y-14358638D02*
X16711253Y-14377686D01*
X16711253Y-14377686D02*
X16701730Y-14387210D01*
X16701730Y-14387210D02*
X16682682Y-14396734D01*
X16682682Y-14396734D02*
X16654110Y-14396734D01*
X16835063Y-14396734D02*
X16816015Y-14387210D01*
X16816015Y-14387210D02*
X16806492Y-14368162D01*
X16806492Y-14368162D02*
X16806492Y-14196734D01*
X16987444Y-14387210D02*
X16968396Y-14396734D01*
X16968396Y-14396734D02*
X16930301Y-14396734D01*
X16930301Y-14396734D02*
X16911253Y-14387210D01*
X16911253Y-14387210D02*
X16901730Y-14368162D01*
X16901730Y-14368162D02*
X16901730Y-14291972D01*
X16901730Y-14291972D02*
X16911253Y-14272924D01*
X16911253Y-14272924D02*
X16930301Y-14263400D01*
X16930301Y-14263400D02*
X16968396Y-14263400D01*
X16968396Y-14263400D02*
X16987444Y-14272924D01*
X16987444Y-14272924D02*
X16996968Y-14291972D01*
X16996968Y-14291972D02*
X16996968Y-14311019D01*
X16996968Y-14311019D02*
X16901730Y-14330067D01*
X17073158Y-14387210D02*
X17092206Y-14396734D01*
X17092206Y-14396734D02*
X17130301Y-14396734D01*
X17130301Y-14396734D02*
X17149349Y-14387210D01*
X17149349Y-14387210D02*
X17158873Y-14368162D01*
X17158873Y-14368162D02*
X17158873Y-14358638D01*
X17158873Y-14358638D02*
X17149349Y-14339591D01*
X17149349Y-14339591D02*
X17130301Y-14330067D01*
X17130301Y-14330067D02*
X17101730Y-14330067D01*
X17101730Y-14330067D02*
X17082682Y-14320543D01*
X17082682Y-14320543D02*
X17073158Y-14301496D01*
X17073158Y-14301496D02*
X17073158Y-14291972D01*
X17073158Y-14291972D02*
X17082682Y-14272924D01*
X17082682Y-14272924D02*
X17101730Y-14263400D01*
X17101730Y-14263400D02*
X17130301Y-14263400D01*
X17130301Y-14263400D02*
X17149349Y-14272924D01*
X17225539Y-14472924D02*
X17235063Y-14463400D01*
X17235063Y-14463400D02*
X17254111Y-14434829D01*
X17254111Y-14434829D02*
X17263634Y-14415781D01*
X17263634Y-14415781D02*
X17273158Y-14387210D01*
X17273158Y-14387210D02*
X17282682Y-14339591D01*
X17282682Y-14339591D02*
X17282682Y-14301496D01*
X17282682Y-14301496D02*
X17273158Y-14253877D01*
X17273158Y-14253877D02*
X17263634Y-14225305D01*
X17263634Y-14225305D02*
X17254111Y-14206258D01*
X17254111Y-14206258D02*
X17235063Y-14177686D01*
X17235063Y-14177686D02*
X17225539Y-14168162D01*
D14*
X12222500Y-14531750D02*
X12222500Y-14606750D01*
X12185000Y-14569250D02*
X12260000Y-14569250D01*
D11*
X12558872Y-14460734D02*
X12577920Y-14460734D01*
X12577920Y-14460734D02*
X12596967Y-14470258D01*
X12596967Y-14470258D02*
X12606491Y-14479781D01*
X12606491Y-14479781D02*
X12616015Y-14498829D01*
X12616015Y-14498829D02*
X12625539Y-14536924D01*
X12625539Y-14536924D02*
X12625539Y-14584543D01*
X12625539Y-14584543D02*
X12616015Y-14622638D01*
X12616015Y-14622638D02*
X12606491Y-14641686D01*
X12606491Y-14641686D02*
X12596967Y-14651210D01*
X12596967Y-14651210D02*
X12577920Y-14660734D01*
X12577920Y-14660734D02*
X12558872Y-14660734D01*
X12558872Y-14660734D02*
X12539824Y-14651210D01*
X12539824Y-14651210D02*
X12530301Y-14641686D01*
X12530301Y-14641686D02*
X12520777Y-14622638D01*
X12520777Y-14622638D02*
X12511253Y-14584543D01*
X12511253Y-14584543D02*
X12511253Y-14536924D01*
X12511253Y-14536924D02*
X12520777Y-14498829D01*
X12520777Y-14498829D02*
X12530301Y-14479781D01*
X12530301Y-14479781D02*
X12539824Y-14470258D01*
X12539824Y-14470258D02*
X12558872Y-14460734D01*
X12711253Y-14641686D02*
X12720777Y-14651210D01*
X12720777Y-14651210D02*
X12711253Y-14660734D01*
X12711253Y-14660734D02*
X12701729Y-14651210D01*
X12701729Y-14651210D02*
X12711253Y-14641686D01*
X12711253Y-14641686D02*
X12711253Y-14660734D01*
X12787443Y-14460734D02*
X12920777Y-14460734D01*
X12920777Y-14460734D02*
X12835062Y-14660734D01*
X13092205Y-14460734D02*
X12996967Y-14460734D01*
X12996967Y-14460734D02*
X12987443Y-14555972D01*
X12987443Y-14555972D02*
X12996967Y-14546448D01*
X12996967Y-14546448D02*
X13016015Y-14536924D01*
X13016015Y-14536924D02*
X13063634Y-14536924D01*
X13063634Y-14536924D02*
X13082682Y-14546448D01*
X13082682Y-14546448D02*
X13092205Y-14555972D01*
X13092205Y-14555972D02*
X13101729Y-14575019D01*
X13101729Y-14575019D02*
X13101729Y-14622638D01*
X13101729Y-14622638D02*
X13092205Y-14641686D01*
X13092205Y-14641686D02*
X13082682Y-14651210D01*
X13082682Y-14651210D02*
X13063634Y-14660734D01*
X13063634Y-14660734D02*
X13016015Y-14660734D01*
X13016015Y-14660734D02*
X12996967Y-14651210D01*
X12996967Y-14651210D02*
X12987443Y-14641686D01*
X13225539Y-14460734D02*
X13244586Y-14460734D01*
X13244586Y-14460734D02*
X13263634Y-14470258D01*
X13263634Y-14470258D02*
X13273158Y-14479781D01*
X13273158Y-14479781D02*
X13282682Y-14498829D01*
X13282682Y-14498829D02*
X13292205Y-14536924D01*
X13292205Y-14536924D02*
X13292205Y-14584543D01*
X13292205Y-14584543D02*
X13282682Y-14622638D01*
X13282682Y-14622638D02*
X13273158Y-14641686D01*
X13273158Y-14641686D02*
X13263634Y-14651210D01*
X13263634Y-14651210D02*
X13244586Y-14660734D01*
X13244586Y-14660734D02*
X13225539Y-14660734D01*
X13225539Y-14660734D02*
X13206491Y-14651210D01*
X13206491Y-14651210D02*
X13196967Y-14641686D01*
X13196967Y-14641686D02*
X13187443Y-14622638D01*
X13187443Y-14622638D02*
X13177920Y-14584543D01*
X13177920Y-14584543D02*
X13177920Y-14536924D01*
X13177920Y-14536924D02*
X13187443Y-14498829D01*
X13187443Y-14498829D02*
X13196967Y-14479781D01*
X13196967Y-14479781D02*
X13206491Y-14470258D01*
X13206491Y-14470258D02*
X13225539Y-14460734D01*
X13377920Y-14660734D02*
X13377920Y-14527400D01*
X13377920Y-14546448D02*
X13387443Y-14536924D01*
X13387443Y-14536924D02*
X13406491Y-14527400D01*
X13406491Y-14527400D02*
X13435063Y-14527400D01*
X13435063Y-14527400D02*
X13454110Y-14536924D01*
X13454110Y-14536924D02*
X13463634Y-14555972D01*
X13463634Y-14555972D02*
X13463634Y-14660734D01*
X13463634Y-14555972D02*
X13473158Y-14536924D01*
X13473158Y-14536924D02*
X13492205Y-14527400D01*
X13492205Y-14527400D02*
X13520777Y-14527400D01*
X13520777Y-14527400D02*
X13539824Y-14536924D01*
X13539824Y-14536924D02*
X13549348Y-14555972D01*
X13549348Y-14555972D02*
X13549348Y-14660734D01*
X13644586Y-14660734D02*
X13644586Y-14527400D01*
X13644586Y-14546448D02*
X13654110Y-14536924D01*
X13654110Y-14536924D02*
X13673158Y-14527400D01*
X13673158Y-14527400D02*
X13701729Y-14527400D01*
X13701729Y-14527400D02*
X13720777Y-14536924D01*
X13720777Y-14536924D02*
X13730301Y-14555972D01*
X13730301Y-14555972D02*
X13730301Y-14660734D01*
X13730301Y-14555972D02*
X13739824Y-14536924D01*
X13739824Y-14536924D02*
X13758872Y-14527400D01*
X13758872Y-14527400D02*
X13787443Y-14527400D01*
X13787443Y-14527400D02*
X13806491Y-14536924D01*
X13806491Y-14536924D02*
X13816015Y-14555972D01*
X13816015Y-14555972D02*
X13816015Y-14660734D01*
X14206491Y-14451210D02*
X14035063Y-14708353D01*
X14463634Y-14460734D02*
X14482682Y-14460734D01*
X14482682Y-14460734D02*
X14501729Y-14470258D01*
X14501729Y-14470258D02*
X14511253Y-14479781D01*
X14511253Y-14479781D02*
X14520777Y-14498829D01*
X14520777Y-14498829D02*
X14530301Y-14536924D01*
X14530301Y-14536924D02*
X14530301Y-14584543D01*
X14530301Y-14584543D02*
X14520777Y-14622638D01*
X14520777Y-14622638D02*
X14511253Y-14641686D01*
X14511253Y-14641686D02*
X14501729Y-14651210D01*
X14501729Y-14651210D02*
X14482682Y-14660734D01*
X14482682Y-14660734D02*
X14463634Y-14660734D01*
X14463634Y-14660734D02*
X14444586Y-14651210D01*
X14444586Y-14651210D02*
X14435063Y-14641686D01*
X14435063Y-14641686D02*
X14425539Y-14622638D01*
X14425539Y-14622638D02*
X14416015Y-14584543D01*
X14416015Y-14584543D02*
X14416015Y-14536924D01*
X14416015Y-14536924D02*
X14425539Y-14498829D01*
X14425539Y-14498829D02*
X14435063Y-14479781D01*
X14435063Y-14479781D02*
X14444586Y-14470258D01*
X14444586Y-14470258D02*
X14463634Y-14460734D01*
X14616015Y-14641686D02*
X14625539Y-14651210D01*
X14625539Y-14651210D02*
X14616015Y-14660734D01*
X14616015Y-14660734D02*
X14606491Y-14651210D01*
X14606491Y-14651210D02*
X14616015Y-14641686D01*
X14616015Y-14641686D02*
X14616015Y-14660734D01*
X14749348Y-14460734D02*
X14768396Y-14460734D01*
X14768396Y-14460734D02*
X14787444Y-14470258D01*
X14787444Y-14470258D02*
X14796967Y-14479781D01*
X14796967Y-14479781D02*
X14806491Y-14498829D01*
X14806491Y-14498829D02*
X14816015Y-14536924D01*
X14816015Y-14536924D02*
X14816015Y-14584543D01*
X14816015Y-14584543D02*
X14806491Y-14622638D01*
X14806491Y-14622638D02*
X14796967Y-14641686D01*
X14796967Y-14641686D02*
X14787444Y-14651210D01*
X14787444Y-14651210D02*
X14768396Y-14660734D01*
X14768396Y-14660734D02*
X14749348Y-14660734D01*
X14749348Y-14660734D02*
X14730301Y-14651210D01*
X14730301Y-14651210D02*
X14720777Y-14641686D01*
X14720777Y-14641686D02*
X14711253Y-14622638D01*
X14711253Y-14622638D02*
X14701729Y-14584543D01*
X14701729Y-14584543D02*
X14701729Y-14536924D01*
X14701729Y-14536924D02*
X14711253Y-14498829D01*
X14711253Y-14498829D02*
X14720777Y-14479781D01*
X14720777Y-14479781D02*
X14730301Y-14470258D01*
X14730301Y-14470258D02*
X14749348Y-14460734D01*
X14892206Y-14479781D02*
X14901729Y-14470258D01*
X14901729Y-14470258D02*
X14920777Y-14460734D01*
X14920777Y-14460734D02*
X14968396Y-14460734D01*
X14968396Y-14460734D02*
X14987444Y-14470258D01*
X14987444Y-14470258D02*
X14996967Y-14479781D01*
X14996967Y-14479781D02*
X15006491Y-14498829D01*
X15006491Y-14498829D02*
X15006491Y-14517877D01*
X15006491Y-14517877D02*
X14996967Y-14546448D01*
X14996967Y-14546448D02*
X14882682Y-14660734D01*
X14882682Y-14660734D02*
X15006491Y-14660734D01*
X15101729Y-14660734D02*
X15139825Y-14660734D01*
X15139825Y-14660734D02*
X15158872Y-14651210D01*
X15158872Y-14651210D02*
X15168396Y-14641686D01*
X15168396Y-14641686D02*
X15187444Y-14613115D01*
X15187444Y-14613115D02*
X15196967Y-14575019D01*
X15196967Y-14575019D02*
X15196967Y-14498829D01*
X15196967Y-14498829D02*
X15187444Y-14479781D01*
X15187444Y-14479781D02*
X15177920Y-14470258D01*
X15177920Y-14470258D02*
X15158872Y-14460734D01*
X15158872Y-14460734D02*
X15120777Y-14460734D01*
X15120777Y-14460734D02*
X15101729Y-14470258D01*
X15101729Y-14470258D02*
X15092206Y-14479781D01*
X15092206Y-14479781D02*
X15082682Y-14498829D01*
X15082682Y-14498829D02*
X15082682Y-14546448D01*
X15082682Y-14546448D02*
X15092206Y-14565496D01*
X15092206Y-14565496D02*
X15101729Y-14575019D01*
X15101729Y-14575019D02*
X15120777Y-14584543D01*
X15120777Y-14584543D02*
X15158872Y-14584543D01*
X15158872Y-14584543D02*
X15177920Y-14575019D01*
X15177920Y-14575019D02*
X15187444Y-14565496D01*
X15187444Y-14565496D02*
X15196967Y-14546448D01*
X15377920Y-14460734D02*
X15282682Y-14460734D01*
X15282682Y-14460734D02*
X15273158Y-14555972D01*
X15273158Y-14555972D02*
X15282682Y-14546448D01*
X15282682Y-14546448D02*
X15301729Y-14536924D01*
X15301729Y-14536924D02*
X15349348Y-14536924D01*
X15349348Y-14536924D02*
X15368396Y-14546448D01*
X15368396Y-14546448D02*
X15377920Y-14555972D01*
X15377920Y-14555972D02*
X15387444Y-14575019D01*
X15387444Y-14575019D02*
X15387444Y-14622638D01*
X15387444Y-14622638D02*
X15377920Y-14641686D01*
X15377920Y-14641686D02*
X15368396Y-14651210D01*
X15368396Y-14651210D02*
X15349348Y-14660734D01*
X15349348Y-14660734D02*
X15301729Y-14660734D01*
X15301729Y-14660734D02*
X15282682Y-14651210D01*
X15282682Y-14651210D02*
X15273158Y-14641686D01*
X15463634Y-14460734D02*
X15463634Y-14498829D01*
X15539825Y-14460734D02*
X15539825Y-14498829D01*
X15835063Y-14736924D02*
X15825539Y-14727400D01*
X15825539Y-14727400D02*
X15806491Y-14698829D01*
X15806491Y-14698829D02*
X15796968Y-14679781D01*
X15796968Y-14679781D02*
X15787444Y-14651210D01*
X15787444Y-14651210D02*
X15777920Y-14603591D01*
X15777920Y-14603591D02*
X15777920Y-14565496D01*
X15777920Y-14565496D02*
X15787444Y-14517877D01*
X15787444Y-14517877D02*
X15796968Y-14489305D01*
X15796968Y-14489305D02*
X15806491Y-14470258D01*
X15806491Y-14470258D02*
X15825539Y-14441686D01*
X15825539Y-14441686D02*
X15835063Y-14432162D01*
X15901729Y-14479781D02*
X15911253Y-14470258D01*
X15911253Y-14470258D02*
X15930301Y-14460734D01*
X15930301Y-14460734D02*
X15977920Y-14460734D01*
X15977920Y-14460734D02*
X15996968Y-14470258D01*
X15996968Y-14470258D02*
X16006491Y-14479781D01*
X16006491Y-14479781D02*
X16016015Y-14498829D01*
X16016015Y-14498829D02*
X16016015Y-14517877D01*
X16016015Y-14517877D02*
X16006491Y-14546448D01*
X16006491Y-14546448D02*
X15892206Y-14660734D01*
X15892206Y-14660734D02*
X16016015Y-14660734D01*
X16254110Y-14660734D02*
X16254110Y-14460734D01*
X16339825Y-14660734D02*
X16339825Y-14555972D01*
X16339825Y-14555972D02*
X16330301Y-14536924D01*
X16330301Y-14536924D02*
X16311253Y-14527400D01*
X16311253Y-14527400D02*
X16282682Y-14527400D01*
X16282682Y-14527400D02*
X16263634Y-14536924D01*
X16263634Y-14536924D02*
X16254110Y-14546448D01*
X16463634Y-14660734D02*
X16444587Y-14651210D01*
X16444587Y-14651210D02*
X16435063Y-14641686D01*
X16435063Y-14641686D02*
X16425539Y-14622638D01*
X16425539Y-14622638D02*
X16425539Y-14565496D01*
X16425539Y-14565496D02*
X16435063Y-14546448D01*
X16435063Y-14546448D02*
X16444587Y-14536924D01*
X16444587Y-14536924D02*
X16463634Y-14527400D01*
X16463634Y-14527400D02*
X16492206Y-14527400D01*
X16492206Y-14527400D02*
X16511253Y-14536924D01*
X16511253Y-14536924D02*
X16520777Y-14546448D01*
X16520777Y-14546448D02*
X16530301Y-14565496D01*
X16530301Y-14565496D02*
X16530301Y-14622638D01*
X16530301Y-14622638D02*
X16520777Y-14641686D01*
X16520777Y-14641686D02*
X16511253Y-14651210D01*
X16511253Y-14651210D02*
X16492206Y-14660734D01*
X16492206Y-14660734D02*
X16463634Y-14660734D01*
X16644587Y-14660734D02*
X16625539Y-14651210D01*
X16625539Y-14651210D02*
X16616015Y-14632162D01*
X16616015Y-14632162D02*
X16616015Y-14460734D01*
X16796968Y-14651210D02*
X16777920Y-14660734D01*
X16777920Y-14660734D02*
X16739825Y-14660734D01*
X16739825Y-14660734D02*
X16720777Y-14651210D01*
X16720777Y-14651210D02*
X16711253Y-14632162D01*
X16711253Y-14632162D02*
X16711253Y-14555972D01*
X16711253Y-14555972D02*
X16720777Y-14536924D01*
X16720777Y-14536924D02*
X16739825Y-14527400D01*
X16739825Y-14527400D02*
X16777920Y-14527400D01*
X16777920Y-14527400D02*
X16796968Y-14536924D01*
X16796968Y-14536924D02*
X16806492Y-14555972D01*
X16806492Y-14555972D02*
X16806492Y-14575019D01*
X16806492Y-14575019D02*
X16711253Y-14594067D01*
X16882682Y-14651210D02*
X16901730Y-14660734D01*
X16901730Y-14660734D02*
X16939825Y-14660734D01*
X16939825Y-14660734D02*
X16958873Y-14651210D01*
X16958873Y-14651210D02*
X16968396Y-14632162D01*
X16968396Y-14632162D02*
X16968396Y-14622638D01*
X16968396Y-14622638D02*
X16958873Y-14603591D01*
X16958873Y-14603591D02*
X16939825Y-14594067D01*
X16939825Y-14594067D02*
X16911253Y-14594067D01*
X16911253Y-14594067D02*
X16892206Y-14584543D01*
X16892206Y-14584543D02*
X16882682Y-14565496D01*
X16882682Y-14565496D02*
X16882682Y-14555972D01*
X16882682Y-14555972D02*
X16892206Y-14536924D01*
X16892206Y-14536924D02*
X16911253Y-14527400D01*
X16911253Y-14527400D02*
X16939825Y-14527400D01*
X16939825Y-14527400D02*
X16958873Y-14536924D01*
X17035063Y-14736924D02*
X17044587Y-14727400D01*
X17044587Y-14727400D02*
X17063634Y-14698829D01*
X17063634Y-14698829D02*
X17073158Y-14679781D01*
X17073158Y-14679781D02*
X17082682Y-14651210D01*
X17082682Y-14651210D02*
X17092206Y-14603591D01*
X17092206Y-14603591D02*
X17092206Y-14565496D01*
X17092206Y-14565496D02*
X17082682Y-14517877D01*
X17082682Y-14517877D02*
X17073158Y-14489305D01*
X17073158Y-14489305D02*
X17063634Y-14470258D01*
X17063634Y-14470258D02*
X17044587Y-14441686D01*
X17044587Y-14441686D02*
X17035063Y-14432162D01*
D15*
X12248841Y-14860191D02*
X12248841Y-14806309D01*
X12194959Y-14806309D01*
X12194959Y-14860191D01*
X12248841Y-14860191D01*
D11*
X12558872Y-14724734D02*
X12577920Y-14724734D01*
X12577920Y-14724734D02*
X12596967Y-14734258D01*
X12596967Y-14734258D02*
X12606491Y-14743781D01*
X12606491Y-14743781D02*
X12616015Y-14762829D01*
X12616015Y-14762829D02*
X12625539Y-14800924D01*
X12625539Y-14800924D02*
X12625539Y-14848543D01*
X12625539Y-14848543D02*
X12616015Y-14886638D01*
X12616015Y-14886638D02*
X12606491Y-14905686D01*
X12606491Y-14905686D02*
X12596967Y-14915210D01*
X12596967Y-14915210D02*
X12577920Y-14924734D01*
X12577920Y-14924734D02*
X12558872Y-14924734D01*
X12558872Y-14924734D02*
X12539824Y-14915210D01*
X12539824Y-14915210D02*
X12530301Y-14905686D01*
X12530301Y-14905686D02*
X12520777Y-14886638D01*
X12520777Y-14886638D02*
X12511253Y-14848543D01*
X12511253Y-14848543D02*
X12511253Y-14800924D01*
X12511253Y-14800924D02*
X12520777Y-14762829D01*
X12520777Y-14762829D02*
X12530301Y-14743781D01*
X12530301Y-14743781D02*
X12539824Y-14734258D01*
X12539824Y-14734258D02*
X12558872Y-14724734D01*
X12711253Y-14905686D02*
X12720777Y-14915210D01*
X12720777Y-14915210D02*
X12711253Y-14924734D01*
X12711253Y-14924734D02*
X12701729Y-14915210D01*
X12701729Y-14915210D02*
X12711253Y-14905686D01*
X12711253Y-14905686D02*
X12711253Y-14924734D01*
X12787443Y-14724734D02*
X12920777Y-14724734D01*
X12920777Y-14724734D02*
X12835062Y-14924734D01*
X13082682Y-14724734D02*
X13044586Y-14724734D01*
X13044586Y-14724734D02*
X13025539Y-14734258D01*
X13025539Y-14734258D02*
X13016015Y-14743781D01*
X13016015Y-14743781D02*
X12996967Y-14772353D01*
X12996967Y-14772353D02*
X12987443Y-14810448D01*
X12987443Y-14810448D02*
X12987443Y-14886638D01*
X12987443Y-14886638D02*
X12996967Y-14905686D01*
X12996967Y-14905686D02*
X13006491Y-14915210D01*
X13006491Y-14915210D02*
X13025539Y-14924734D01*
X13025539Y-14924734D02*
X13063634Y-14924734D01*
X13063634Y-14924734D02*
X13082682Y-14915210D01*
X13082682Y-14915210D02*
X13092205Y-14905686D01*
X13092205Y-14905686D02*
X13101729Y-14886638D01*
X13101729Y-14886638D02*
X13101729Y-14839019D01*
X13101729Y-14839019D02*
X13092205Y-14819972D01*
X13092205Y-14819972D02*
X13082682Y-14810448D01*
X13082682Y-14810448D02*
X13063634Y-14800924D01*
X13063634Y-14800924D02*
X13025539Y-14800924D01*
X13025539Y-14800924D02*
X13006491Y-14810448D01*
X13006491Y-14810448D02*
X12996967Y-14819972D01*
X12996967Y-14819972D02*
X12987443Y-14839019D01*
X13177920Y-14743781D02*
X13187443Y-14734258D01*
X13187443Y-14734258D02*
X13206491Y-14724734D01*
X13206491Y-14724734D02*
X13254110Y-14724734D01*
X13254110Y-14724734D02*
X13273158Y-14734258D01*
X13273158Y-14734258D02*
X13282682Y-14743781D01*
X13282682Y-14743781D02*
X13292205Y-14762829D01*
X13292205Y-14762829D02*
X13292205Y-14781877D01*
X13292205Y-14781877D02*
X13282682Y-14810448D01*
X13282682Y-14810448D02*
X13168396Y-14924734D01*
X13168396Y-14924734D02*
X13292205Y-14924734D01*
X13377920Y-14924734D02*
X13377920Y-14791400D01*
X13377920Y-14810448D02*
X13387443Y-14800924D01*
X13387443Y-14800924D02*
X13406491Y-14791400D01*
X13406491Y-14791400D02*
X13435063Y-14791400D01*
X13435063Y-14791400D02*
X13454110Y-14800924D01*
X13454110Y-14800924D02*
X13463634Y-14819972D01*
X13463634Y-14819972D02*
X13463634Y-14924734D01*
X13463634Y-14819972D02*
X13473158Y-14800924D01*
X13473158Y-14800924D02*
X13492205Y-14791400D01*
X13492205Y-14791400D02*
X13520777Y-14791400D01*
X13520777Y-14791400D02*
X13539824Y-14800924D01*
X13539824Y-14800924D02*
X13549348Y-14819972D01*
X13549348Y-14819972D02*
X13549348Y-14924734D01*
X13644586Y-14924734D02*
X13644586Y-14791400D01*
X13644586Y-14810448D02*
X13654110Y-14800924D01*
X13654110Y-14800924D02*
X13673158Y-14791400D01*
X13673158Y-14791400D02*
X13701729Y-14791400D01*
X13701729Y-14791400D02*
X13720777Y-14800924D01*
X13720777Y-14800924D02*
X13730301Y-14819972D01*
X13730301Y-14819972D02*
X13730301Y-14924734D01*
X13730301Y-14819972D02*
X13739824Y-14800924D01*
X13739824Y-14800924D02*
X13758872Y-14791400D01*
X13758872Y-14791400D02*
X13787443Y-14791400D01*
X13787443Y-14791400D02*
X13806491Y-14800924D01*
X13806491Y-14800924D02*
X13816015Y-14819972D01*
X13816015Y-14819972D02*
X13816015Y-14924734D01*
X14206491Y-14715210D02*
X14035063Y-14972353D01*
X14463634Y-14724734D02*
X14482682Y-14724734D01*
X14482682Y-14724734D02*
X14501729Y-14734258D01*
X14501729Y-14734258D02*
X14511253Y-14743781D01*
X14511253Y-14743781D02*
X14520777Y-14762829D01*
X14520777Y-14762829D02*
X14530301Y-14800924D01*
X14530301Y-14800924D02*
X14530301Y-14848543D01*
X14530301Y-14848543D02*
X14520777Y-14886638D01*
X14520777Y-14886638D02*
X14511253Y-14905686D01*
X14511253Y-14905686D02*
X14501729Y-14915210D01*
X14501729Y-14915210D02*
X14482682Y-14924734D01*
X14482682Y-14924734D02*
X14463634Y-14924734D01*
X14463634Y-14924734D02*
X14444586Y-14915210D01*
X14444586Y-14915210D02*
X14435063Y-14905686D01*
X14435063Y-14905686D02*
X14425539Y-14886638D01*
X14425539Y-14886638D02*
X14416015Y-14848543D01*
X14416015Y-14848543D02*
X14416015Y-14800924D01*
X14416015Y-14800924D02*
X14425539Y-14762829D01*
X14425539Y-14762829D02*
X14435063Y-14743781D01*
X14435063Y-14743781D02*
X14444586Y-14734258D01*
X14444586Y-14734258D02*
X14463634Y-14724734D01*
X14616015Y-14905686D02*
X14625539Y-14915210D01*
X14625539Y-14915210D02*
X14616015Y-14924734D01*
X14616015Y-14924734D02*
X14606491Y-14915210D01*
X14606491Y-14915210D02*
X14616015Y-14905686D01*
X14616015Y-14905686D02*
X14616015Y-14924734D01*
X14749348Y-14724734D02*
X14768396Y-14724734D01*
X14768396Y-14724734D02*
X14787444Y-14734258D01*
X14787444Y-14734258D02*
X14796967Y-14743781D01*
X14796967Y-14743781D02*
X14806491Y-14762829D01*
X14806491Y-14762829D02*
X14816015Y-14800924D01*
X14816015Y-14800924D02*
X14816015Y-14848543D01*
X14816015Y-14848543D02*
X14806491Y-14886638D01*
X14806491Y-14886638D02*
X14796967Y-14905686D01*
X14796967Y-14905686D02*
X14787444Y-14915210D01*
X14787444Y-14915210D02*
X14768396Y-14924734D01*
X14768396Y-14924734D02*
X14749348Y-14924734D01*
X14749348Y-14924734D02*
X14730301Y-14915210D01*
X14730301Y-14915210D02*
X14720777Y-14905686D01*
X14720777Y-14905686D02*
X14711253Y-14886638D01*
X14711253Y-14886638D02*
X14701729Y-14848543D01*
X14701729Y-14848543D02*
X14701729Y-14800924D01*
X14701729Y-14800924D02*
X14711253Y-14762829D01*
X14711253Y-14762829D02*
X14720777Y-14743781D01*
X14720777Y-14743781D02*
X14730301Y-14734258D01*
X14730301Y-14734258D02*
X14749348Y-14724734D01*
X14882682Y-14724734D02*
X15006491Y-14724734D01*
X15006491Y-14724734D02*
X14939825Y-14800924D01*
X14939825Y-14800924D02*
X14968396Y-14800924D01*
X14968396Y-14800924D02*
X14987444Y-14810448D01*
X14987444Y-14810448D02*
X14996967Y-14819972D01*
X14996967Y-14819972D02*
X15006491Y-14839019D01*
X15006491Y-14839019D02*
X15006491Y-14886638D01*
X15006491Y-14886638D02*
X14996967Y-14905686D01*
X14996967Y-14905686D02*
X14987444Y-14915210D01*
X14987444Y-14915210D02*
X14968396Y-14924734D01*
X14968396Y-14924734D02*
X14911253Y-14924734D01*
X14911253Y-14924734D02*
X14892206Y-14915210D01*
X14892206Y-14915210D02*
X14882682Y-14905686D01*
X15130301Y-14724734D02*
X15149348Y-14724734D01*
X15149348Y-14724734D02*
X15168396Y-14734258D01*
X15168396Y-14734258D02*
X15177920Y-14743781D01*
X15177920Y-14743781D02*
X15187444Y-14762829D01*
X15187444Y-14762829D02*
X15196967Y-14800924D01*
X15196967Y-14800924D02*
X15196967Y-14848543D01*
X15196967Y-14848543D02*
X15187444Y-14886638D01*
X15187444Y-14886638D02*
X15177920Y-14905686D01*
X15177920Y-14905686D02*
X15168396Y-14915210D01*
X15168396Y-14915210D02*
X15149348Y-14924734D01*
X15149348Y-14924734D02*
X15130301Y-14924734D01*
X15130301Y-14924734D02*
X15111253Y-14915210D01*
X15111253Y-14915210D02*
X15101729Y-14905686D01*
X15101729Y-14905686D02*
X15092206Y-14886638D01*
X15092206Y-14886638D02*
X15082682Y-14848543D01*
X15082682Y-14848543D02*
X15082682Y-14800924D01*
X15082682Y-14800924D02*
X15092206Y-14762829D01*
X15092206Y-14762829D02*
X15101729Y-14743781D01*
X15101729Y-14743781D02*
X15111253Y-14734258D01*
X15111253Y-14734258D02*
X15130301Y-14724734D01*
X15320777Y-14724734D02*
X15339825Y-14724734D01*
X15339825Y-14724734D02*
X15358872Y-14734258D01*
X15358872Y-14734258D02*
X15368396Y-14743781D01*
X15368396Y-14743781D02*
X15377920Y-14762829D01*
X15377920Y-14762829D02*
X15387444Y-14800924D01*
X15387444Y-14800924D02*
X15387444Y-14848543D01*
X15387444Y-14848543D02*
X15377920Y-14886638D01*
X15377920Y-14886638D02*
X15368396Y-14905686D01*
X15368396Y-14905686D02*
X15358872Y-14915210D01*
X15358872Y-14915210D02*
X15339825Y-14924734D01*
X15339825Y-14924734D02*
X15320777Y-14924734D01*
X15320777Y-14924734D02*
X15301729Y-14915210D01*
X15301729Y-14915210D02*
X15292206Y-14905686D01*
X15292206Y-14905686D02*
X15282682Y-14886638D01*
X15282682Y-14886638D02*
X15273158Y-14848543D01*
X15273158Y-14848543D02*
X15273158Y-14800924D01*
X15273158Y-14800924D02*
X15282682Y-14762829D01*
X15282682Y-14762829D02*
X15292206Y-14743781D01*
X15292206Y-14743781D02*
X15301729Y-14734258D01*
X15301729Y-14734258D02*
X15320777Y-14724734D01*
X15463634Y-14724734D02*
X15463634Y-14762829D01*
X15539825Y-14724734D02*
X15539825Y-14762829D01*
X15835063Y-15000924D02*
X15825539Y-14991400D01*
X15825539Y-14991400D02*
X15806491Y-14962829D01*
X15806491Y-14962829D02*
X15796968Y-14943781D01*
X15796968Y-14943781D02*
X15787444Y-14915210D01*
X15787444Y-14915210D02*
X15777920Y-14867591D01*
X15777920Y-14867591D02*
X15777920Y-14829496D01*
X15777920Y-14829496D02*
X15787444Y-14781877D01*
X15787444Y-14781877D02*
X15796968Y-14753305D01*
X15796968Y-14753305D02*
X15806491Y-14734258D01*
X15806491Y-14734258D02*
X15825539Y-14705686D01*
X15825539Y-14705686D02*
X15835063Y-14696162D01*
X15901729Y-14743781D02*
X15911253Y-14734258D01*
X15911253Y-14734258D02*
X15930301Y-14724734D01*
X15930301Y-14724734D02*
X15977920Y-14724734D01*
X15977920Y-14724734D02*
X15996968Y-14734258D01*
X15996968Y-14734258D02*
X16006491Y-14743781D01*
X16006491Y-14743781D02*
X16016015Y-14762829D01*
X16016015Y-14762829D02*
X16016015Y-14781877D01*
X16016015Y-14781877D02*
X16006491Y-14810448D01*
X16006491Y-14810448D02*
X15892206Y-14924734D01*
X15892206Y-14924734D02*
X16016015Y-14924734D01*
X16254110Y-14924734D02*
X16254110Y-14724734D01*
X16339825Y-14924734D02*
X16339825Y-14819972D01*
X16339825Y-14819972D02*
X16330301Y-14800924D01*
X16330301Y-14800924D02*
X16311253Y-14791400D01*
X16311253Y-14791400D02*
X16282682Y-14791400D01*
X16282682Y-14791400D02*
X16263634Y-14800924D01*
X16263634Y-14800924D02*
X16254110Y-14810448D01*
X16463634Y-14924734D02*
X16444587Y-14915210D01*
X16444587Y-14915210D02*
X16435063Y-14905686D01*
X16435063Y-14905686D02*
X16425539Y-14886638D01*
X16425539Y-14886638D02*
X16425539Y-14829496D01*
X16425539Y-14829496D02*
X16435063Y-14810448D01*
X16435063Y-14810448D02*
X16444587Y-14800924D01*
X16444587Y-14800924D02*
X16463634Y-14791400D01*
X16463634Y-14791400D02*
X16492206Y-14791400D01*
X16492206Y-14791400D02*
X16511253Y-14800924D01*
X16511253Y-14800924D02*
X16520777Y-14810448D01*
X16520777Y-14810448D02*
X16530301Y-14829496D01*
X16530301Y-14829496D02*
X16530301Y-14886638D01*
X16530301Y-14886638D02*
X16520777Y-14905686D01*
X16520777Y-14905686D02*
X16511253Y-14915210D01*
X16511253Y-14915210D02*
X16492206Y-14924734D01*
X16492206Y-14924734D02*
X16463634Y-14924734D01*
X16644587Y-14924734D02*
X16625539Y-14915210D01*
X16625539Y-14915210D02*
X16616015Y-14896162D01*
X16616015Y-14896162D02*
X16616015Y-14724734D01*
X16796968Y-14915210D02*
X16777920Y-14924734D01*
X16777920Y-14924734D02*
X16739825Y-14924734D01*
X16739825Y-14924734D02*
X16720777Y-14915210D01*
X16720777Y-14915210D02*
X16711253Y-14896162D01*
X16711253Y-14896162D02*
X16711253Y-14819972D01*
X16711253Y-14819972D02*
X16720777Y-14800924D01*
X16720777Y-14800924D02*
X16739825Y-14791400D01*
X16739825Y-14791400D02*
X16777920Y-14791400D01*
X16777920Y-14791400D02*
X16796968Y-14800924D01*
X16796968Y-14800924D02*
X16806492Y-14819972D01*
X16806492Y-14819972D02*
X16806492Y-14839019D01*
X16806492Y-14839019D02*
X16711253Y-14858067D01*
X16882682Y-14915210D02*
X16901730Y-14924734D01*
X16901730Y-14924734D02*
X16939825Y-14924734D01*
X16939825Y-14924734D02*
X16958873Y-14915210D01*
X16958873Y-14915210D02*
X16968396Y-14896162D01*
X16968396Y-14896162D02*
X16968396Y-14886638D01*
X16968396Y-14886638D02*
X16958873Y-14867591D01*
X16958873Y-14867591D02*
X16939825Y-14858067D01*
X16939825Y-14858067D02*
X16911253Y-14858067D01*
X16911253Y-14858067D02*
X16892206Y-14848543D01*
X16892206Y-14848543D02*
X16882682Y-14829496D01*
X16882682Y-14829496D02*
X16882682Y-14819972D01*
X16882682Y-14819972D02*
X16892206Y-14800924D01*
X16892206Y-14800924D02*
X16911253Y-14791400D01*
X16911253Y-14791400D02*
X16939825Y-14791400D01*
X16939825Y-14791400D02*
X16958873Y-14800924D01*
X17035063Y-15000924D02*
X17044587Y-14991400D01*
X17044587Y-14991400D02*
X17063634Y-14962829D01*
X17063634Y-14962829D02*
X17073158Y-14943781D01*
X17073158Y-14943781D02*
X17082682Y-14915210D01*
X17082682Y-14915210D02*
X17092206Y-14867591D01*
X17092206Y-14867591D02*
X17092206Y-14829496D01*
X17092206Y-14829496D02*
X17082682Y-14781877D01*
X17082682Y-14781877D02*
X17073158Y-14753305D01*
X17073158Y-14753305D02*
X17063634Y-14734258D01*
X17063634Y-14734258D02*
X17044587Y-14705686D01*
X17044587Y-14705686D02*
X17035063Y-14696162D01*
D10*
X12210000Y-15147250D02*
X12260000Y-15097250D01*
X12210000Y-15047250D01*
X12160000Y-15097250D01*
X12210000Y-15147250D01*
D11*
X12625539Y-15188734D02*
X12511253Y-15188734D01*
X12568396Y-15188734D02*
X12568396Y-14988734D01*
X12568396Y-14988734D02*
X12549348Y-15017305D01*
X12549348Y-15017305D02*
X12530301Y-15036353D01*
X12530301Y-15036353D02*
X12511253Y-15045877D01*
X12711253Y-15169686D02*
X12720777Y-15179210D01*
X12720777Y-15179210D02*
X12711253Y-15188734D01*
X12711253Y-15188734D02*
X12701729Y-15179210D01*
X12701729Y-15179210D02*
X12711253Y-15169686D01*
X12711253Y-15169686D02*
X12711253Y-15188734D01*
X12844586Y-14988734D02*
X12863634Y-14988734D01*
X12863634Y-14988734D02*
X12882682Y-14998258D01*
X12882682Y-14998258D02*
X12892205Y-15007781D01*
X12892205Y-15007781D02*
X12901729Y-15026829D01*
X12901729Y-15026829D02*
X12911253Y-15064924D01*
X12911253Y-15064924D02*
X12911253Y-15112543D01*
X12911253Y-15112543D02*
X12901729Y-15150638D01*
X12901729Y-15150638D02*
X12892205Y-15169686D01*
X12892205Y-15169686D02*
X12882682Y-15179210D01*
X12882682Y-15179210D02*
X12863634Y-15188734D01*
X12863634Y-15188734D02*
X12844586Y-15188734D01*
X12844586Y-15188734D02*
X12825539Y-15179210D01*
X12825539Y-15179210D02*
X12816015Y-15169686D01*
X12816015Y-15169686D02*
X12806491Y-15150638D01*
X12806491Y-15150638D02*
X12796967Y-15112543D01*
X12796967Y-15112543D02*
X12796967Y-15064924D01*
X12796967Y-15064924D02*
X12806491Y-15026829D01*
X12806491Y-15026829D02*
X12816015Y-15007781D01*
X12816015Y-15007781D02*
X12825539Y-14998258D01*
X12825539Y-14998258D02*
X12844586Y-14988734D01*
X13035062Y-14988734D02*
X13054110Y-14988734D01*
X13054110Y-14988734D02*
X13073158Y-14998258D01*
X13073158Y-14998258D02*
X13082682Y-15007781D01*
X13082682Y-15007781D02*
X13092205Y-15026829D01*
X13092205Y-15026829D02*
X13101729Y-15064924D01*
X13101729Y-15064924D02*
X13101729Y-15112543D01*
X13101729Y-15112543D02*
X13092205Y-15150638D01*
X13092205Y-15150638D02*
X13082682Y-15169686D01*
X13082682Y-15169686D02*
X13073158Y-15179210D01*
X13073158Y-15179210D02*
X13054110Y-15188734D01*
X13054110Y-15188734D02*
X13035062Y-15188734D01*
X13035062Y-15188734D02*
X13016015Y-15179210D01*
X13016015Y-15179210D02*
X13006491Y-15169686D01*
X13006491Y-15169686D02*
X12996967Y-15150638D01*
X12996967Y-15150638D02*
X12987443Y-15112543D01*
X12987443Y-15112543D02*
X12987443Y-15064924D01*
X12987443Y-15064924D02*
X12996967Y-15026829D01*
X12996967Y-15026829D02*
X13006491Y-15007781D01*
X13006491Y-15007781D02*
X13016015Y-14998258D01*
X13016015Y-14998258D02*
X13035062Y-14988734D01*
X13225539Y-14988734D02*
X13244586Y-14988734D01*
X13244586Y-14988734D02*
X13263634Y-14998258D01*
X13263634Y-14998258D02*
X13273158Y-15007781D01*
X13273158Y-15007781D02*
X13282682Y-15026829D01*
X13282682Y-15026829D02*
X13292205Y-15064924D01*
X13292205Y-15064924D02*
X13292205Y-15112543D01*
X13292205Y-15112543D02*
X13282682Y-15150638D01*
X13282682Y-15150638D02*
X13273158Y-15169686D01*
X13273158Y-15169686D02*
X13263634Y-15179210D01*
X13263634Y-15179210D02*
X13244586Y-15188734D01*
X13244586Y-15188734D02*
X13225539Y-15188734D01*
X13225539Y-15188734D02*
X13206491Y-15179210D01*
X13206491Y-15179210D02*
X13196967Y-15169686D01*
X13196967Y-15169686D02*
X13187443Y-15150638D01*
X13187443Y-15150638D02*
X13177920Y-15112543D01*
X13177920Y-15112543D02*
X13177920Y-15064924D01*
X13177920Y-15064924D02*
X13187443Y-15026829D01*
X13187443Y-15026829D02*
X13196967Y-15007781D01*
X13196967Y-15007781D02*
X13206491Y-14998258D01*
X13206491Y-14998258D02*
X13225539Y-14988734D01*
X13377920Y-15188734D02*
X13377920Y-15055400D01*
X13377920Y-15074448D02*
X13387443Y-15064924D01*
X13387443Y-15064924D02*
X13406491Y-15055400D01*
X13406491Y-15055400D02*
X13435063Y-15055400D01*
X13435063Y-15055400D02*
X13454110Y-15064924D01*
X13454110Y-15064924D02*
X13463634Y-15083972D01*
X13463634Y-15083972D02*
X13463634Y-15188734D01*
X13463634Y-15083972D02*
X13473158Y-15064924D01*
X13473158Y-15064924D02*
X13492205Y-15055400D01*
X13492205Y-15055400D02*
X13520777Y-15055400D01*
X13520777Y-15055400D02*
X13539824Y-15064924D01*
X13539824Y-15064924D02*
X13549348Y-15083972D01*
X13549348Y-15083972D02*
X13549348Y-15188734D01*
X13644586Y-15188734D02*
X13644586Y-15055400D01*
X13644586Y-15074448D02*
X13654110Y-15064924D01*
X13654110Y-15064924D02*
X13673158Y-15055400D01*
X13673158Y-15055400D02*
X13701729Y-15055400D01*
X13701729Y-15055400D02*
X13720777Y-15064924D01*
X13720777Y-15064924D02*
X13730301Y-15083972D01*
X13730301Y-15083972D02*
X13730301Y-15188734D01*
X13730301Y-15083972D02*
X13739824Y-15064924D01*
X13739824Y-15064924D02*
X13758872Y-15055400D01*
X13758872Y-15055400D02*
X13787443Y-15055400D01*
X13787443Y-15055400D02*
X13806491Y-15064924D01*
X13806491Y-15064924D02*
X13816015Y-15083972D01*
X13816015Y-15083972D02*
X13816015Y-15188734D01*
X14206491Y-14979210D02*
X14035063Y-15236353D01*
X14463634Y-14988734D02*
X14482682Y-14988734D01*
X14482682Y-14988734D02*
X14501729Y-14998258D01*
X14501729Y-14998258D02*
X14511253Y-15007781D01*
X14511253Y-15007781D02*
X14520777Y-15026829D01*
X14520777Y-15026829D02*
X14530301Y-15064924D01*
X14530301Y-15064924D02*
X14530301Y-15112543D01*
X14530301Y-15112543D02*
X14520777Y-15150638D01*
X14520777Y-15150638D02*
X14511253Y-15169686D01*
X14511253Y-15169686D02*
X14501729Y-15179210D01*
X14501729Y-15179210D02*
X14482682Y-15188734D01*
X14482682Y-15188734D02*
X14463634Y-15188734D01*
X14463634Y-15188734D02*
X14444586Y-15179210D01*
X14444586Y-15179210D02*
X14435063Y-15169686D01*
X14435063Y-15169686D02*
X14425539Y-15150638D01*
X14425539Y-15150638D02*
X14416015Y-15112543D01*
X14416015Y-15112543D02*
X14416015Y-15064924D01*
X14416015Y-15064924D02*
X14425539Y-15026829D01*
X14425539Y-15026829D02*
X14435063Y-15007781D01*
X14435063Y-15007781D02*
X14444586Y-14998258D01*
X14444586Y-14998258D02*
X14463634Y-14988734D01*
X14616015Y-15169686D02*
X14625539Y-15179210D01*
X14625539Y-15179210D02*
X14616015Y-15188734D01*
X14616015Y-15188734D02*
X14606491Y-15179210D01*
X14606491Y-15179210D02*
X14616015Y-15169686D01*
X14616015Y-15169686D02*
X14616015Y-15188734D01*
X14749348Y-14988734D02*
X14768396Y-14988734D01*
X14768396Y-14988734D02*
X14787444Y-14998258D01*
X14787444Y-14998258D02*
X14796967Y-15007781D01*
X14796967Y-15007781D02*
X14806491Y-15026829D01*
X14806491Y-15026829D02*
X14816015Y-15064924D01*
X14816015Y-15064924D02*
X14816015Y-15112543D01*
X14816015Y-15112543D02*
X14806491Y-15150638D01*
X14806491Y-15150638D02*
X14796967Y-15169686D01*
X14796967Y-15169686D02*
X14787444Y-15179210D01*
X14787444Y-15179210D02*
X14768396Y-15188734D01*
X14768396Y-15188734D02*
X14749348Y-15188734D01*
X14749348Y-15188734D02*
X14730301Y-15179210D01*
X14730301Y-15179210D02*
X14720777Y-15169686D01*
X14720777Y-15169686D02*
X14711253Y-15150638D01*
X14711253Y-15150638D02*
X14701729Y-15112543D01*
X14701729Y-15112543D02*
X14701729Y-15064924D01*
X14701729Y-15064924D02*
X14711253Y-15026829D01*
X14711253Y-15026829D02*
X14720777Y-15007781D01*
X14720777Y-15007781D02*
X14730301Y-14998258D01*
X14730301Y-14998258D02*
X14749348Y-14988734D01*
X14882682Y-14988734D02*
X15006491Y-14988734D01*
X15006491Y-14988734D02*
X14939825Y-15064924D01*
X14939825Y-15064924D02*
X14968396Y-15064924D01*
X14968396Y-15064924D02*
X14987444Y-15074448D01*
X14987444Y-15074448D02*
X14996967Y-15083972D01*
X14996967Y-15083972D02*
X15006491Y-15103019D01*
X15006491Y-15103019D02*
X15006491Y-15150638D01*
X15006491Y-15150638D02*
X14996967Y-15169686D01*
X14996967Y-15169686D02*
X14987444Y-15179210D01*
X14987444Y-15179210D02*
X14968396Y-15188734D01*
X14968396Y-15188734D02*
X14911253Y-15188734D01*
X14911253Y-15188734D02*
X14892206Y-15179210D01*
X14892206Y-15179210D02*
X14882682Y-15169686D01*
X15101729Y-15188734D02*
X15139825Y-15188734D01*
X15139825Y-15188734D02*
X15158872Y-15179210D01*
X15158872Y-15179210D02*
X15168396Y-15169686D01*
X15168396Y-15169686D02*
X15187444Y-15141115D01*
X15187444Y-15141115D02*
X15196967Y-15103019D01*
X15196967Y-15103019D02*
X15196967Y-15026829D01*
X15196967Y-15026829D02*
X15187444Y-15007781D01*
X15187444Y-15007781D02*
X15177920Y-14998258D01*
X15177920Y-14998258D02*
X15158872Y-14988734D01*
X15158872Y-14988734D02*
X15120777Y-14988734D01*
X15120777Y-14988734D02*
X15101729Y-14998258D01*
X15101729Y-14998258D02*
X15092206Y-15007781D01*
X15092206Y-15007781D02*
X15082682Y-15026829D01*
X15082682Y-15026829D02*
X15082682Y-15074448D01*
X15082682Y-15074448D02*
X15092206Y-15093496D01*
X15092206Y-15093496D02*
X15101729Y-15103019D01*
X15101729Y-15103019D02*
X15120777Y-15112543D01*
X15120777Y-15112543D02*
X15158872Y-15112543D01*
X15158872Y-15112543D02*
X15177920Y-15103019D01*
X15177920Y-15103019D02*
X15187444Y-15093496D01*
X15187444Y-15093496D02*
X15196967Y-15074448D01*
X15368396Y-15055400D02*
X15368396Y-15188734D01*
X15320777Y-14979210D02*
X15273158Y-15122067D01*
X15273158Y-15122067D02*
X15396967Y-15122067D01*
X15463634Y-14988734D02*
X15463634Y-15026829D01*
X15539825Y-14988734D02*
X15539825Y-15026829D01*
X15835063Y-15264924D02*
X15825539Y-15255400D01*
X15825539Y-15255400D02*
X15806491Y-15226829D01*
X15806491Y-15226829D02*
X15796968Y-15207781D01*
X15796968Y-15207781D02*
X15787444Y-15179210D01*
X15787444Y-15179210D02*
X15777920Y-15131591D01*
X15777920Y-15131591D02*
X15777920Y-15093496D01*
X15777920Y-15093496D02*
X15787444Y-15045877D01*
X15787444Y-15045877D02*
X15796968Y-15017305D01*
X15796968Y-15017305D02*
X15806491Y-14998258D01*
X15806491Y-14998258D02*
X15825539Y-14969686D01*
X15825539Y-14969686D02*
X15835063Y-14960162D01*
X15901729Y-15007781D02*
X15911253Y-14998258D01*
X15911253Y-14998258D02*
X15930301Y-14988734D01*
X15930301Y-14988734D02*
X15977920Y-14988734D01*
X15977920Y-14988734D02*
X15996968Y-14998258D01*
X15996968Y-14998258D02*
X16006491Y-15007781D01*
X16006491Y-15007781D02*
X16016015Y-15026829D01*
X16016015Y-15026829D02*
X16016015Y-15045877D01*
X16016015Y-15045877D02*
X16006491Y-15074448D01*
X16006491Y-15074448D02*
X15892206Y-15188734D01*
X15892206Y-15188734D02*
X16016015Y-15188734D01*
X16130301Y-15074448D02*
X16111253Y-15064924D01*
X16111253Y-15064924D02*
X16101729Y-15055400D01*
X16101729Y-15055400D02*
X16092206Y-15036353D01*
X16092206Y-15036353D02*
X16092206Y-15026829D01*
X16092206Y-15026829D02*
X16101729Y-15007781D01*
X16101729Y-15007781D02*
X16111253Y-14998258D01*
X16111253Y-14998258D02*
X16130301Y-14988734D01*
X16130301Y-14988734D02*
X16168396Y-14988734D01*
X16168396Y-14988734D02*
X16187444Y-14998258D01*
X16187444Y-14998258D02*
X16196968Y-15007781D01*
X16196968Y-15007781D02*
X16206491Y-15026829D01*
X16206491Y-15026829D02*
X16206491Y-15036353D01*
X16206491Y-15036353D02*
X16196968Y-15055400D01*
X16196968Y-15055400D02*
X16187444Y-15064924D01*
X16187444Y-15064924D02*
X16168396Y-15074448D01*
X16168396Y-15074448D02*
X16130301Y-15074448D01*
X16130301Y-15074448D02*
X16111253Y-15083972D01*
X16111253Y-15083972D02*
X16101729Y-15093496D01*
X16101729Y-15093496D02*
X16092206Y-15112543D01*
X16092206Y-15112543D02*
X16092206Y-15150638D01*
X16092206Y-15150638D02*
X16101729Y-15169686D01*
X16101729Y-15169686D02*
X16111253Y-15179210D01*
X16111253Y-15179210D02*
X16130301Y-15188734D01*
X16130301Y-15188734D02*
X16168396Y-15188734D01*
X16168396Y-15188734D02*
X16187444Y-15179210D01*
X16187444Y-15179210D02*
X16196968Y-15169686D01*
X16196968Y-15169686D02*
X16206491Y-15150638D01*
X16206491Y-15150638D02*
X16206491Y-15112543D01*
X16206491Y-15112543D02*
X16196968Y-15093496D01*
X16196968Y-15093496D02*
X16187444Y-15083972D01*
X16187444Y-15083972D02*
X16168396Y-15074448D01*
X16444587Y-15188734D02*
X16444587Y-14988734D01*
X16530301Y-15188734D02*
X16530301Y-15083972D01*
X16530301Y-15083972D02*
X16520777Y-15064924D01*
X16520777Y-15064924D02*
X16501730Y-15055400D01*
X16501730Y-15055400D02*
X16473158Y-15055400D01*
X16473158Y-15055400D02*
X16454110Y-15064924D01*
X16454110Y-15064924D02*
X16444587Y-15074448D01*
X16654110Y-15188734D02*
X16635063Y-15179210D01*
X16635063Y-15179210D02*
X16625539Y-15169686D01*
X16625539Y-15169686D02*
X16616015Y-15150638D01*
X16616015Y-15150638D02*
X16616015Y-15093496D01*
X16616015Y-15093496D02*
X16625539Y-15074448D01*
X16625539Y-15074448D02*
X16635063Y-15064924D01*
X16635063Y-15064924D02*
X16654110Y-15055400D01*
X16654110Y-15055400D02*
X16682682Y-15055400D01*
X16682682Y-15055400D02*
X16701730Y-15064924D01*
X16701730Y-15064924D02*
X16711253Y-15074448D01*
X16711253Y-15074448D02*
X16720777Y-15093496D01*
X16720777Y-15093496D02*
X16720777Y-15150638D01*
X16720777Y-15150638D02*
X16711253Y-15169686D01*
X16711253Y-15169686D02*
X16701730Y-15179210D01*
X16701730Y-15179210D02*
X16682682Y-15188734D01*
X16682682Y-15188734D02*
X16654110Y-15188734D01*
X16835063Y-15188734D02*
X16816015Y-15179210D01*
X16816015Y-15179210D02*
X16806492Y-15160162D01*
X16806492Y-15160162D02*
X16806492Y-14988734D01*
X16987444Y-15179210D02*
X16968396Y-15188734D01*
X16968396Y-15188734D02*
X16930301Y-15188734D01*
X16930301Y-15188734D02*
X16911253Y-15179210D01*
X16911253Y-15179210D02*
X16901730Y-15160162D01*
X16901730Y-15160162D02*
X16901730Y-15083972D01*
X16901730Y-15083972D02*
X16911253Y-15064924D01*
X16911253Y-15064924D02*
X16930301Y-15055400D01*
X16930301Y-15055400D02*
X16968396Y-15055400D01*
X16968396Y-15055400D02*
X16987444Y-15064924D01*
X16987444Y-15064924D02*
X16996968Y-15083972D01*
X16996968Y-15083972D02*
X16996968Y-15103019D01*
X16996968Y-15103019D02*
X16901730Y-15122067D01*
X17073158Y-15179210D02*
X17092206Y-15188734D01*
X17092206Y-15188734D02*
X17130301Y-15188734D01*
X17130301Y-15188734D02*
X17149349Y-15179210D01*
X17149349Y-15179210D02*
X17158873Y-15160162D01*
X17158873Y-15160162D02*
X17158873Y-15150638D01*
X17158873Y-15150638D02*
X17149349Y-15131591D01*
X17149349Y-15131591D02*
X17130301Y-15122067D01*
X17130301Y-15122067D02*
X17101730Y-15122067D01*
X17101730Y-15122067D02*
X17082682Y-15112543D01*
X17082682Y-15112543D02*
X17073158Y-15093496D01*
X17073158Y-15093496D02*
X17073158Y-15083972D01*
X17073158Y-15083972D02*
X17082682Y-15064924D01*
X17082682Y-15064924D02*
X17101730Y-15055400D01*
X17101730Y-15055400D02*
X17130301Y-15055400D01*
X17130301Y-15055400D02*
X17149349Y-15064924D01*
X17225539Y-15264924D02*
X17235063Y-15255400D01*
X17235063Y-15255400D02*
X17254111Y-15226829D01*
X17254111Y-15226829D02*
X17263634Y-15207781D01*
X17263634Y-15207781D02*
X17273158Y-15179210D01*
X17273158Y-15179210D02*
X17282682Y-15131591D01*
X17282682Y-15131591D02*
X17282682Y-15093496D01*
X17282682Y-15093496D02*
X17273158Y-15045877D01*
X17273158Y-15045877D02*
X17263634Y-15017305D01*
X17263634Y-15017305D02*
X17254111Y-14998258D01*
X17254111Y-14998258D02*
X17235063Y-14969686D01*
X17235063Y-14969686D02*
X17225539Y-14960162D01*
D16*
X12110000Y-15286250D02*
X12260000Y-15436250D01*
X12260000Y-15286250D02*
X12110000Y-15436250D01*
X12260000Y-15361250D02*
G75*
G03*
X12260000Y-15361250I-75000J0D01*
G01*
D11*
X12625539Y-15452734D02*
X12511253Y-15452734D01*
X12568396Y-15452734D02*
X12568396Y-15252734D01*
X12568396Y-15252734D02*
X12549348Y-15281305D01*
X12549348Y-15281305D02*
X12530301Y-15300353D01*
X12530301Y-15300353D02*
X12511253Y-15309877D01*
X12711253Y-15433686D02*
X12720777Y-15443210D01*
X12720777Y-15443210D02*
X12711253Y-15452734D01*
X12711253Y-15452734D02*
X12701729Y-15443210D01*
X12701729Y-15443210D02*
X12711253Y-15433686D01*
X12711253Y-15433686D02*
X12711253Y-15452734D01*
X12901729Y-15252734D02*
X12806491Y-15252734D01*
X12806491Y-15252734D02*
X12796967Y-15347972D01*
X12796967Y-15347972D02*
X12806491Y-15338448D01*
X12806491Y-15338448D02*
X12825539Y-15328924D01*
X12825539Y-15328924D02*
X12873158Y-15328924D01*
X12873158Y-15328924D02*
X12892205Y-15338448D01*
X12892205Y-15338448D02*
X12901729Y-15347972D01*
X12901729Y-15347972D02*
X12911253Y-15367019D01*
X12911253Y-15367019D02*
X12911253Y-15414638D01*
X12911253Y-15414638D02*
X12901729Y-15433686D01*
X12901729Y-15433686D02*
X12892205Y-15443210D01*
X12892205Y-15443210D02*
X12873158Y-15452734D01*
X12873158Y-15452734D02*
X12825539Y-15452734D01*
X12825539Y-15452734D02*
X12806491Y-15443210D01*
X12806491Y-15443210D02*
X12796967Y-15433686D01*
X13035062Y-15252734D02*
X13054110Y-15252734D01*
X13054110Y-15252734D02*
X13073158Y-15262258D01*
X13073158Y-15262258D02*
X13082682Y-15271781D01*
X13082682Y-15271781D02*
X13092205Y-15290829D01*
X13092205Y-15290829D02*
X13101729Y-15328924D01*
X13101729Y-15328924D02*
X13101729Y-15376543D01*
X13101729Y-15376543D02*
X13092205Y-15414638D01*
X13092205Y-15414638D02*
X13082682Y-15433686D01*
X13082682Y-15433686D02*
X13073158Y-15443210D01*
X13073158Y-15443210D02*
X13054110Y-15452734D01*
X13054110Y-15452734D02*
X13035062Y-15452734D01*
X13035062Y-15452734D02*
X13016015Y-15443210D01*
X13016015Y-15443210D02*
X13006491Y-15433686D01*
X13006491Y-15433686D02*
X12996967Y-15414638D01*
X12996967Y-15414638D02*
X12987443Y-15376543D01*
X12987443Y-15376543D02*
X12987443Y-15328924D01*
X12987443Y-15328924D02*
X12996967Y-15290829D01*
X12996967Y-15290829D02*
X13006491Y-15271781D01*
X13006491Y-15271781D02*
X13016015Y-15262258D01*
X13016015Y-15262258D02*
X13035062Y-15252734D01*
X13225539Y-15252734D02*
X13244586Y-15252734D01*
X13244586Y-15252734D02*
X13263634Y-15262258D01*
X13263634Y-15262258D02*
X13273158Y-15271781D01*
X13273158Y-15271781D02*
X13282682Y-15290829D01*
X13282682Y-15290829D02*
X13292205Y-15328924D01*
X13292205Y-15328924D02*
X13292205Y-15376543D01*
X13292205Y-15376543D02*
X13282682Y-15414638D01*
X13282682Y-15414638D02*
X13273158Y-15433686D01*
X13273158Y-15433686D02*
X13263634Y-15443210D01*
X13263634Y-15443210D02*
X13244586Y-15452734D01*
X13244586Y-15452734D02*
X13225539Y-15452734D01*
X13225539Y-15452734D02*
X13206491Y-15443210D01*
X13206491Y-15443210D02*
X13196967Y-15433686D01*
X13196967Y-15433686D02*
X13187443Y-15414638D01*
X13187443Y-15414638D02*
X13177920Y-15376543D01*
X13177920Y-15376543D02*
X13177920Y-15328924D01*
X13177920Y-15328924D02*
X13187443Y-15290829D01*
X13187443Y-15290829D02*
X13196967Y-15271781D01*
X13196967Y-15271781D02*
X13206491Y-15262258D01*
X13206491Y-15262258D02*
X13225539Y-15252734D01*
X13377920Y-15452734D02*
X13377920Y-15319400D01*
X13377920Y-15338448D02*
X13387443Y-15328924D01*
X13387443Y-15328924D02*
X13406491Y-15319400D01*
X13406491Y-15319400D02*
X13435063Y-15319400D01*
X13435063Y-15319400D02*
X13454110Y-15328924D01*
X13454110Y-15328924D02*
X13463634Y-15347972D01*
X13463634Y-15347972D02*
X13463634Y-15452734D01*
X13463634Y-15347972D02*
X13473158Y-15328924D01*
X13473158Y-15328924D02*
X13492205Y-15319400D01*
X13492205Y-15319400D02*
X13520777Y-15319400D01*
X13520777Y-15319400D02*
X13539824Y-15328924D01*
X13539824Y-15328924D02*
X13549348Y-15347972D01*
X13549348Y-15347972D02*
X13549348Y-15452734D01*
X13644586Y-15452734D02*
X13644586Y-15319400D01*
X13644586Y-15338448D02*
X13654110Y-15328924D01*
X13654110Y-15328924D02*
X13673158Y-15319400D01*
X13673158Y-15319400D02*
X13701729Y-15319400D01*
X13701729Y-15319400D02*
X13720777Y-15328924D01*
X13720777Y-15328924D02*
X13730301Y-15347972D01*
X13730301Y-15347972D02*
X13730301Y-15452734D01*
X13730301Y-15347972D02*
X13739824Y-15328924D01*
X13739824Y-15328924D02*
X13758872Y-15319400D01*
X13758872Y-15319400D02*
X13787443Y-15319400D01*
X13787443Y-15319400D02*
X13806491Y-15328924D01*
X13806491Y-15328924D02*
X13816015Y-15347972D01*
X13816015Y-15347972D02*
X13816015Y-15452734D01*
X14206491Y-15243210D02*
X14035063Y-15500353D01*
X14463634Y-15252734D02*
X14482682Y-15252734D01*
X14482682Y-15252734D02*
X14501729Y-15262258D01*
X14501729Y-15262258D02*
X14511253Y-15271781D01*
X14511253Y-15271781D02*
X14520777Y-15290829D01*
X14520777Y-15290829D02*
X14530301Y-15328924D01*
X14530301Y-15328924D02*
X14530301Y-15376543D01*
X14530301Y-15376543D02*
X14520777Y-15414638D01*
X14520777Y-15414638D02*
X14511253Y-15433686D01*
X14511253Y-15433686D02*
X14501729Y-15443210D01*
X14501729Y-15443210D02*
X14482682Y-15452734D01*
X14482682Y-15452734D02*
X14463634Y-15452734D01*
X14463634Y-15452734D02*
X14444586Y-15443210D01*
X14444586Y-15443210D02*
X14435063Y-15433686D01*
X14435063Y-15433686D02*
X14425539Y-15414638D01*
X14425539Y-15414638D02*
X14416015Y-15376543D01*
X14416015Y-15376543D02*
X14416015Y-15328924D01*
X14416015Y-15328924D02*
X14425539Y-15290829D01*
X14425539Y-15290829D02*
X14435063Y-15271781D01*
X14435063Y-15271781D02*
X14444586Y-15262258D01*
X14444586Y-15262258D02*
X14463634Y-15252734D01*
X14616015Y-15433686D02*
X14625539Y-15443210D01*
X14625539Y-15443210D02*
X14616015Y-15452734D01*
X14616015Y-15452734D02*
X14606491Y-15443210D01*
X14606491Y-15443210D02*
X14616015Y-15433686D01*
X14616015Y-15433686D02*
X14616015Y-15452734D01*
X14749348Y-15252734D02*
X14768396Y-15252734D01*
X14768396Y-15252734D02*
X14787444Y-15262258D01*
X14787444Y-15262258D02*
X14796967Y-15271781D01*
X14796967Y-15271781D02*
X14806491Y-15290829D01*
X14806491Y-15290829D02*
X14816015Y-15328924D01*
X14816015Y-15328924D02*
X14816015Y-15376543D01*
X14816015Y-15376543D02*
X14806491Y-15414638D01*
X14806491Y-15414638D02*
X14796967Y-15433686D01*
X14796967Y-15433686D02*
X14787444Y-15443210D01*
X14787444Y-15443210D02*
X14768396Y-15452734D01*
X14768396Y-15452734D02*
X14749348Y-15452734D01*
X14749348Y-15452734D02*
X14730301Y-15443210D01*
X14730301Y-15443210D02*
X14720777Y-15433686D01*
X14720777Y-15433686D02*
X14711253Y-15414638D01*
X14711253Y-15414638D02*
X14701729Y-15376543D01*
X14701729Y-15376543D02*
X14701729Y-15328924D01*
X14701729Y-15328924D02*
X14711253Y-15290829D01*
X14711253Y-15290829D02*
X14720777Y-15271781D01*
X14720777Y-15271781D02*
X14730301Y-15262258D01*
X14730301Y-15262258D02*
X14749348Y-15252734D01*
X14996967Y-15252734D02*
X14901729Y-15252734D01*
X14901729Y-15252734D02*
X14892206Y-15347972D01*
X14892206Y-15347972D02*
X14901729Y-15338448D01*
X14901729Y-15338448D02*
X14920777Y-15328924D01*
X14920777Y-15328924D02*
X14968396Y-15328924D01*
X14968396Y-15328924D02*
X14987444Y-15338448D01*
X14987444Y-15338448D02*
X14996967Y-15347972D01*
X14996967Y-15347972D02*
X15006491Y-15367019D01*
X15006491Y-15367019D02*
X15006491Y-15414638D01*
X15006491Y-15414638D02*
X14996967Y-15433686D01*
X14996967Y-15433686D02*
X14987444Y-15443210D01*
X14987444Y-15443210D02*
X14968396Y-15452734D01*
X14968396Y-15452734D02*
X14920777Y-15452734D01*
X14920777Y-15452734D02*
X14901729Y-15443210D01*
X14901729Y-15443210D02*
X14892206Y-15433686D01*
X15101729Y-15452734D02*
X15139825Y-15452734D01*
X15139825Y-15452734D02*
X15158872Y-15443210D01*
X15158872Y-15443210D02*
X15168396Y-15433686D01*
X15168396Y-15433686D02*
X15187444Y-15405115D01*
X15187444Y-15405115D02*
X15196967Y-15367019D01*
X15196967Y-15367019D02*
X15196967Y-15290829D01*
X15196967Y-15290829D02*
X15187444Y-15271781D01*
X15187444Y-15271781D02*
X15177920Y-15262258D01*
X15177920Y-15262258D02*
X15158872Y-15252734D01*
X15158872Y-15252734D02*
X15120777Y-15252734D01*
X15120777Y-15252734D02*
X15101729Y-15262258D01*
X15101729Y-15262258D02*
X15092206Y-15271781D01*
X15092206Y-15271781D02*
X15082682Y-15290829D01*
X15082682Y-15290829D02*
X15082682Y-15338448D01*
X15082682Y-15338448D02*
X15092206Y-15357496D01*
X15092206Y-15357496D02*
X15101729Y-15367019D01*
X15101729Y-15367019D02*
X15120777Y-15376543D01*
X15120777Y-15376543D02*
X15158872Y-15376543D01*
X15158872Y-15376543D02*
X15177920Y-15367019D01*
X15177920Y-15367019D02*
X15187444Y-15357496D01*
X15187444Y-15357496D02*
X15196967Y-15338448D01*
X15387444Y-15452734D02*
X15273158Y-15452734D01*
X15330301Y-15452734D02*
X15330301Y-15252734D01*
X15330301Y-15252734D02*
X15311253Y-15281305D01*
X15311253Y-15281305D02*
X15292206Y-15300353D01*
X15292206Y-15300353D02*
X15273158Y-15309877D01*
X15463634Y-15252734D02*
X15463634Y-15290829D01*
X15539825Y-15252734D02*
X15539825Y-15290829D01*
X15835063Y-15528924D02*
X15825539Y-15519400D01*
X15825539Y-15519400D02*
X15806491Y-15490829D01*
X15806491Y-15490829D02*
X15796968Y-15471781D01*
X15796968Y-15471781D02*
X15787444Y-15443210D01*
X15787444Y-15443210D02*
X15777920Y-15395591D01*
X15777920Y-15395591D02*
X15777920Y-15357496D01*
X15777920Y-15357496D02*
X15787444Y-15309877D01*
X15787444Y-15309877D02*
X15796968Y-15281305D01*
X15796968Y-15281305D02*
X15806491Y-15262258D01*
X15806491Y-15262258D02*
X15825539Y-15233686D01*
X15825539Y-15233686D02*
X15835063Y-15224162D01*
X15901729Y-15271781D02*
X15911253Y-15262258D01*
X15911253Y-15262258D02*
X15930301Y-15252734D01*
X15930301Y-15252734D02*
X15977920Y-15252734D01*
X15977920Y-15252734D02*
X15996968Y-15262258D01*
X15996968Y-15262258D02*
X16006491Y-15271781D01*
X16006491Y-15271781D02*
X16016015Y-15290829D01*
X16016015Y-15290829D02*
X16016015Y-15309877D01*
X16016015Y-15309877D02*
X16006491Y-15338448D01*
X16006491Y-15338448D02*
X15892206Y-15452734D01*
X15892206Y-15452734D02*
X16016015Y-15452734D01*
X16254110Y-15452734D02*
X16254110Y-15252734D01*
X16339825Y-15452734D02*
X16339825Y-15347972D01*
X16339825Y-15347972D02*
X16330301Y-15328924D01*
X16330301Y-15328924D02*
X16311253Y-15319400D01*
X16311253Y-15319400D02*
X16282682Y-15319400D01*
X16282682Y-15319400D02*
X16263634Y-15328924D01*
X16263634Y-15328924D02*
X16254110Y-15338448D01*
X16463634Y-15452734D02*
X16444587Y-15443210D01*
X16444587Y-15443210D02*
X16435063Y-15433686D01*
X16435063Y-15433686D02*
X16425539Y-15414638D01*
X16425539Y-15414638D02*
X16425539Y-15357496D01*
X16425539Y-15357496D02*
X16435063Y-15338448D01*
X16435063Y-15338448D02*
X16444587Y-15328924D01*
X16444587Y-15328924D02*
X16463634Y-15319400D01*
X16463634Y-15319400D02*
X16492206Y-15319400D01*
X16492206Y-15319400D02*
X16511253Y-15328924D01*
X16511253Y-15328924D02*
X16520777Y-15338448D01*
X16520777Y-15338448D02*
X16530301Y-15357496D01*
X16530301Y-15357496D02*
X16530301Y-15414638D01*
X16530301Y-15414638D02*
X16520777Y-15433686D01*
X16520777Y-15433686D02*
X16511253Y-15443210D01*
X16511253Y-15443210D02*
X16492206Y-15452734D01*
X16492206Y-15452734D02*
X16463634Y-15452734D01*
X16644587Y-15452734D02*
X16625539Y-15443210D01*
X16625539Y-15443210D02*
X16616015Y-15424162D01*
X16616015Y-15424162D02*
X16616015Y-15252734D01*
X16796968Y-15443210D02*
X16777920Y-15452734D01*
X16777920Y-15452734D02*
X16739825Y-15452734D01*
X16739825Y-15452734D02*
X16720777Y-15443210D01*
X16720777Y-15443210D02*
X16711253Y-15424162D01*
X16711253Y-15424162D02*
X16711253Y-15347972D01*
X16711253Y-15347972D02*
X16720777Y-15328924D01*
X16720777Y-15328924D02*
X16739825Y-15319400D01*
X16739825Y-15319400D02*
X16777920Y-15319400D01*
X16777920Y-15319400D02*
X16796968Y-15328924D01*
X16796968Y-15328924D02*
X16806492Y-15347972D01*
X16806492Y-15347972D02*
X16806492Y-15367019D01*
X16806492Y-15367019D02*
X16711253Y-15386067D01*
X16882682Y-15443210D02*
X16901730Y-15452734D01*
X16901730Y-15452734D02*
X16939825Y-15452734D01*
X16939825Y-15452734D02*
X16958873Y-15443210D01*
X16958873Y-15443210D02*
X16968396Y-15424162D01*
X16968396Y-15424162D02*
X16968396Y-15414638D01*
X16968396Y-15414638D02*
X16958873Y-15395591D01*
X16958873Y-15395591D02*
X16939825Y-15386067D01*
X16939825Y-15386067D02*
X16911253Y-15386067D01*
X16911253Y-15386067D02*
X16892206Y-15376543D01*
X16892206Y-15376543D02*
X16882682Y-15357496D01*
X16882682Y-15357496D02*
X16882682Y-15347972D01*
X16882682Y-15347972D02*
X16892206Y-15328924D01*
X16892206Y-15328924D02*
X16911253Y-15319400D01*
X16911253Y-15319400D02*
X16939825Y-15319400D01*
X16939825Y-15319400D02*
X16958873Y-15328924D01*
X17035063Y-15528924D02*
X17044587Y-15519400D01*
X17044587Y-15519400D02*
X17063634Y-15490829D01*
X17063634Y-15490829D02*
X17073158Y-15471781D01*
X17073158Y-15471781D02*
X17082682Y-15443210D01*
X17082682Y-15443210D02*
X17092206Y-15395591D01*
X17092206Y-15395591D02*
X17092206Y-15357496D01*
X17092206Y-15357496D02*
X17082682Y-15309877D01*
X17082682Y-15309877D02*
X17073158Y-15281305D01*
X17073158Y-15281305D02*
X17063634Y-15262258D01*
X17063634Y-15262258D02*
X17044587Y-15233686D01*
X17044587Y-15233686D02*
X17035063Y-15224162D01*
X12060000Y-15531250D02*
X12260000Y-15731250D01*
X12260000Y-15531250D02*
X12060000Y-15731250D01*
X12160000Y-15531250D02*
X12160000Y-15731250D01*
X12060000Y-15631250D02*
X12260000Y-15631250D01*
X12511253Y-15541781D02*
X12520777Y-15532258D01*
X12520777Y-15532258D02*
X12539824Y-15522734D01*
X12539824Y-15522734D02*
X12587443Y-15522734D01*
X12587443Y-15522734D02*
X12606491Y-15532258D01*
X12606491Y-15532258D02*
X12616015Y-15541781D01*
X12616015Y-15541781D02*
X12625539Y-15560829D01*
X12625539Y-15560829D02*
X12625539Y-15579877D01*
X12625539Y-15579877D02*
X12616015Y-15608448D01*
X12616015Y-15608448D02*
X12501729Y-15722734D01*
X12501729Y-15722734D02*
X12625539Y-15722734D01*
X12711253Y-15703686D02*
X12720777Y-15713210D01*
X12720777Y-15713210D02*
X12711253Y-15722734D01*
X12711253Y-15722734D02*
X12701729Y-15713210D01*
X12701729Y-15713210D02*
X12711253Y-15703686D01*
X12711253Y-15703686D02*
X12711253Y-15722734D01*
X12816015Y-15722734D02*
X12854110Y-15722734D01*
X12854110Y-15722734D02*
X12873158Y-15713210D01*
X12873158Y-15713210D02*
X12882682Y-15703686D01*
X12882682Y-15703686D02*
X12901729Y-15675115D01*
X12901729Y-15675115D02*
X12911253Y-15637019D01*
X12911253Y-15637019D02*
X12911253Y-15560829D01*
X12911253Y-15560829D02*
X12901729Y-15541781D01*
X12901729Y-15541781D02*
X12892205Y-15532258D01*
X12892205Y-15532258D02*
X12873158Y-15522734D01*
X12873158Y-15522734D02*
X12835062Y-15522734D01*
X12835062Y-15522734D02*
X12816015Y-15532258D01*
X12816015Y-15532258D02*
X12806491Y-15541781D01*
X12806491Y-15541781D02*
X12796967Y-15560829D01*
X12796967Y-15560829D02*
X12796967Y-15608448D01*
X12796967Y-15608448D02*
X12806491Y-15627496D01*
X12806491Y-15627496D02*
X12816015Y-15637019D01*
X12816015Y-15637019D02*
X12835062Y-15646543D01*
X12835062Y-15646543D02*
X12873158Y-15646543D01*
X12873158Y-15646543D02*
X12892205Y-15637019D01*
X12892205Y-15637019D02*
X12901729Y-15627496D01*
X12901729Y-15627496D02*
X12911253Y-15608448D01*
X13035062Y-15522734D02*
X13054110Y-15522734D01*
X13054110Y-15522734D02*
X13073158Y-15532258D01*
X13073158Y-15532258D02*
X13082682Y-15541781D01*
X13082682Y-15541781D02*
X13092205Y-15560829D01*
X13092205Y-15560829D02*
X13101729Y-15598924D01*
X13101729Y-15598924D02*
X13101729Y-15646543D01*
X13101729Y-15646543D02*
X13092205Y-15684638D01*
X13092205Y-15684638D02*
X13082682Y-15703686D01*
X13082682Y-15703686D02*
X13073158Y-15713210D01*
X13073158Y-15713210D02*
X13054110Y-15722734D01*
X13054110Y-15722734D02*
X13035062Y-15722734D01*
X13035062Y-15722734D02*
X13016015Y-15713210D01*
X13016015Y-15713210D02*
X13006491Y-15703686D01*
X13006491Y-15703686D02*
X12996967Y-15684638D01*
X12996967Y-15684638D02*
X12987443Y-15646543D01*
X12987443Y-15646543D02*
X12987443Y-15598924D01*
X12987443Y-15598924D02*
X12996967Y-15560829D01*
X12996967Y-15560829D02*
X13006491Y-15541781D01*
X13006491Y-15541781D02*
X13016015Y-15532258D01*
X13016015Y-15532258D02*
X13035062Y-15522734D01*
X13225539Y-15522734D02*
X13244586Y-15522734D01*
X13244586Y-15522734D02*
X13263634Y-15532258D01*
X13263634Y-15532258D02*
X13273158Y-15541781D01*
X13273158Y-15541781D02*
X13282682Y-15560829D01*
X13282682Y-15560829D02*
X13292205Y-15598924D01*
X13292205Y-15598924D02*
X13292205Y-15646543D01*
X13292205Y-15646543D02*
X13282682Y-15684638D01*
X13282682Y-15684638D02*
X13273158Y-15703686D01*
X13273158Y-15703686D02*
X13263634Y-15713210D01*
X13263634Y-15713210D02*
X13244586Y-15722734D01*
X13244586Y-15722734D02*
X13225539Y-15722734D01*
X13225539Y-15722734D02*
X13206491Y-15713210D01*
X13206491Y-15713210D02*
X13196967Y-15703686D01*
X13196967Y-15703686D02*
X13187443Y-15684638D01*
X13187443Y-15684638D02*
X13177920Y-15646543D01*
X13177920Y-15646543D02*
X13177920Y-15598924D01*
X13177920Y-15598924D02*
X13187443Y-15560829D01*
X13187443Y-15560829D02*
X13196967Y-15541781D01*
X13196967Y-15541781D02*
X13206491Y-15532258D01*
X13206491Y-15532258D02*
X13225539Y-15522734D01*
X13377920Y-15722734D02*
X13377920Y-15589400D01*
X13377920Y-15608448D02*
X13387443Y-15598924D01*
X13387443Y-15598924D02*
X13406491Y-15589400D01*
X13406491Y-15589400D02*
X13435063Y-15589400D01*
X13435063Y-15589400D02*
X13454110Y-15598924D01*
X13454110Y-15598924D02*
X13463634Y-15617972D01*
X13463634Y-15617972D02*
X13463634Y-15722734D01*
X13463634Y-15617972D02*
X13473158Y-15598924D01*
X13473158Y-15598924D02*
X13492205Y-15589400D01*
X13492205Y-15589400D02*
X13520777Y-15589400D01*
X13520777Y-15589400D02*
X13539824Y-15598924D01*
X13539824Y-15598924D02*
X13549348Y-15617972D01*
X13549348Y-15617972D02*
X13549348Y-15722734D01*
X13644586Y-15722734D02*
X13644586Y-15589400D01*
X13644586Y-15608448D02*
X13654110Y-15598924D01*
X13654110Y-15598924D02*
X13673158Y-15589400D01*
X13673158Y-15589400D02*
X13701729Y-15589400D01*
X13701729Y-15589400D02*
X13720777Y-15598924D01*
X13720777Y-15598924D02*
X13730301Y-15617972D01*
X13730301Y-15617972D02*
X13730301Y-15722734D01*
X13730301Y-15617972D02*
X13739824Y-15598924D01*
X13739824Y-15598924D02*
X13758872Y-15589400D01*
X13758872Y-15589400D02*
X13787443Y-15589400D01*
X13787443Y-15589400D02*
X13806491Y-15598924D01*
X13806491Y-15598924D02*
X13816015Y-15617972D01*
X13816015Y-15617972D02*
X13816015Y-15722734D01*
X14206491Y-15513210D02*
X14035063Y-15770353D01*
X14463634Y-15522734D02*
X14482682Y-15522734D01*
X14482682Y-15522734D02*
X14501729Y-15532258D01*
X14501729Y-15532258D02*
X14511253Y-15541781D01*
X14511253Y-15541781D02*
X14520777Y-15560829D01*
X14520777Y-15560829D02*
X14530301Y-15598924D01*
X14530301Y-15598924D02*
X14530301Y-15646543D01*
X14530301Y-15646543D02*
X14520777Y-15684638D01*
X14520777Y-15684638D02*
X14511253Y-15703686D01*
X14511253Y-15703686D02*
X14501729Y-15713210D01*
X14501729Y-15713210D02*
X14482682Y-15722734D01*
X14482682Y-15722734D02*
X14463634Y-15722734D01*
X14463634Y-15722734D02*
X14444586Y-15713210D01*
X14444586Y-15713210D02*
X14435063Y-15703686D01*
X14435063Y-15703686D02*
X14425539Y-15684638D01*
X14425539Y-15684638D02*
X14416015Y-15646543D01*
X14416015Y-15646543D02*
X14416015Y-15598924D01*
X14416015Y-15598924D02*
X14425539Y-15560829D01*
X14425539Y-15560829D02*
X14435063Y-15541781D01*
X14435063Y-15541781D02*
X14444586Y-15532258D01*
X14444586Y-15532258D02*
X14463634Y-15522734D01*
X14616015Y-15703686D02*
X14625539Y-15713210D01*
X14625539Y-15713210D02*
X14616015Y-15722734D01*
X14616015Y-15722734D02*
X14606491Y-15713210D01*
X14606491Y-15713210D02*
X14616015Y-15703686D01*
X14616015Y-15703686D02*
X14616015Y-15722734D01*
X14816015Y-15722734D02*
X14701729Y-15722734D01*
X14758872Y-15722734D02*
X14758872Y-15522734D01*
X14758872Y-15522734D02*
X14739825Y-15551305D01*
X14739825Y-15551305D02*
X14720777Y-15570353D01*
X14720777Y-15570353D02*
X14701729Y-15579877D01*
X15006491Y-15722734D02*
X14892206Y-15722734D01*
X14949348Y-15722734D02*
X14949348Y-15522734D01*
X14949348Y-15522734D02*
X14930301Y-15551305D01*
X14930301Y-15551305D02*
X14911253Y-15570353D01*
X14911253Y-15570353D02*
X14892206Y-15579877D01*
X15177920Y-15589400D02*
X15177920Y-15722734D01*
X15130301Y-15513210D02*
X15082682Y-15656067D01*
X15082682Y-15656067D02*
X15206491Y-15656067D01*
X15273158Y-15541781D02*
X15282682Y-15532258D01*
X15282682Y-15532258D02*
X15301729Y-15522734D01*
X15301729Y-15522734D02*
X15349348Y-15522734D01*
X15349348Y-15522734D02*
X15368396Y-15532258D01*
X15368396Y-15532258D02*
X15377920Y-15541781D01*
X15377920Y-15541781D02*
X15387444Y-15560829D01*
X15387444Y-15560829D02*
X15387444Y-15579877D01*
X15387444Y-15579877D02*
X15377920Y-15608448D01*
X15377920Y-15608448D02*
X15263634Y-15722734D01*
X15263634Y-15722734D02*
X15387444Y-15722734D01*
X15463634Y-15522734D02*
X15463634Y-15560829D01*
X15539825Y-15522734D02*
X15539825Y-15560829D01*
X15835063Y-15798924D02*
X15825539Y-15789400D01*
X15825539Y-15789400D02*
X15806491Y-15760829D01*
X15806491Y-15760829D02*
X15796968Y-15741781D01*
X15796968Y-15741781D02*
X15787444Y-15713210D01*
X15787444Y-15713210D02*
X15777920Y-15665591D01*
X15777920Y-15665591D02*
X15777920Y-15627496D01*
X15777920Y-15627496D02*
X15787444Y-15579877D01*
X15787444Y-15579877D02*
X15796968Y-15551305D01*
X15796968Y-15551305D02*
X15806491Y-15532258D01*
X15806491Y-15532258D02*
X15825539Y-15503686D01*
X15825539Y-15503686D02*
X15835063Y-15494162D01*
X16016015Y-15722734D02*
X15901729Y-15722734D01*
X15958872Y-15722734D02*
X15958872Y-15522734D01*
X15958872Y-15522734D02*
X15939825Y-15551305D01*
X15939825Y-15551305D02*
X15920777Y-15570353D01*
X15920777Y-15570353D02*
X15901729Y-15579877D01*
X16254110Y-15722734D02*
X16254110Y-15522734D01*
X16339825Y-15722734D02*
X16339825Y-15617972D01*
X16339825Y-15617972D02*
X16330301Y-15598924D01*
X16330301Y-15598924D02*
X16311253Y-15589400D01*
X16311253Y-15589400D02*
X16282682Y-15589400D01*
X16282682Y-15589400D02*
X16263634Y-15598924D01*
X16263634Y-15598924D02*
X16254110Y-15608448D01*
X16463634Y-15722734D02*
X16444587Y-15713210D01*
X16444587Y-15713210D02*
X16435063Y-15703686D01*
X16435063Y-15703686D02*
X16425539Y-15684638D01*
X16425539Y-15684638D02*
X16425539Y-15627496D01*
X16425539Y-15627496D02*
X16435063Y-15608448D01*
X16435063Y-15608448D02*
X16444587Y-15598924D01*
X16444587Y-15598924D02*
X16463634Y-15589400D01*
X16463634Y-15589400D02*
X16492206Y-15589400D01*
X16492206Y-15589400D02*
X16511253Y-15598924D01*
X16511253Y-15598924D02*
X16520777Y-15608448D01*
X16520777Y-15608448D02*
X16530301Y-15627496D01*
X16530301Y-15627496D02*
X16530301Y-15684638D01*
X16530301Y-15684638D02*
X16520777Y-15703686D01*
X16520777Y-15703686D02*
X16511253Y-15713210D01*
X16511253Y-15713210D02*
X16492206Y-15722734D01*
X16492206Y-15722734D02*
X16463634Y-15722734D01*
X16644587Y-15722734D02*
X16625539Y-15713210D01*
X16625539Y-15713210D02*
X16616015Y-15694162D01*
X16616015Y-15694162D02*
X16616015Y-15522734D01*
X16796968Y-15713210D02*
X16777920Y-15722734D01*
X16777920Y-15722734D02*
X16739825Y-15722734D01*
X16739825Y-15722734D02*
X16720777Y-15713210D01*
X16720777Y-15713210D02*
X16711253Y-15694162D01*
X16711253Y-15694162D02*
X16711253Y-15617972D01*
X16711253Y-15617972D02*
X16720777Y-15598924D01*
X16720777Y-15598924D02*
X16739825Y-15589400D01*
X16739825Y-15589400D02*
X16777920Y-15589400D01*
X16777920Y-15589400D02*
X16796968Y-15598924D01*
X16796968Y-15598924D02*
X16806492Y-15617972D01*
X16806492Y-15617972D02*
X16806492Y-15637019D01*
X16806492Y-15637019D02*
X16711253Y-15656067D01*
X16873158Y-15798924D02*
X16882682Y-15789400D01*
X16882682Y-15789400D02*
X16901730Y-15760829D01*
X16901730Y-15760829D02*
X16911253Y-15741781D01*
X16911253Y-15741781D02*
X16920777Y-15713210D01*
X16920777Y-15713210D02*
X16930301Y-15665591D01*
X16930301Y-15665591D02*
X16930301Y-15627496D01*
X16930301Y-15627496D02*
X16920777Y-15579877D01*
X16920777Y-15579877D02*
X16911253Y-15551305D01*
X16911253Y-15551305D02*
X16901730Y-15532258D01*
X16901730Y-15532258D02*
X16882682Y-15503686D01*
X16882682Y-15503686D02*
X16873158Y-15494162D01*
X12060000Y-15851250D02*
X12260000Y-16051250D01*
X12260000Y-15851250D02*
X12060000Y-16051250D01*
X12230711Y-16021961D02*
X12230711Y-15880539D01*
X12089289Y-15880539D01*
X12089289Y-16021961D01*
X12230711Y-16021961D01*
X12501729Y-15842734D02*
X12625539Y-15842734D01*
X12625539Y-15842734D02*
X12558872Y-15918924D01*
X12558872Y-15918924D02*
X12587443Y-15918924D01*
X12587443Y-15918924D02*
X12606491Y-15928448D01*
X12606491Y-15928448D02*
X12616015Y-15937972D01*
X12616015Y-15937972D02*
X12625539Y-15957019D01*
X12625539Y-15957019D02*
X12625539Y-16004638D01*
X12625539Y-16004638D02*
X12616015Y-16023686D01*
X12616015Y-16023686D02*
X12606491Y-16033210D01*
X12606491Y-16033210D02*
X12587443Y-16042734D01*
X12587443Y-16042734D02*
X12530301Y-16042734D01*
X12530301Y-16042734D02*
X12511253Y-16033210D01*
X12511253Y-16033210D02*
X12501729Y-16023686D01*
X12711253Y-16023686D02*
X12720777Y-16033210D01*
X12720777Y-16033210D02*
X12711253Y-16042734D01*
X12711253Y-16042734D02*
X12701729Y-16033210D01*
X12701729Y-16033210D02*
X12711253Y-16023686D01*
X12711253Y-16023686D02*
X12711253Y-16042734D01*
X12796967Y-15861781D02*
X12806491Y-15852258D01*
X12806491Y-15852258D02*
X12825539Y-15842734D01*
X12825539Y-15842734D02*
X12873158Y-15842734D01*
X12873158Y-15842734D02*
X12892205Y-15852258D01*
X12892205Y-15852258D02*
X12901729Y-15861781D01*
X12901729Y-15861781D02*
X12911253Y-15880829D01*
X12911253Y-15880829D02*
X12911253Y-15899877D01*
X12911253Y-15899877D02*
X12901729Y-15928448D01*
X12901729Y-15928448D02*
X12787443Y-16042734D01*
X12787443Y-16042734D02*
X12911253Y-16042734D01*
X13035062Y-15842734D02*
X13054110Y-15842734D01*
X13054110Y-15842734D02*
X13073158Y-15852258D01*
X13073158Y-15852258D02*
X13082682Y-15861781D01*
X13082682Y-15861781D02*
X13092205Y-15880829D01*
X13092205Y-15880829D02*
X13101729Y-15918924D01*
X13101729Y-15918924D02*
X13101729Y-15966543D01*
X13101729Y-15966543D02*
X13092205Y-16004638D01*
X13092205Y-16004638D02*
X13082682Y-16023686D01*
X13082682Y-16023686D02*
X13073158Y-16033210D01*
X13073158Y-16033210D02*
X13054110Y-16042734D01*
X13054110Y-16042734D02*
X13035062Y-16042734D01*
X13035062Y-16042734D02*
X13016015Y-16033210D01*
X13016015Y-16033210D02*
X13006491Y-16023686D01*
X13006491Y-16023686D02*
X12996967Y-16004638D01*
X12996967Y-16004638D02*
X12987443Y-15966543D01*
X12987443Y-15966543D02*
X12987443Y-15918924D01*
X12987443Y-15918924D02*
X12996967Y-15880829D01*
X12996967Y-15880829D02*
X13006491Y-15861781D01*
X13006491Y-15861781D02*
X13016015Y-15852258D01*
X13016015Y-15852258D02*
X13035062Y-15842734D01*
X13225539Y-15842734D02*
X13244586Y-15842734D01*
X13244586Y-15842734D02*
X13263634Y-15852258D01*
X13263634Y-15852258D02*
X13273158Y-15861781D01*
X13273158Y-15861781D02*
X13282682Y-15880829D01*
X13282682Y-15880829D02*
X13292205Y-15918924D01*
X13292205Y-15918924D02*
X13292205Y-15966543D01*
X13292205Y-15966543D02*
X13282682Y-16004638D01*
X13282682Y-16004638D02*
X13273158Y-16023686D01*
X13273158Y-16023686D02*
X13263634Y-16033210D01*
X13263634Y-16033210D02*
X13244586Y-16042734D01*
X13244586Y-16042734D02*
X13225539Y-16042734D01*
X13225539Y-16042734D02*
X13206491Y-16033210D01*
X13206491Y-16033210D02*
X13196967Y-16023686D01*
X13196967Y-16023686D02*
X13187443Y-16004638D01*
X13187443Y-16004638D02*
X13177920Y-15966543D01*
X13177920Y-15966543D02*
X13177920Y-15918924D01*
X13177920Y-15918924D02*
X13187443Y-15880829D01*
X13187443Y-15880829D02*
X13196967Y-15861781D01*
X13196967Y-15861781D02*
X13206491Y-15852258D01*
X13206491Y-15852258D02*
X13225539Y-15842734D01*
X13377920Y-16042734D02*
X13377920Y-15909400D01*
X13377920Y-15928448D02*
X13387443Y-15918924D01*
X13387443Y-15918924D02*
X13406491Y-15909400D01*
X13406491Y-15909400D02*
X13435063Y-15909400D01*
X13435063Y-15909400D02*
X13454110Y-15918924D01*
X13454110Y-15918924D02*
X13463634Y-15937972D01*
X13463634Y-15937972D02*
X13463634Y-16042734D01*
X13463634Y-15937972D02*
X13473158Y-15918924D01*
X13473158Y-15918924D02*
X13492205Y-15909400D01*
X13492205Y-15909400D02*
X13520777Y-15909400D01*
X13520777Y-15909400D02*
X13539824Y-15918924D01*
X13539824Y-15918924D02*
X13549348Y-15937972D01*
X13549348Y-15937972D02*
X13549348Y-16042734D01*
X13644586Y-16042734D02*
X13644586Y-15909400D01*
X13644586Y-15928448D02*
X13654110Y-15918924D01*
X13654110Y-15918924D02*
X13673158Y-15909400D01*
X13673158Y-15909400D02*
X13701729Y-15909400D01*
X13701729Y-15909400D02*
X13720777Y-15918924D01*
X13720777Y-15918924D02*
X13730301Y-15937972D01*
X13730301Y-15937972D02*
X13730301Y-16042734D01*
X13730301Y-15937972D02*
X13739824Y-15918924D01*
X13739824Y-15918924D02*
X13758872Y-15909400D01*
X13758872Y-15909400D02*
X13787443Y-15909400D01*
X13787443Y-15909400D02*
X13806491Y-15918924D01*
X13806491Y-15918924D02*
X13816015Y-15937972D01*
X13816015Y-15937972D02*
X13816015Y-16042734D01*
X14206491Y-15833210D02*
X14035063Y-16090353D01*
X14463634Y-15842734D02*
X14482682Y-15842734D01*
X14482682Y-15842734D02*
X14501729Y-15852258D01*
X14501729Y-15852258D02*
X14511253Y-15861781D01*
X14511253Y-15861781D02*
X14520777Y-15880829D01*
X14520777Y-15880829D02*
X14530301Y-15918924D01*
X14530301Y-15918924D02*
X14530301Y-15966543D01*
X14530301Y-15966543D02*
X14520777Y-16004638D01*
X14520777Y-16004638D02*
X14511253Y-16023686D01*
X14511253Y-16023686D02*
X14501729Y-16033210D01*
X14501729Y-16033210D02*
X14482682Y-16042734D01*
X14482682Y-16042734D02*
X14463634Y-16042734D01*
X14463634Y-16042734D02*
X14444586Y-16033210D01*
X14444586Y-16033210D02*
X14435063Y-16023686D01*
X14435063Y-16023686D02*
X14425539Y-16004638D01*
X14425539Y-16004638D02*
X14416015Y-15966543D01*
X14416015Y-15966543D02*
X14416015Y-15918924D01*
X14416015Y-15918924D02*
X14425539Y-15880829D01*
X14425539Y-15880829D02*
X14435063Y-15861781D01*
X14435063Y-15861781D02*
X14444586Y-15852258D01*
X14444586Y-15852258D02*
X14463634Y-15842734D01*
X14616015Y-16023686D02*
X14625539Y-16033210D01*
X14625539Y-16033210D02*
X14616015Y-16042734D01*
X14616015Y-16042734D02*
X14606491Y-16033210D01*
X14606491Y-16033210D02*
X14616015Y-16023686D01*
X14616015Y-16023686D02*
X14616015Y-16042734D01*
X14816015Y-16042734D02*
X14701729Y-16042734D01*
X14758872Y-16042734D02*
X14758872Y-15842734D01*
X14758872Y-15842734D02*
X14739825Y-15871305D01*
X14739825Y-15871305D02*
X14720777Y-15890353D01*
X14720777Y-15890353D02*
X14701729Y-15899877D01*
X14892206Y-15861781D02*
X14901729Y-15852258D01*
X14901729Y-15852258D02*
X14920777Y-15842734D01*
X14920777Y-15842734D02*
X14968396Y-15842734D01*
X14968396Y-15842734D02*
X14987444Y-15852258D01*
X14987444Y-15852258D02*
X14996967Y-15861781D01*
X14996967Y-15861781D02*
X15006491Y-15880829D01*
X15006491Y-15880829D02*
X15006491Y-15899877D01*
X15006491Y-15899877D02*
X14996967Y-15928448D01*
X14996967Y-15928448D02*
X14882682Y-16042734D01*
X14882682Y-16042734D02*
X15006491Y-16042734D01*
X15177920Y-15842734D02*
X15139825Y-15842734D01*
X15139825Y-15842734D02*
X15120777Y-15852258D01*
X15120777Y-15852258D02*
X15111253Y-15861781D01*
X15111253Y-15861781D02*
X15092206Y-15890353D01*
X15092206Y-15890353D02*
X15082682Y-15928448D01*
X15082682Y-15928448D02*
X15082682Y-16004638D01*
X15082682Y-16004638D02*
X15092206Y-16023686D01*
X15092206Y-16023686D02*
X15101729Y-16033210D01*
X15101729Y-16033210D02*
X15120777Y-16042734D01*
X15120777Y-16042734D02*
X15158872Y-16042734D01*
X15158872Y-16042734D02*
X15177920Y-16033210D01*
X15177920Y-16033210D02*
X15187444Y-16023686D01*
X15187444Y-16023686D02*
X15196967Y-16004638D01*
X15196967Y-16004638D02*
X15196967Y-15957019D01*
X15196967Y-15957019D02*
X15187444Y-15937972D01*
X15187444Y-15937972D02*
X15177920Y-15928448D01*
X15177920Y-15928448D02*
X15158872Y-15918924D01*
X15158872Y-15918924D02*
X15120777Y-15918924D01*
X15120777Y-15918924D02*
X15101729Y-15928448D01*
X15101729Y-15928448D02*
X15092206Y-15937972D01*
X15092206Y-15937972D02*
X15082682Y-15957019D01*
X15320777Y-15842734D02*
X15339825Y-15842734D01*
X15339825Y-15842734D02*
X15358872Y-15852258D01*
X15358872Y-15852258D02*
X15368396Y-15861781D01*
X15368396Y-15861781D02*
X15377920Y-15880829D01*
X15377920Y-15880829D02*
X15387444Y-15918924D01*
X15387444Y-15918924D02*
X15387444Y-15966543D01*
X15387444Y-15966543D02*
X15377920Y-16004638D01*
X15377920Y-16004638D02*
X15368396Y-16023686D01*
X15368396Y-16023686D02*
X15358872Y-16033210D01*
X15358872Y-16033210D02*
X15339825Y-16042734D01*
X15339825Y-16042734D02*
X15320777Y-16042734D01*
X15320777Y-16042734D02*
X15301729Y-16033210D01*
X15301729Y-16033210D02*
X15292206Y-16023686D01*
X15292206Y-16023686D02*
X15282682Y-16004638D01*
X15282682Y-16004638D02*
X15273158Y-15966543D01*
X15273158Y-15966543D02*
X15273158Y-15918924D01*
X15273158Y-15918924D02*
X15282682Y-15880829D01*
X15282682Y-15880829D02*
X15292206Y-15861781D01*
X15292206Y-15861781D02*
X15301729Y-15852258D01*
X15301729Y-15852258D02*
X15320777Y-15842734D01*
X15463634Y-15842734D02*
X15463634Y-15880829D01*
X15539825Y-15842734D02*
X15539825Y-15880829D01*
X15835063Y-16118924D02*
X15825539Y-16109400D01*
X15825539Y-16109400D02*
X15806491Y-16080829D01*
X15806491Y-16080829D02*
X15796968Y-16061781D01*
X15796968Y-16061781D02*
X15787444Y-16033210D01*
X15787444Y-16033210D02*
X15777920Y-15985591D01*
X15777920Y-15985591D02*
X15777920Y-15947496D01*
X15777920Y-15947496D02*
X15787444Y-15899877D01*
X15787444Y-15899877D02*
X15796968Y-15871305D01*
X15796968Y-15871305D02*
X15806491Y-15852258D01*
X15806491Y-15852258D02*
X15825539Y-15823686D01*
X15825539Y-15823686D02*
X15835063Y-15814162D01*
X15996968Y-15909400D02*
X15996968Y-16042734D01*
X15949348Y-15833210D02*
X15901729Y-15976067D01*
X15901729Y-15976067D02*
X16025539Y-15976067D01*
X16254110Y-16042734D02*
X16254110Y-15842734D01*
X16339825Y-16042734D02*
X16339825Y-15937972D01*
X16339825Y-15937972D02*
X16330301Y-15918924D01*
X16330301Y-15918924D02*
X16311253Y-15909400D01*
X16311253Y-15909400D02*
X16282682Y-15909400D01*
X16282682Y-15909400D02*
X16263634Y-15918924D01*
X16263634Y-15918924D02*
X16254110Y-15928448D01*
X16463634Y-16042734D02*
X16444587Y-16033210D01*
X16444587Y-16033210D02*
X16435063Y-16023686D01*
X16435063Y-16023686D02*
X16425539Y-16004638D01*
X16425539Y-16004638D02*
X16425539Y-15947496D01*
X16425539Y-15947496D02*
X16435063Y-15928448D01*
X16435063Y-15928448D02*
X16444587Y-15918924D01*
X16444587Y-15918924D02*
X16463634Y-15909400D01*
X16463634Y-15909400D02*
X16492206Y-15909400D01*
X16492206Y-15909400D02*
X16511253Y-15918924D01*
X16511253Y-15918924D02*
X16520777Y-15928448D01*
X16520777Y-15928448D02*
X16530301Y-15947496D01*
X16530301Y-15947496D02*
X16530301Y-16004638D01*
X16530301Y-16004638D02*
X16520777Y-16023686D01*
X16520777Y-16023686D02*
X16511253Y-16033210D01*
X16511253Y-16033210D02*
X16492206Y-16042734D01*
X16492206Y-16042734D02*
X16463634Y-16042734D01*
X16644587Y-16042734D02*
X16625539Y-16033210D01*
X16625539Y-16033210D02*
X16616015Y-16014162D01*
X16616015Y-16014162D02*
X16616015Y-15842734D01*
X16796968Y-16033210D02*
X16777920Y-16042734D01*
X16777920Y-16042734D02*
X16739825Y-16042734D01*
X16739825Y-16042734D02*
X16720777Y-16033210D01*
X16720777Y-16033210D02*
X16711253Y-16014162D01*
X16711253Y-16014162D02*
X16711253Y-15937972D01*
X16711253Y-15937972D02*
X16720777Y-15918924D01*
X16720777Y-15918924D02*
X16739825Y-15909400D01*
X16739825Y-15909400D02*
X16777920Y-15909400D01*
X16777920Y-15909400D02*
X16796968Y-15918924D01*
X16796968Y-15918924D02*
X16806492Y-15937972D01*
X16806492Y-15937972D02*
X16806492Y-15957019D01*
X16806492Y-15957019D02*
X16711253Y-15976067D01*
X16882682Y-16033210D02*
X16901730Y-16042734D01*
X16901730Y-16042734D02*
X16939825Y-16042734D01*
X16939825Y-16042734D02*
X16958873Y-16033210D01*
X16958873Y-16033210D02*
X16968396Y-16014162D01*
X16968396Y-16014162D02*
X16968396Y-16004638D01*
X16968396Y-16004638D02*
X16958873Y-15985591D01*
X16958873Y-15985591D02*
X16939825Y-15976067D01*
X16939825Y-15976067D02*
X16911253Y-15976067D01*
X16911253Y-15976067D02*
X16892206Y-15966543D01*
X16892206Y-15966543D02*
X16882682Y-15947496D01*
X16882682Y-15947496D02*
X16882682Y-15937972D01*
X16882682Y-15937972D02*
X16892206Y-15918924D01*
X16892206Y-15918924D02*
X16911253Y-15909400D01*
X16911253Y-15909400D02*
X16939825Y-15909400D01*
X16939825Y-15909400D02*
X16958873Y-15918924D01*
X17035063Y-16118924D02*
X17044587Y-16109400D01*
X17044587Y-16109400D02*
X17063634Y-16080829D01*
X17063634Y-16080829D02*
X17073158Y-16061781D01*
X17073158Y-16061781D02*
X17082682Y-16033210D01*
X17082682Y-16033210D02*
X17092206Y-15985591D01*
X17092206Y-15985591D02*
X17092206Y-15947496D01*
X17092206Y-15947496D02*
X17082682Y-15899877D01*
X17082682Y-15899877D02*
X17073158Y-15871305D01*
X17073158Y-15871305D02*
X17063634Y-15852258D01*
X17063634Y-15852258D02*
X17044587Y-15823686D01*
X17044587Y-15823686D02*
X17035063Y-15814162D01*
M02*
