G04 #@! TF.GenerationSoftware,KiCad,Pcbnew,7.0.6*
G04 #@! TF.CreationDate,2024-05-29T18:09:33+12:00*
G04 #@! TF.ProjectId,flight_computer,666c6967-6874-45f6-936f-6d7075746572,rev?*
G04 #@! TF.SameCoordinates,Original*
G04 #@! TF.FileFunction,Legend,Bot*
G04 #@! TF.FilePolarity,Positive*
%FSLAX46Y46*%
G04 Gerber Fmt 4.6, Leading zero omitted, Abs format (unit mm)*
G04 Created by KiCad (PCBNEW 7.0.6) date 2024-05-29 18:09:33*
%MOMM*%
%LPD*%
G01*
G04 APERTURE LIST*
G04 Aperture macros list*
%AMRoundRect*
0 Rectangle with rounded corners*
0 $1 Rounding radius*
0 $2 $3 $4 $5 $6 $7 $8 $9 X,Y pos of 4 corners*
0 Add a 4 corners polygon primitive as box body*
4,1,4,$2,$3,$4,$5,$6,$7,$8,$9,$2,$3,0*
0 Add four circle primitives for the rounded corners*
1,1,$1+$1,$2,$3*
1,1,$1+$1,$4,$5*
1,1,$1+$1,$6,$7*
1,1,$1+$1,$8,$9*
0 Add four rect primitives between the rounded corners*
20,1,$1+$1,$2,$3,$4,$5,0*
20,1,$1+$1,$4,$5,$6,$7,0*
20,1,$1+$1,$6,$7,$8,$9,0*
20,1,$1+$1,$8,$9,$2,$3,0*%
G04 Aperture macros list end*
%ADD10C,0.150000*%
%ADD11C,0.100000*%
%ADD12C,0.120000*%
%ADD13C,0.800000*%
%ADD14C,6.400000*%
%ADD15R,1.700000X1.700000*%
%ADD16O,1.700000X1.700000*%
%ADD17RoundRect,0.250000X0.350000X0.625000X-0.350000X0.625000X-0.350000X-0.625000X0.350000X-0.625000X0*%
%ADD18O,1.200000X1.750000*%
%ADD19C,2.250000*%
%ADD20C,4.350000*%
%ADD21R,1.524000X1.524000*%
%ADD22C,1.524000*%
%ADD23RoundRect,0.140000X0.140000X0.170000X-0.140000X0.170000X-0.140000X-0.170000X0.140000X-0.170000X0*%
%ADD24RoundRect,0.150000X-0.150000X0.825000X-0.150000X-0.825000X0.150000X-0.825000X0.150000X0.825000X0*%
%ADD25RoundRect,0.135000X-0.135000X-0.185000X0.135000X-0.185000X0.135000X0.185000X-0.135000X0.185000X0*%
%ADD26RoundRect,0.140000X-0.140000X-0.170000X0.140000X-0.170000X0.140000X0.170000X-0.140000X0.170000X0*%
%ADD27RoundRect,0.135000X0.135000X0.185000X-0.135000X0.185000X-0.135000X-0.185000X0.135000X-0.185000X0*%
%ADD28RoundRect,0.135000X-0.185000X0.135000X-0.185000X-0.135000X0.185000X-0.135000X0.185000X0.135000X0*%
%ADD29RoundRect,0.140000X0.170000X-0.140000X0.170000X0.140000X-0.170000X0.140000X-0.170000X-0.140000X0*%
%ADD30RoundRect,0.140000X-0.170000X0.140000X-0.170000X-0.140000X0.170000X-0.140000X0.170000X0.140000X0*%
G04 APERTURE END LIST*
D10*
X136745714Y-80909366D02*
X136774286Y-80942700D01*
X136774286Y-80942700D02*
X136860000Y-80976033D01*
X136860000Y-80976033D02*
X136917143Y-80976033D01*
X136917143Y-80976033D02*
X137002857Y-80942700D01*
X137002857Y-80942700D02*
X137060000Y-80876033D01*
X137060000Y-80876033D02*
X137088571Y-80809366D01*
X137088571Y-80809366D02*
X137117143Y-80676033D01*
X137117143Y-80676033D02*
X137117143Y-80576033D01*
X137117143Y-80576033D02*
X137088571Y-80442700D01*
X137088571Y-80442700D02*
X137060000Y-80376033D01*
X137060000Y-80376033D02*
X137002857Y-80309366D01*
X137002857Y-80309366D02*
X136917143Y-80276033D01*
X136917143Y-80276033D02*
X136860000Y-80276033D01*
X136860000Y-80276033D02*
X136774286Y-80309366D01*
X136774286Y-80309366D02*
X136745714Y-80342700D01*
X136545714Y-80276033D02*
X136174286Y-80276033D01*
X136174286Y-80276033D02*
X136374286Y-80542700D01*
X136374286Y-80542700D02*
X136288571Y-80542700D01*
X136288571Y-80542700D02*
X136231429Y-80576033D01*
X136231429Y-80576033D02*
X136202857Y-80609366D01*
X136202857Y-80609366D02*
X136174286Y-80676033D01*
X136174286Y-80676033D02*
X136174286Y-80842700D01*
X136174286Y-80842700D02*
X136202857Y-80909366D01*
X136202857Y-80909366D02*
X136231429Y-80942700D01*
X136231429Y-80942700D02*
X136288571Y-80976033D01*
X136288571Y-80976033D02*
X136460000Y-80976033D01*
X136460000Y-80976033D02*
X136517143Y-80942700D01*
X136517143Y-80942700D02*
X136545714Y-80909366D01*
X135660000Y-80276033D02*
X135774285Y-80276033D01*
X135774285Y-80276033D02*
X135831428Y-80309366D01*
X135831428Y-80309366D02*
X135860000Y-80342700D01*
X135860000Y-80342700D02*
X135917142Y-80442700D01*
X135917142Y-80442700D02*
X135945714Y-80576033D01*
X135945714Y-80576033D02*
X135945714Y-80842700D01*
X135945714Y-80842700D02*
X135917142Y-80909366D01*
X135917142Y-80909366D02*
X135888571Y-80942700D01*
X135888571Y-80942700D02*
X135831428Y-80976033D01*
X135831428Y-80976033D02*
X135717142Y-80976033D01*
X135717142Y-80976033D02*
X135660000Y-80942700D01*
X135660000Y-80942700D02*
X135631428Y-80909366D01*
X135631428Y-80909366D02*
X135602857Y-80842700D01*
X135602857Y-80842700D02*
X135602857Y-80676033D01*
X135602857Y-80676033D02*
X135631428Y-80609366D01*
X135631428Y-80609366D02*
X135660000Y-80576033D01*
X135660000Y-80576033D02*
X135717142Y-80542700D01*
X135717142Y-80542700D02*
X135831428Y-80542700D01*
X135831428Y-80542700D02*
X135888571Y-80576033D01*
X135888571Y-80576033D02*
X135917142Y-80609366D01*
X135917142Y-80609366D02*
X135945714Y-80676033D01*
X141916033Y-87342857D02*
X142482700Y-87342857D01*
X142482700Y-87342857D02*
X142549366Y-87371428D01*
X142549366Y-87371428D02*
X142582700Y-87400000D01*
X142582700Y-87400000D02*
X142616033Y-87457142D01*
X142616033Y-87457142D02*
X142616033Y-87571428D01*
X142616033Y-87571428D02*
X142582700Y-87628571D01*
X142582700Y-87628571D02*
X142549366Y-87657142D01*
X142549366Y-87657142D02*
X142482700Y-87685714D01*
X142482700Y-87685714D02*
X141916033Y-87685714D01*
X142216033Y-88057142D02*
X142182700Y-87999999D01*
X142182700Y-87999999D02*
X142149366Y-87971428D01*
X142149366Y-87971428D02*
X142082700Y-87942856D01*
X142082700Y-87942856D02*
X142049366Y-87942856D01*
X142049366Y-87942856D02*
X141982700Y-87971428D01*
X141982700Y-87971428D02*
X141949366Y-87999999D01*
X141949366Y-87999999D02*
X141916033Y-88057142D01*
X141916033Y-88057142D02*
X141916033Y-88171428D01*
X141916033Y-88171428D02*
X141949366Y-88228571D01*
X141949366Y-88228571D02*
X141982700Y-88257142D01*
X141982700Y-88257142D02*
X142049366Y-88285713D01*
X142049366Y-88285713D02*
X142082700Y-88285713D01*
X142082700Y-88285713D02*
X142149366Y-88257142D01*
X142149366Y-88257142D02*
X142182700Y-88228571D01*
X142182700Y-88228571D02*
X142216033Y-88171428D01*
X142216033Y-88171428D02*
X142216033Y-88057142D01*
X142216033Y-88057142D02*
X142249366Y-87999999D01*
X142249366Y-87999999D02*
X142282700Y-87971428D01*
X142282700Y-87971428D02*
X142349366Y-87942856D01*
X142349366Y-87942856D02*
X142482700Y-87942856D01*
X142482700Y-87942856D02*
X142549366Y-87971428D01*
X142549366Y-87971428D02*
X142582700Y-87999999D01*
X142582700Y-87999999D02*
X142616033Y-88057142D01*
X142616033Y-88057142D02*
X142616033Y-88171428D01*
X142616033Y-88171428D02*
X142582700Y-88228571D01*
X142582700Y-88228571D02*
X142549366Y-88257142D01*
X142549366Y-88257142D02*
X142482700Y-88285713D01*
X142482700Y-88285713D02*
X142349366Y-88285713D01*
X142349366Y-88285713D02*
X142282700Y-88257142D01*
X142282700Y-88257142D02*
X142249366Y-88228571D01*
X142249366Y-88228571D02*
X142216033Y-88171428D01*
X128085714Y-97316033D02*
X128285714Y-96982700D01*
X128428571Y-97316033D02*
X128428571Y-96616033D01*
X128428571Y-96616033D02*
X128200000Y-96616033D01*
X128200000Y-96616033D02*
X128142857Y-96649366D01*
X128142857Y-96649366D02*
X128114286Y-96682700D01*
X128114286Y-96682700D02*
X128085714Y-96749366D01*
X128085714Y-96749366D02*
X128085714Y-96849366D01*
X128085714Y-96849366D02*
X128114286Y-96916033D01*
X128114286Y-96916033D02*
X128142857Y-96949366D01*
X128142857Y-96949366D02*
X128200000Y-96982700D01*
X128200000Y-96982700D02*
X128428571Y-96982700D01*
X127857143Y-96682700D02*
X127828571Y-96649366D01*
X127828571Y-96649366D02*
X127771429Y-96616033D01*
X127771429Y-96616033D02*
X127628571Y-96616033D01*
X127628571Y-96616033D02*
X127571429Y-96649366D01*
X127571429Y-96649366D02*
X127542857Y-96682700D01*
X127542857Y-96682700D02*
X127514286Y-96749366D01*
X127514286Y-96749366D02*
X127514286Y-96816033D01*
X127514286Y-96816033D02*
X127542857Y-96916033D01*
X127542857Y-96916033D02*
X127885714Y-97316033D01*
X127885714Y-97316033D02*
X127514286Y-97316033D01*
X127000000Y-96616033D02*
X127114285Y-96616033D01*
X127114285Y-96616033D02*
X127171428Y-96649366D01*
X127171428Y-96649366D02*
X127200000Y-96682700D01*
X127200000Y-96682700D02*
X127257142Y-96782700D01*
X127257142Y-96782700D02*
X127285714Y-96916033D01*
X127285714Y-96916033D02*
X127285714Y-97182700D01*
X127285714Y-97182700D02*
X127257142Y-97249366D01*
X127257142Y-97249366D02*
X127228571Y-97282700D01*
X127228571Y-97282700D02*
X127171428Y-97316033D01*
X127171428Y-97316033D02*
X127057142Y-97316033D01*
X127057142Y-97316033D02*
X127000000Y-97282700D01*
X127000000Y-97282700D02*
X126971428Y-97249366D01*
X126971428Y-97249366D02*
X126942857Y-97182700D01*
X126942857Y-97182700D02*
X126942857Y-97016033D01*
X126942857Y-97016033D02*
X126971428Y-96949366D01*
X126971428Y-96949366D02*
X127000000Y-96916033D01*
X127000000Y-96916033D02*
X127057142Y-96882700D01*
X127057142Y-96882700D02*
X127171428Y-96882700D01*
X127171428Y-96882700D02*
X127228571Y-96916033D01*
X127228571Y-96916033D02*
X127257142Y-96949366D01*
X127257142Y-96949366D02*
X127285714Y-97016033D01*
X139445714Y-78909366D02*
X139474286Y-78942700D01*
X139474286Y-78942700D02*
X139560000Y-78976033D01*
X139560000Y-78976033D02*
X139617143Y-78976033D01*
X139617143Y-78976033D02*
X139702857Y-78942700D01*
X139702857Y-78942700D02*
X139760000Y-78876033D01*
X139760000Y-78876033D02*
X139788571Y-78809366D01*
X139788571Y-78809366D02*
X139817143Y-78676033D01*
X139817143Y-78676033D02*
X139817143Y-78576033D01*
X139817143Y-78576033D02*
X139788571Y-78442700D01*
X139788571Y-78442700D02*
X139760000Y-78376033D01*
X139760000Y-78376033D02*
X139702857Y-78309366D01*
X139702857Y-78309366D02*
X139617143Y-78276033D01*
X139617143Y-78276033D02*
X139560000Y-78276033D01*
X139560000Y-78276033D02*
X139474286Y-78309366D01*
X139474286Y-78309366D02*
X139445714Y-78342700D01*
X139245714Y-78276033D02*
X138874286Y-78276033D01*
X138874286Y-78276033D02*
X139074286Y-78542700D01*
X139074286Y-78542700D02*
X138988571Y-78542700D01*
X138988571Y-78542700D02*
X138931429Y-78576033D01*
X138931429Y-78576033D02*
X138902857Y-78609366D01*
X138902857Y-78609366D02*
X138874286Y-78676033D01*
X138874286Y-78676033D02*
X138874286Y-78842700D01*
X138874286Y-78842700D02*
X138902857Y-78909366D01*
X138902857Y-78909366D02*
X138931429Y-78942700D01*
X138931429Y-78942700D02*
X138988571Y-78976033D01*
X138988571Y-78976033D02*
X139160000Y-78976033D01*
X139160000Y-78976033D02*
X139217143Y-78942700D01*
X139217143Y-78942700D02*
X139245714Y-78909366D01*
X138360000Y-78509366D02*
X138360000Y-78976033D01*
X138502857Y-78242700D02*
X138645714Y-78742700D01*
X138645714Y-78742700D02*
X138274285Y-78742700D01*
X142299999Y-118009366D02*
X142328571Y-118042700D01*
X142328571Y-118042700D02*
X142414285Y-118076033D01*
X142414285Y-118076033D02*
X142471428Y-118076033D01*
X142471428Y-118076033D02*
X142557142Y-118042700D01*
X142557142Y-118042700D02*
X142614285Y-117976033D01*
X142614285Y-117976033D02*
X142642856Y-117909366D01*
X142642856Y-117909366D02*
X142671428Y-117776033D01*
X142671428Y-117776033D02*
X142671428Y-117676033D01*
X142671428Y-117676033D02*
X142642856Y-117542700D01*
X142642856Y-117542700D02*
X142614285Y-117476033D01*
X142614285Y-117476033D02*
X142557142Y-117409366D01*
X142557142Y-117409366D02*
X142471428Y-117376033D01*
X142471428Y-117376033D02*
X142414285Y-117376033D01*
X142414285Y-117376033D02*
X142328571Y-117409366D01*
X142328571Y-117409366D02*
X142299999Y-117442700D01*
X142099999Y-117376033D02*
X141699999Y-117376033D01*
X141699999Y-117376033D02*
X141957142Y-118076033D01*
X142145714Y-80909366D02*
X142174286Y-80942700D01*
X142174286Y-80942700D02*
X142260000Y-80976033D01*
X142260000Y-80976033D02*
X142317143Y-80976033D01*
X142317143Y-80976033D02*
X142402857Y-80942700D01*
X142402857Y-80942700D02*
X142460000Y-80876033D01*
X142460000Y-80876033D02*
X142488571Y-80809366D01*
X142488571Y-80809366D02*
X142517143Y-80676033D01*
X142517143Y-80676033D02*
X142517143Y-80576033D01*
X142517143Y-80576033D02*
X142488571Y-80442700D01*
X142488571Y-80442700D02*
X142460000Y-80376033D01*
X142460000Y-80376033D02*
X142402857Y-80309366D01*
X142402857Y-80309366D02*
X142317143Y-80276033D01*
X142317143Y-80276033D02*
X142260000Y-80276033D01*
X142260000Y-80276033D02*
X142174286Y-80309366D01*
X142174286Y-80309366D02*
X142145714Y-80342700D01*
X141945714Y-80276033D02*
X141574286Y-80276033D01*
X141574286Y-80276033D02*
X141774286Y-80542700D01*
X141774286Y-80542700D02*
X141688571Y-80542700D01*
X141688571Y-80542700D02*
X141631429Y-80576033D01*
X141631429Y-80576033D02*
X141602857Y-80609366D01*
X141602857Y-80609366D02*
X141574286Y-80676033D01*
X141574286Y-80676033D02*
X141574286Y-80842700D01*
X141574286Y-80842700D02*
X141602857Y-80909366D01*
X141602857Y-80909366D02*
X141631429Y-80942700D01*
X141631429Y-80942700D02*
X141688571Y-80976033D01*
X141688571Y-80976033D02*
X141860000Y-80976033D01*
X141860000Y-80976033D02*
X141917143Y-80942700D01*
X141917143Y-80942700D02*
X141945714Y-80909366D01*
X141031428Y-80276033D02*
X141317142Y-80276033D01*
X141317142Y-80276033D02*
X141345714Y-80609366D01*
X141345714Y-80609366D02*
X141317142Y-80576033D01*
X141317142Y-80576033D02*
X141260000Y-80542700D01*
X141260000Y-80542700D02*
X141117142Y-80542700D01*
X141117142Y-80542700D02*
X141060000Y-80576033D01*
X141060000Y-80576033D02*
X141031428Y-80609366D01*
X141031428Y-80609366D02*
X141002857Y-80676033D01*
X141002857Y-80676033D02*
X141002857Y-80842700D01*
X141002857Y-80842700D02*
X141031428Y-80909366D01*
X141031428Y-80909366D02*
X141060000Y-80942700D01*
X141060000Y-80942700D02*
X141117142Y-80976033D01*
X141117142Y-80976033D02*
X141260000Y-80976033D01*
X141260000Y-80976033D02*
X141317142Y-80942700D01*
X141317142Y-80942700D02*
X141345714Y-80909366D01*
D11*
X148792580Y-111383333D02*
X148078295Y-111383333D01*
X148078295Y-111383333D02*
X147935438Y-111430952D01*
X147935438Y-111430952D02*
X147840200Y-111526190D01*
X147840200Y-111526190D02*
X147792580Y-111669047D01*
X147792580Y-111669047D02*
X147792580Y-111764285D01*
X148792580Y-111002380D02*
X148792580Y-110335714D01*
X148792580Y-110335714D02*
X147792580Y-110764285D01*
D10*
X127685714Y-103916033D02*
X127885714Y-103582700D01*
X128028571Y-103916033D02*
X128028571Y-103216033D01*
X128028571Y-103216033D02*
X127800000Y-103216033D01*
X127800000Y-103216033D02*
X127742857Y-103249366D01*
X127742857Y-103249366D02*
X127714286Y-103282700D01*
X127714286Y-103282700D02*
X127685714Y-103349366D01*
X127685714Y-103349366D02*
X127685714Y-103449366D01*
X127685714Y-103449366D02*
X127714286Y-103516033D01*
X127714286Y-103516033D02*
X127742857Y-103549366D01*
X127742857Y-103549366D02*
X127800000Y-103582700D01*
X127800000Y-103582700D02*
X128028571Y-103582700D01*
X127457143Y-103282700D02*
X127428571Y-103249366D01*
X127428571Y-103249366D02*
X127371429Y-103216033D01*
X127371429Y-103216033D02*
X127228571Y-103216033D01*
X127228571Y-103216033D02*
X127171429Y-103249366D01*
X127171429Y-103249366D02*
X127142857Y-103282700D01*
X127142857Y-103282700D02*
X127114286Y-103349366D01*
X127114286Y-103349366D02*
X127114286Y-103416033D01*
X127114286Y-103416033D02*
X127142857Y-103516033D01*
X127142857Y-103516033D02*
X127485714Y-103916033D01*
X127485714Y-103916033D02*
X127114286Y-103916033D01*
X126771428Y-103516033D02*
X126828571Y-103482700D01*
X126828571Y-103482700D02*
X126857142Y-103449366D01*
X126857142Y-103449366D02*
X126885714Y-103382700D01*
X126885714Y-103382700D02*
X126885714Y-103349366D01*
X126885714Y-103349366D02*
X126857142Y-103282700D01*
X126857142Y-103282700D02*
X126828571Y-103249366D01*
X126828571Y-103249366D02*
X126771428Y-103216033D01*
X126771428Y-103216033D02*
X126657142Y-103216033D01*
X126657142Y-103216033D02*
X126600000Y-103249366D01*
X126600000Y-103249366D02*
X126571428Y-103282700D01*
X126571428Y-103282700D02*
X126542857Y-103349366D01*
X126542857Y-103349366D02*
X126542857Y-103382700D01*
X126542857Y-103382700D02*
X126571428Y-103449366D01*
X126571428Y-103449366D02*
X126600000Y-103482700D01*
X126600000Y-103482700D02*
X126657142Y-103516033D01*
X126657142Y-103516033D02*
X126771428Y-103516033D01*
X126771428Y-103516033D02*
X126828571Y-103549366D01*
X126828571Y-103549366D02*
X126857142Y-103582700D01*
X126857142Y-103582700D02*
X126885714Y-103649366D01*
X126885714Y-103649366D02*
X126885714Y-103782700D01*
X126885714Y-103782700D02*
X126857142Y-103849366D01*
X126857142Y-103849366D02*
X126828571Y-103882700D01*
X126828571Y-103882700D02*
X126771428Y-103916033D01*
X126771428Y-103916033D02*
X126657142Y-103916033D01*
X126657142Y-103916033D02*
X126600000Y-103882700D01*
X126600000Y-103882700D02*
X126571428Y-103849366D01*
X126571428Y-103849366D02*
X126542857Y-103782700D01*
X126542857Y-103782700D02*
X126542857Y-103649366D01*
X126542857Y-103649366D02*
X126571428Y-103582700D01*
X126571428Y-103582700D02*
X126600000Y-103549366D01*
X126600000Y-103549366D02*
X126657142Y-103516033D01*
X136806033Y-78774285D02*
X136472700Y-78574285D01*
X136806033Y-78431428D02*
X136106033Y-78431428D01*
X136106033Y-78431428D02*
X136106033Y-78659999D01*
X136106033Y-78659999D02*
X136139366Y-78717142D01*
X136139366Y-78717142D02*
X136172700Y-78745713D01*
X136172700Y-78745713D02*
X136239366Y-78774285D01*
X136239366Y-78774285D02*
X136339366Y-78774285D01*
X136339366Y-78774285D02*
X136406033Y-78745713D01*
X136406033Y-78745713D02*
X136439366Y-78717142D01*
X136439366Y-78717142D02*
X136472700Y-78659999D01*
X136472700Y-78659999D02*
X136472700Y-78431428D01*
X136172700Y-79002856D02*
X136139366Y-79031428D01*
X136139366Y-79031428D02*
X136106033Y-79088571D01*
X136106033Y-79088571D02*
X136106033Y-79231428D01*
X136106033Y-79231428D02*
X136139366Y-79288571D01*
X136139366Y-79288571D02*
X136172700Y-79317142D01*
X136172700Y-79317142D02*
X136239366Y-79345713D01*
X136239366Y-79345713D02*
X136306033Y-79345713D01*
X136306033Y-79345713D02*
X136406033Y-79317142D01*
X136406033Y-79317142D02*
X136806033Y-78974285D01*
X136806033Y-78974285D02*
X136806033Y-79345713D01*
X136106033Y-79888571D02*
X136106033Y-79602857D01*
X136106033Y-79602857D02*
X136439366Y-79574285D01*
X136439366Y-79574285D02*
X136406033Y-79602857D01*
X136406033Y-79602857D02*
X136372700Y-79660000D01*
X136372700Y-79660000D02*
X136372700Y-79802857D01*
X136372700Y-79802857D02*
X136406033Y-79860000D01*
X136406033Y-79860000D02*
X136439366Y-79888571D01*
X136439366Y-79888571D02*
X136506033Y-79917142D01*
X136506033Y-79917142D02*
X136672700Y-79917142D01*
X136672700Y-79917142D02*
X136739366Y-79888571D01*
X136739366Y-79888571D02*
X136772700Y-79860000D01*
X136772700Y-79860000D02*
X136806033Y-79802857D01*
X136806033Y-79802857D02*
X136806033Y-79660000D01*
X136806033Y-79660000D02*
X136772700Y-79602857D01*
X136772700Y-79602857D02*
X136739366Y-79574285D01*
X127485714Y-101716033D02*
X127685714Y-101382700D01*
X127828571Y-101716033D02*
X127828571Y-101016033D01*
X127828571Y-101016033D02*
X127600000Y-101016033D01*
X127600000Y-101016033D02*
X127542857Y-101049366D01*
X127542857Y-101049366D02*
X127514286Y-101082700D01*
X127514286Y-101082700D02*
X127485714Y-101149366D01*
X127485714Y-101149366D02*
X127485714Y-101249366D01*
X127485714Y-101249366D02*
X127514286Y-101316033D01*
X127514286Y-101316033D02*
X127542857Y-101349366D01*
X127542857Y-101349366D02*
X127600000Y-101382700D01*
X127600000Y-101382700D02*
X127828571Y-101382700D01*
X127257143Y-101082700D02*
X127228571Y-101049366D01*
X127228571Y-101049366D02*
X127171429Y-101016033D01*
X127171429Y-101016033D02*
X127028571Y-101016033D01*
X127028571Y-101016033D02*
X126971429Y-101049366D01*
X126971429Y-101049366D02*
X126942857Y-101082700D01*
X126942857Y-101082700D02*
X126914286Y-101149366D01*
X126914286Y-101149366D02*
X126914286Y-101216033D01*
X126914286Y-101216033D02*
X126942857Y-101316033D01*
X126942857Y-101316033D02*
X127285714Y-101716033D01*
X127285714Y-101716033D02*
X126914286Y-101716033D01*
X126628571Y-101716033D02*
X126514285Y-101716033D01*
X126514285Y-101716033D02*
X126457142Y-101682700D01*
X126457142Y-101682700D02*
X126428571Y-101649366D01*
X126428571Y-101649366D02*
X126371428Y-101549366D01*
X126371428Y-101549366D02*
X126342857Y-101416033D01*
X126342857Y-101416033D02*
X126342857Y-101149366D01*
X126342857Y-101149366D02*
X126371428Y-101082700D01*
X126371428Y-101082700D02*
X126400000Y-101049366D01*
X126400000Y-101049366D02*
X126457142Y-101016033D01*
X126457142Y-101016033D02*
X126571428Y-101016033D01*
X126571428Y-101016033D02*
X126628571Y-101049366D01*
X126628571Y-101049366D02*
X126657142Y-101082700D01*
X126657142Y-101082700D02*
X126685714Y-101149366D01*
X126685714Y-101149366D02*
X126685714Y-101316033D01*
X126685714Y-101316033D02*
X126657142Y-101382700D01*
X126657142Y-101382700D02*
X126628571Y-101416033D01*
X126628571Y-101416033D02*
X126571428Y-101449366D01*
X126571428Y-101449366D02*
X126457142Y-101449366D01*
X126457142Y-101449366D02*
X126400000Y-101416033D01*
X126400000Y-101416033D02*
X126371428Y-101382700D01*
X126371428Y-101382700D02*
X126342857Y-101316033D01*
X124049366Y-98614285D02*
X124082700Y-98585713D01*
X124082700Y-98585713D02*
X124116033Y-98499999D01*
X124116033Y-98499999D02*
X124116033Y-98442856D01*
X124116033Y-98442856D02*
X124082700Y-98357142D01*
X124082700Y-98357142D02*
X124016033Y-98299999D01*
X124016033Y-98299999D02*
X123949366Y-98271428D01*
X123949366Y-98271428D02*
X123816033Y-98242856D01*
X123816033Y-98242856D02*
X123716033Y-98242856D01*
X123716033Y-98242856D02*
X123582700Y-98271428D01*
X123582700Y-98271428D02*
X123516033Y-98299999D01*
X123516033Y-98299999D02*
X123449366Y-98357142D01*
X123449366Y-98357142D02*
X123416033Y-98442856D01*
X123416033Y-98442856D02*
X123416033Y-98499999D01*
X123416033Y-98499999D02*
X123449366Y-98585713D01*
X123449366Y-98585713D02*
X123482700Y-98614285D01*
X123416033Y-98814285D02*
X123416033Y-99185713D01*
X123416033Y-99185713D02*
X123682700Y-98985713D01*
X123682700Y-98985713D02*
X123682700Y-99071428D01*
X123682700Y-99071428D02*
X123716033Y-99128571D01*
X123716033Y-99128571D02*
X123749366Y-99157142D01*
X123749366Y-99157142D02*
X123816033Y-99185713D01*
X123816033Y-99185713D02*
X123982700Y-99185713D01*
X123982700Y-99185713D02*
X124049366Y-99157142D01*
X124049366Y-99157142D02*
X124082700Y-99128571D01*
X124082700Y-99128571D02*
X124116033Y-99071428D01*
X124116033Y-99071428D02*
X124116033Y-98899999D01*
X124116033Y-98899999D02*
X124082700Y-98842856D01*
X124082700Y-98842856D02*
X124049366Y-98814285D01*
X124116033Y-99471428D02*
X124116033Y-99585714D01*
X124116033Y-99585714D02*
X124082700Y-99642857D01*
X124082700Y-99642857D02*
X124049366Y-99671428D01*
X124049366Y-99671428D02*
X123949366Y-99728571D01*
X123949366Y-99728571D02*
X123816033Y-99757142D01*
X123816033Y-99757142D02*
X123549366Y-99757142D01*
X123549366Y-99757142D02*
X123482700Y-99728571D01*
X123482700Y-99728571D02*
X123449366Y-99700000D01*
X123449366Y-99700000D02*
X123416033Y-99642857D01*
X123416033Y-99642857D02*
X123416033Y-99528571D01*
X123416033Y-99528571D02*
X123449366Y-99471428D01*
X123449366Y-99471428D02*
X123482700Y-99442857D01*
X123482700Y-99442857D02*
X123549366Y-99414285D01*
X123549366Y-99414285D02*
X123716033Y-99414285D01*
X123716033Y-99414285D02*
X123782700Y-99442857D01*
X123782700Y-99442857D02*
X123816033Y-99471428D01*
X123816033Y-99471428D02*
X123849366Y-99528571D01*
X123849366Y-99528571D02*
X123849366Y-99642857D01*
X123849366Y-99642857D02*
X123816033Y-99700000D01*
X123816033Y-99700000D02*
X123782700Y-99728571D01*
X123782700Y-99728571D02*
X123716033Y-99757142D01*
X143549366Y-82014285D02*
X143582700Y-81985713D01*
X143582700Y-81985713D02*
X143616033Y-81899999D01*
X143616033Y-81899999D02*
X143616033Y-81842856D01*
X143616033Y-81842856D02*
X143582700Y-81757142D01*
X143582700Y-81757142D02*
X143516033Y-81699999D01*
X143516033Y-81699999D02*
X143449366Y-81671428D01*
X143449366Y-81671428D02*
X143316033Y-81642856D01*
X143316033Y-81642856D02*
X143216033Y-81642856D01*
X143216033Y-81642856D02*
X143082700Y-81671428D01*
X143082700Y-81671428D02*
X143016033Y-81699999D01*
X143016033Y-81699999D02*
X142949366Y-81757142D01*
X142949366Y-81757142D02*
X142916033Y-81842856D01*
X142916033Y-81842856D02*
X142916033Y-81899999D01*
X142916033Y-81899999D02*
X142949366Y-81985713D01*
X142949366Y-81985713D02*
X142982700Y-82014285D01*
X142916033Y-82214285D02*
X142916033Y-82585713D01*
X142916033Y-82585713D02*
X143182700Y-82385713D01*
X143182700Y-82385713D02*
X143182700Y-82471428D01*
X143182700Y-82471428D02*
X143216033Y-82528571D01*
X143216033Y-82528571D02*
X143249366Y-82557142D01*
X143249366Y-82557142D02*
X143316033Y-82585713D01*
X143316033Y-82585713D02*
X143482700Y-82585713D01*
X143482700Y-82585713D02*
X143549366Y-82557142D01*
X143549366Y-82557142D02*
X143582700Y-82528571D01*
X143582700Y-82528571D02*
X143616033Y-82471428D01*
X143616033Y-82471428D02*
X143616033Y-82299999D01*
X143616033Y-82299999D02*
X143582700Y-82242856D01*
X143582700Y-82242856D02*
X143549366Y-82214285D01*
X142916033Y-82785714D02*
X142916033Y-83157142D01*
X142916033Y-83157142D02*
X143182700Y-82957142D01*
X143182700Y-82957142D02*
X143182700Y-83042857D01*
X143182700Y-83042857D02*
X143216033Y-83100000D01*
X143216033Y-83100000D02*
X143249366Y-83128571D01*
X143249366Y-83128571D02*
X143316033Y-83157142D01*
X143316033Y-83157142D02*
X143482700Y-83157142D01*
X143482700Y-83157142D02*
X143549366Y-83128571D01*
X143549366Y-83128571D02*
X143582700Y-83100000D01*
X143582700Y-83100000D02*
X143616033Y-83042857D01*
X143616033Y-83042857D02*
X143616033Y-82871428D01*
X143616033Y-82871428D02*
X143582700Y-82814285D01*
X143582700Y-82814285D02*
X143549366Y-82785714D01*
X128085714Y-96216033D02*
X128285714Y-95882700D01*
X128428571Y-96216033D02*
X128428571Y-95516033D01*
X128428571Y-95516033D02*
X128200000Y-95516033D01*
X128200000Y-95516033D02*
X128142857Y-95549366D01*
X128142857Y-95549366D02*
X128114286Y-95582700D01*
X128114286Y-95582700D02*
X128085714Y-95649366D01*
X128085714Y-95649366D02*
X128085714Y-95749366D01*
X128085714Y-95749366D02*
X128114286Y-95816033D01*
X128114286Y-95816033D02*
X128142857Y-95849366D01*
X128142857Y-95849366D02*
X128200000Y-95882700D01*
X128200000Y-95882700D02*
X128428571Y-95882700D01*
X127857143Y-95582700D02*
X127828571Y-95549366D01*
X127828571Y-95549366D02*
X127771429Y-95516033D01*
X127771429Y-95516033D02*
X127628571Y-95516033D01*
X127628571Y-95516033D02*
X127571429Y-95549366D01*
X127571429Y-95549366D02*
X127542857Y-95582700D01*
X127542857Y-95582700D02*
X127514286Y-95649366D01*
X127514286Y-95649366D02*
X127514286Y-95716033D01*
X127514286Y-95716033D02*
X127542857Y-95816033D01*
X127542857Y-95816033D02*
X127885714Y-96216033D01*
X127885714Y-96216033D02*
X127514286Y-96216033D01*
X127314285Y-95516033D02*
X126914285Y-95516033D01*
X126914285Y-95516033D02*
X127171428Y-96216033D01*
X127485714Y-102816033D02*
X127685714Y-102482700D01*
X127828571Y-102816033D02*
X127828571Y-102116033D01*
X127828571Y-102116033D02*
X127600000Y-102116033D01*
X127600000Y-102116033D02*
X127542857Y-102149366D01*
X127542857Y-102149366D02*
X127514286Y-102182700D01*
X127514286Y-102182700D02*
X127485714Y-102249366D01*
X127485714Y-102249366D02*
X127485714Y-102349366D01*
X127485714Y-102349366D02*
X127514286Y-102416033D01*
X127514286Y-102416033D02*
X127542857Y-102449366D01*
X127542857Y-102449366D02*
X127600000Y-102482700D01*
X127600000Y-102482700D02*
X127828571Y-102482700D01*
X127285714Y-102116033D02*
X126914286Y-102116033D01*
X126914286Y-102116033D02*
X127114286Y-102382700D01*
X127114286Y-102382700D02*
X127028571Y-102382700D01*
X127028571Y-102382700D02*
X126971429Y-102416033D01*
X126971429Y-102416033D02*
X126942857Y-102449366D01*
X126942857Y-102449366D02*
X126914286Y-102516033D01*
X126914286Y-102516033D02*
X126914286Y-102682700D01*
X126914286Y-102682700D02*
X126942857Y-102749366D01*
X126942857Y-102749366D02*
X126971429Y-102782700D01*
X126971429Y-102782700D02*
X127028571Y-102816033D01*
X127028571Y-102816033D02*
X127200000Y-102816033D01*
X127200000Y-102816033D02*
X127257143Y-102782700D01*
X127257143Y-102782700D02*
X127285714Y-102749366D01*
X126542857Y-102116033D02*
X126485714Y-102116033D01*
X126485714Y-102116033D02*
X126428571Y-102149366D01*
X126428571Y-102149366D02*
X126400000Y-102182700D01*
X126400000Y-102182700D02*
X126371428Y-102249366D01*
X126371428Y-102249366D02*
X126342857Y-102382700D01*
X126342857Y-102382700D02*
X126342857Y-102549366D01*
X126342857Y-102549366D02*
X126371428Y-102682700D01*
X126371428Y-102682700D02*
X126400000Y-102749366D01*
X126400000Y-102749366D02*
X126428571Y-102782700D01*
X126428571Y-102782700D02*
X126485714Y-102816033D01*
X126485714Y-102816033D02*
X126542857Y-102816033D01*
X126542857Y-102816033D02*
X126600000Y-102782700D01*
X126600000Y-102782700D02*
X126628571Y-102749366D01*
X126628571Y-102749366D02*
X126657142Y-102682700D01*
X126657142Y-102682700D02*
X126685714Y-102549366D01*
X126685714Y-102549366D02*
X126685714Y-102382700D01*
X126685714Y-102382700D02*
X126657142Y-102249366D01*
X126657142Y-102249366D02*
X126628571Y-102182700D01*
X126628571Y-102182700D02*
X126600000Y-102149366D01*
X126600000Y-102149366D02*
X126542857Y-102116033D01*
X141776033Y-78774285D02*
X141442700Y-78574285D01*
X141776033Y-78431428D02*
X141076033Y-78431428D01*
X141076033Y-78431428D02*
X141076033Y-78659999D01*
X141076033Y-78659999D02*
X141109366Y-78717142D01*
X141109366Y-78717142D02*
X141142700Y-78745713D01*
X141142700Y-78745713D02*
X141209366Y-78774285D01*
X141209366Y-78774285D02*
X141309366Y-78774285D01*
X141309366Y-78774285D02*
X141376033Y-78745713D01*
X141376033Y-78745713D02*
X141409366Y-78717142D01*
X141409366Y-78717142D02*
X141442700Y-78659999D01*
X141442700Y-78659999D02*
X141442700Y-78431428D01*
X141142700Y-79002856D02*
X141109366Y-79031428D01*
X141109366Y-79031428D02*
X141076033Y-79088571D01*
X141076033Y-79088571D02*
X141076033Y-79231428D01*
X141076033Y-79231428D02*
X141109366Y-79288571D01*
X141109366Y-79288571D02*
X141142700Y-79317142D01*
X141142700Y-79317142D02*
X141209366Y-79345713D01*
X141209366Y-79345713D02*
X141276033Y-79345713D01*
X141276033Y-79345713D02*
X141376033Y-79317142D01*
X141376033Y-79317142D02*
X141776033Y-78974285D01*
X141776033Y-78974285D02*
X141776033Y-79345713D01*
X141309366Y-79860000D02*
X141776033Y-79860000D01*
X141042700Y-79717142D02*
X141542700Y-79574285D01*
X141542700Y-79574285D02*
X141542700Y-79945714D01*
G36*
X160584445Y-86798345D02*
G01*
X160584445Y-88164420D01*
X159218369Y-88164420D01*
X157852294Y-88164420D01*
X157852294Y-87774113D01*
X158242601Y-87774113D01*
X159218369Y-87774113D01*
X160194137Y-87774113D01*
X160194137Y-86798345D01*
X160194137Y-85822576D01*
X159218369Y-85822576D01*
X158242601Y-85822576D01*
X158242601Y-86798345D01*
X158242601Y-87774113D01*
X157852294Y-87774113D01*
X157852294Y-86798345D01*
X157852294Y-85432269D01*
X159218369Y-85432269D01*
X160584445Y-85432269D01*
X160584445Y-85822576D01*
X160584445Y-86798345D01*
G37*
G36*
X157461986Y-84276359D02*
G01*
X157461986Y-85041962D01*
X157461986Y-85822576D01*
X157266833Y-85822576D01*
X157071679Y-85822576D01*
X157071679Y-85627423D01*
X157071679Y-85432269D01*
X156891537Y-85432269D01*
X156711395Y-85432269D01*
X156711395Y-86017730D01*
X156711395Y-86603191D01*
X156891537Y-86603191D01*
X157071679Y-86603191D01*
X157071679Y-86408037D01*
X157071679Y-86212884D01*
X157266833Y-86212884D01*
X157461986Y-86212884D01*
X157461986Y-87188652D01*
X157461986Y-88164420D01*
X157086691Y-88164420D01*
X156711395Y-88164420D01*
X156711395Y-87969267D01*
X156711395Y-87774113D01*
X156891537Y-87774113D01*
X157071679Y-87774113D01*
X157071679Y-87578959D01*
X157071679Y-87383806D01*
X156891537Y-87383806D01*
X156711395Y-87383806D01*
X156711395Y-86993498D01*
X156711395Y-86603191D01*
X156516242Y-86603191D01*
X156321088Y-86603191D01*
X156321088Y-85822576D01*
X156321088Y-85041962D01*
X156696383Y-85041962D01*
X157071679Y-85041962D01*
X157071679Y-84846808D01*
X157071679Y-84651654D01*
X156891537Y-84651654D01*
X156711395Y-84651654D01*
X156711395Y-84471513D01*
X156711395Y-84291371D01*
X156516242Y-84291371D01*
X156321088Y-84291371D01*
X156321088Y-84666666D01*
X156321088Y-85041962D01*
X156125934Y-85041962D01*
X155930781Y-85041962D01*
X155930781Y-84666666D01*
X155930781Y-84291371D01*
X155735627Y-84291371D01*
X155540473Y-84291371D01*
X155540473Y-84096217D01*
X155540473Y-83901063D01*
X155930781Y-83901063D01*
X156321088Y-83901063D01*
X156711395Y-83901063D01*
X156891537Y-83901063D01*
X157071679Y-83901063D01*
X157071679Y-83705910D01*
X157071679Y-83510756D01*
X156891537Y-83510756D01*
X156711395Y-83510756D01*
X156711395Y-83705910D01*
X156711395Y-83901063D01*
X156321088Y-83901063D01*
X156321088Y-83510756D01*
X156321088Y-83120449D01*
X156696383Y-83120449D01*
X157071679Y-83120449D01*
X157071679Y-82925295D01*
X157071679Y-82730141D01*
X157266833Y-82730141D01*
X157461986Y-82730141D01*
X157461986Y-83510756D01*
X157461986Y-84276359D01*
G37*
G36*
X156516242Y-77686170D02*
G01*
X156711395Y-77686170D01*
X156711395Y-77295863D01*
X156711395Y-76905555D01*
X156891537Y-76905555D01*
X157071679Y-76905555D01*
X157071679Y-77100709D01*
X157071679Y-77295863D01*
X157266833Y-77295863D01*
X157461986Y-77295863D01*
X157461986Y-77491016D01*
X157461986Y-77686170D01*
X157266833Y-77686170D01*
X157071679Y-77686170D01*
X157071679Y-77881324D01*
X157071679Y-78076477D01*
X157266833Y-78076477D01*
X157461986Y-78076477D01*
X157461986Y-78271631D01*
X157461986Y-78466785D01*
X157086691Y-78466785D01*
X156711395Y-78466785D01*
X156711395Y-79052245D01*
X156711395Y-79637706D01*
X156516242Y-79637706D01*
X156321088Y-79637706D01*
X156321088Y-79052245D01*
X156321088Y-78466785D01*
X156516242Y-78466785D01*
X156711395Y-78466785D01*
X156711395Y-78271631D01*
X156711395Y-78076477D01*
X156516242Y-78076477D01*
X156321088Y-78076477D01*
X156321088Y-78271631D01*
X156321088Y-78466785D01*
X156125934Y-78466785D01*
X155930781Y-78466785D01*
X155930781Y-78661938D01*
X155930781Y-78857092D01*
X155345320Y-78857092D01*
X154759859Y-78857092D01*
X154759859Y-79052245D01*
X154759859Y-79247399D01*
X154564705Y-79247399D01*
X154369551Y-79247399D01*
X154369551Y-79637706D01*
X154369551Y-80028014D01*
X154564705Y-80028014D01*
X154759859Y-80028014D01*
X154759859Y-79637706D01*
X154759859Y-79247399D01*
X154955012Y-79247399D01*
X155150166Y-79247399D01*
X155150166Y-80013002D01*
X155150166Y-80418321D01*
X155150166Y-80778605D01*
X155735627Y-80778605D01*
X156321088Y-80778605D01*
X156321088Y-80973758D01*
X156321088Y-81168912D01*
X156516242Y-81168912D01*
X156711395Y-81168912D01*
X156711395Y-80793617D01*
X156711395Y-80418321D01*
X156516242Y-80418321D01*
X156321088Y-80418321D01*
X156321088Y-80223167D01*
X156321088Y-80028014D01*
X157281844Y-80028014D01*
X158242601Y-80028014D01*
X158242601Y-80223167D01*
X158242601Y-80418321D01*
X158437755Y-80418321D01*
X158632908Y-80418321D01*
X158632908Y-80223167D01*
X158632908Y-80028014D01*
X159608676Y-80028014D01*
X160584445Y-80028014D01*
X160584445Y-80223167D01*
X160584445Y-80418321D01*
X160194137Y-80418321D01*
X159803830Y-80418321D01*
X159803830Y-80598463D01*
X159803830Y-80778605D01*
X159608676Y-80778605D01*
X159413523Y-80778605D01*
X159413523Y-80598463D01*
X159413523Y-80418321D01*
X159218369Y-80418321D01*
X159023215Y-80418321D01*
X159023215Y-80793617D01*
X159023215Y-81168912D01*
X158437755Y-81168912D01*
X157852294Y-81168912D01*
X157852294Y-80973758D01*
X157852294Y-80778605D01*
X158047447Y-80778605D01*
X158242601Y-80778605D01*
X158242601Y-80598463D01*
X158242601Y-80418321D01*
X158047447Y-80418321D01*
X157852294Y-80418321D01*
X157852294Y-80598463D01*
X157852294Y-80778605D01*
X157657140Y-80778605D01*
X157461986Y-80778605D01*
X157461986Y-80598463D01*
X157461986Y-80418321D01*
X157266833Y-80418321D01*
X157071679Y-80418321D01*
X157071679Y-81379078D01*
X157071679Y-82339834D01*
X156696383Y-82339834D01*
X156321088Y-82339834D01*
X156321088Y-82144680D01*
X156321088Y-81949527D01*
X156516242Y-81949527D01*
X156711395Y-81949527D01*
X156711395Y-81754373D01*
X156711395Y-81559219D01*
X156516242Y-81559219D01*
X156321088Y-81559219D01*
X156321088Y-81754373D01*
X156321088Y-81949527D01*
X156125934Y-81949527D01*
X155930781Y-81949527D01*
X155930781Y-81559219D01*
X155930781Y-81168912D01*
X155540473Y-81168912D01*
X155150166Y-81168912D01*
X155150166Y-81364066D01*
X155150166Y-81559219D01*
X155345320Y-81559219D01*
X155540473Y-81559219D01*
X155540473Y-81754373D01*
X155540473Y-81949527D01*
X155150166Y-81949527D01*
X154759859Y-81949527D01*
X154759859Y-82144680D01*
X154759859Y-82339834D01*
X155150166Y-82339834D01*
X155540473Y-82339834D01*
X155540473Y-82534988D01*
X155540473Y-82730141D01*
X155345320Y-82730141D01*
X155150166Y-82730141D01*
X155150166Y-83120449D01*
X155150166Y-83510756D01*
X155345320Y-83510756D01*
X155540473Y-83510756D01*
X155540473Y-83705910D01*
X155540473Y-83901063D01*
X155150166Y-83901063D01*
X154759859Y-83901063D01*
X154759859Y-83705910D01*
X154759859Y-83510756D01*
X154564705Y-83510756D01*
X154369551Y-83510756D01*
X154369551Y-83315602D01*
X154369551Y-83120449D01*
X154174398Y-83120449D01*
X153979244Y-83120449D01*
X153979244Y-82925295D01*
X153979244Y-82730141D01*
X154174398Y-82730141D01*
X154369551Y-82730141D01*
X154369551Y-82534988D01*
X154369551Y-82339834D01*
X154174398Y-82339834D01*
X153979244Y-82339834D01*
X153979244Y-82144680D01*
X153979244Y-81949527D01*
X153784090Y-81949527D01*
X153588937Y-81949527D01*
X153588937Y-82339834D01*
X153588937Y-82730141D01*
X153393783Y-82730141D01*
X153198629Y-82730141D01*
X153198629Y-82534988D01*
X153198629Y-82339834D01*
X153018487Y-82339834D01*
X152838346Y-82339834D01*
X152838346Y-82730141D01*
X152838346Y-83120449D01*
X152643192Y-83120449D01*
X152448038Y-83120449D01*
X152448038Y-82730141D01*
X152448038Y-82339834D01*
X152252885Y-82339834D01*
X152057731Y-82339834D01*
X152057731Y-82730141D01*
X152057731Y-83120449D01*
X151862577Y-83120449D01*
X151667424Y-83120449D01*
X151667424Y-83315602D01*
X151667424Y-83510756D01*
X151862577Y-83510756D01*
X152057731Y-83510756D01*
X152057731Y-83705910D01*
X152057731Y-83901063D01*
X151862577Y-83901063D01*
X151667424Y-83901063D01*
X151667424Y-84276359D01*
X151667424Y-84651654D01*
X152252885Y-84651654D01*
X152838346Y-84651654D01*
X152838346Y-85041962D01*
X152838346Y-85432269D01*
X153018487Y-85432269D01*
X153198629Y-85432269D01*
X153198629Y-85237115D01*
X153198629Y-85041962D01*
X153393783Y-85041962D01*
X153588937Y-85041962D01*
X153588937Y-85237115D01*
X153588937Y-85432269D01*
X153784090Y-85432269D01*
X153979244Y-85432269D01*
X153979244Y-85627423D01*
X153979244Y-85822576D01*
X153588937Y-85822576D01*
X153198629Y-85822576D01*
X153198629Y-86017730D01*
X153198629Y-86212884D01*
X153018487Y-86212884D01*
X152838346Y-86212884D01*
X152838346Y-86408037D01*
X152838346Y-86603191D01*
X153213641Y-86603191D01*
X153588937Y-86603191D01*
X153588937Y-86408037D01*
X153588937Y-86212884D01*
X153784090Y-86212884D01*
X153979244Y-86212884D01*
X153979244Y-86017730D01*
X153979244Y-85822576D01*
X154174398Y-85822576D01*
X154369551Y-85822576D01*
X154369551Y-86017730D01*
X154369551Y-86212884D01*
X154564705Y-86212884D01*
X154759859Y-86212884D01*
X154759859Y-86017730D01*
X154759859Y-85822576D01*
X154955012Y-85822576D01*
X155150166Y-85822576D01*
X155150166Y-86408037D01*
X155150166Y-86603191D01*
X155150166Y-86993498D01*
X154955012Y-86993498D01*
X154759859Y-86993498D01*
X154759859Y-87188652D01*
X154759859Y-87383806D01*
X154564705Y-87383806D01*
X154369551Y-87383806D01*
X154369551Y-87774113D01*
X154369551Y-88164420D01*
X153603948Y-88164420D01*
X152838346Y-88164420D01*
X152838346Y-87969267D01*
X152838346Y-87774113D01*
X153588937Y-87774113D01*
X153784090Y-87774113D01*
X153979244Y-87774113D01*
X153979244Y-87383806D01*
X153979244Y-86993498D01*
X154369551Y-86993498D01*
X154564705Y-86993498D01*
X154759859Y-86993498D01*
X154759859Y-86798345D01*
X154759859Y-86603191D01*
X154564705Y-86603191D01*
X154369551Y-86603191D01*
X154369551Y-86798345D01*
X154369551Y-86993498D01*
X153979244Y-86993498D01*
X153784090Y-86993498D01*
X153588937Y-86993498D01*
X153588937Y-87383806D01*
X153588937Y-87774113D01*
X152838346Y-87774113D01*
X152643192Y-87774113D01*
X152448038Y-87774113D01*
X152448038Y-87578959D01*
X152448038Y-87383806D01*
X152643192Y-87383806D01*
X152838346Y-87383806D01*
X152838346Y-86993498D01*
X152838346Y-86603191D01*
X152252885Y-86603191D01*
X151667424Y-86603191D01*
X151667424Y-86798345D01*
X151667424Y-86993498D01*
X151862577Y-86993498D01*
X152057731Y-86993498D01*
X152057731Y-87188652D01*
X152057731Y-87383806D01*
X151862577Y-87383806D01*
X151667424Y-87383806D01*
X151667424Y-87774113D01*
X151667424Y-88164420D01*
X150886809Y-88164420D01*
X150106194Y-88164420D01*
X150106194Y-87969267D01*
X150106194Y-87774113D01*
X150301348Y-87774113D01*
X150496502Y-87774113D01*
X150496502Y-87578959D01*
X150496502Y-87383806D01*
X150886809Y-87383806D01*
X150886809Y-87578959D01*
X150886809Y-87774113D01*
X151081963Y-87774113D01*
X151277116Y-87774113D01*
X151277116Y-87578959D01*
X151277116Y-87383806D01*
X151081963Y-87383806D01*
X150886809Y-87383806D01*
X150496502Y-87383806D01*
X150301348Y-87383806D01*
X150106194Y-87383806D01*
X150106194Y-87578959D01*
X150106194Y-87774113D01*
X149911041Y-87774113D01*
X149715887Y-87774113D01*
X149715887Y-87383806D01*
X149715887Y-86993498D01*
X149520733Y-86993498D01*
X149325580Y-86993498D01*
X149325580Y-86408037D01*
X149325580Y-85822576D01*
X149520733Y-85822576D01*
X149715887Y-85822576D01*
X149715887Y-86017730D01*
X149715887Y-86212884D01*
X150106194Y-86212884D01*
X150496502Y-86212884D01*
X150496502Y-86408037D01*
X150496502Y-86603191D01*
X150691655Y-86603191D01*
X150886809Y-86603191D01*
X150886809Y-86798345D01*
X150886809Y-86993498D01*
X151081963Y-86993498D01*
X151277116Y-86993498D01*
X151277116Y-86798345D01*
X151277116Y-86603191D01*
X151081963Y-86603191D01*
X150886809Y-86603191D01*
X150886809Y-86212884D01*
X151277116Y-86212884D01*
X151862577Y-86212884D01*
X152448038Y-86212884D01*
X152448038Y-85627423D01*
X152448038Y-85041962D01*
X151862577Y-85041962D01*
X151277116Y-85041962D01*
X151277116Y-85627423D01*
X151277116Y-86212884D01*
X150886809Y-86212884D01*
X150886809Y-85822576D01*
X150496502Y-85822576D01*
X150106194Y-85822576D01*
X150106194Y-85627423D01*
X150106194Y-85432269D01*
X149715887Y-85432269D01*
X149325580Y-85432269D01*
X149325580Y-85041962D01*
X149325580Y-84651654D01*
X149520733Y-84651654D01*
X149715887Y-84651654D01*
X149715887Y-84471513D01*
X149715887Y-84291371D01*
X149911041Y-84291371D01*
X150106194Y-84291371D01*
X150106194Y-84471513D01*
X150106194Y-84651654D01*
X150301348Y-84651654D01*
X150496502Y-84651654D01*
X150496502Y-84846808D01*
X150496502Y-85041962D01*
X150691655Y-85041962D01*
X150886809Y-85041962D01*
X150886809Y-84666666D01*
X150886809Y-84291371D01*
X151081963Y-84291371D01*
X151277116Y-84291371D01*
X151277116Y-84096217D01*
X151277116Y-83901063D01*
X151081963Y-83901063D01*
X150886809Y-83901063D01*
X150886809Y-83705910D01*
X150886809Y-83510756D01*
X150691655Y-83510756D01*
X150496502Y-83510756D01*
X150496502Y-83901063D01*
X150496502Y-84291371D01*
X150301348Y-84291371D01*
X150106194Y-84291371D01*
X150106194Y-83705910D01*
X150106194Y-83120449D01*
X150496502Y-83120449D01*
X150886809Y-83120449D01*
X150886809Y-83315602D01*
X150886809Y-83510756D01*
X151081963Y-83510756D01*
X151277116Y-83510756D01*
X151277116Y-83315602D01*
X151277116Y-83120449D01*
X151081963Y-83120449D01*
X150886809Y-83120449D01*
X150886809Y-82925295D01*
X150886809Y-82730141D01*
X150496502Y-82730141D01*
X150106194Y-82730141D01*
X150106194Y-82534988D01*
X150106194Y-82339834D01*
X150496502Y-82339834D01*
X150886809Y-82339834D01*
X150886809Y-82534988D01*
X150886809Y-82730141D01*
X151081963Y-82730141D01*
X151277116Y-82730141D01*
X151277116Y-82534988D01*
X151277116Y-82339834D01*
X151081963Y-82339834D01*
X150886809Y-82339834D01*
X150886809Y-82144680D01*
X150886809Y-81949527D01*
X151081963Y-81949527D01*
X151277116Y-81949527D01*
X151277116Y-82144680D01*
X151277116Y-82339834D01*
X151472270Y-82339834D01*
X151667424Y-82339834D01*
X151667424Y-82144680D01*
X151667424Y-81949527D01*
X152057731Y-81949527D01*
X152448038Y-81949527D01*
X152448038Y-82144680D01*
X152448038Y-82339834D01*
X152643192Y-82339834D01*
X152838346Y-82339834D01*
X152838346Y-81949527D01*
X152838346Y-81559219D01*
X152643192Y-81559219D01*
X152448038Y-81559219D01*
X152448038Y-81364066D01*
X152448038Y-81168912D01*
X152823334Y-81168912D01*
X153198629Y-81168912D01*
X153198629Y-81559219D01*
X153198629Y-81949527D01*
X153393783Y-81949527D01*
X153588937Y-81949527D01*
X153588937Y-81754373D01*
X153588937Y-81559219D01*
X153979244Y-81559219D01*
X154369551Y-81559219D01*
X154369551Y-81364066D01*
X154369551Y-81168912D01*
X153979244Y-81168912D01*
X153588937Y-81168912D01*
X153588937Y-80973758D01*
X153588937Y-80778605D01*
X153784090Y-80778605D01*
X153979244Y-80778605D01*
X154369551Y-80778605D01*
X154564705Y-80778605D01*
X154759859Y-80778605D01*
X154759859Y-80598463D01*
X154759859Y-80418321D01*
X154564705Y-80418321D01*
X154369551Y-80418321D01*
X154369551Y-80598463D01*
X154369551Y-80778605D01*
X153979244Y-80778605D01*
X153979244Y-80598463D01*
X153979244Y-80418321D01*
X153784090Y-80418321D01*
X153588937Y-80418321D01*
X153588937Y-80223167D01*
X153588937Y-80028014D01*
X153784090Y-80028014D01*
X153979244Y-80028014D01*
X153979244Y-79637706D01*
X153979244Y-79247399D01*
X153784090Y-79247399D01*
X153588937Y-79247399D01*
X153588937Y-79052245D01*
X153588937Y-78857092D01*
X153979244Y-78857092D01*
X154369551Y-78857092D01*
X154759859Y-78857092D01*
X154759859Y-78661938D01*
X154759859Y-78466785D01*
X154955012Y-78466785D01*
X155150166Y-78466785D01*
X155150166Y-78271631D01*
X155150166Y-78076477D01*
X155345320Y-78076477D01*
X155540473Y-78076477D01*
X155540473Y-78271631D01*
X155540473Y-78466785D01*
X155735627Y-78466785D01*
X155930781Y-78466785D01*
X155930781Y-78076477D01*
X155930781Y-77686170D01*
X155540473Y-77686170D01*
X155150166Y-77686170D01*
X155150166Y-77881324D01*
X155150166Y-78076477D01*
X154955012Y-78076477D01*
X154759859Y-78076477D01*
X154759859Y-78271631D01*
X154759859Y-78466785D01*
X154369551Y-78466785D01*
X153979244Y-78466785D01*
X153979244Y-78661938D01*
X153979244Y-78857092D01*
X153588937Y-78857092D01*
X153213641Y-78857092D01*
X152838346Y-78857092D01*
X152838346Y-79247399D01*
X152838346Y-79637706D01*
X153018487Y-79637706D01*
X153198629Y-79637706D01*
X153198629Y-79442553D01*
X153198629Y-79247399D01*
X153393783Y-79247399D01*
X153588937Y-79247399D01*
X153588937Y-79442553D01*
X153588937Y-79637706D01*
X153393783Y-79637706D01*
X153198629Y-79637706D01*
X153198629Y-79832860D01*
X153198629Y-80028014D01*
X153018487Y-80028014D01*
X152838346Y-80028014D01*
X152838346Y-79832860D01*
X152838346Y-79637706D01*
X152643192Y-79637706D01*
X152448038Y-79637706D01*
X152448038Y-79052245D01*
X152448038Y-78466785D01*
X152643192Y-78466785D01*
X152838346Y-78466785D01*
X152838346Y-78271631D01*
X152838346Y-78076477D01*
X152643192Y-78076477D01*
X152448038Y-78076477D01*
X152448038Y-77491016D01*
X152448038Y-76905555D01*
X153408795Y-76905555D01*
X154369551Y-76905555D01*
X154369551Y-77100709D01*
X154369551Y-77295863D01*
X153603948Y-77295863D01*
X152838346Y-77295863D01*
X152838346Y-77491016D01*
X152838346Y-77686170D01*
X153018487Y-77686170D01*
X153198629Y-77686170D01*
X153198629Y-77881324D01*
X153198629Y-78076477D01*
X153588937Y-78076477D01*
X153979244Y-78076477D01*
X153979244Y-77881324D01*
X153979244Y-77686170D01*
X154174398Y-77686170D01*
X154369551Y-77686170D01*
X154369551Y-77491016D01*
X154369551Y-77295863D01*
X154564705Y-77295863D01*
X154759859Y-77295863D01*
X154759859Y-77100709D01*
X154759859Y-76905555D01*
X154955012Y-76905555D01*
X155150166Y-76905555D01*
X155150166Y-77100709D01*
X155150166Y-77295863D01*
X155735627Y-77295863D01*
X156321088Y-77295863D01*
X156321088Y-77491016D01*
X156321088Y-77686170D01*
X156516242Y-77686170D01*
G37*
G36*
X154955012Y-87383806D02*
G01*
X155150166Y-87383806D01*
X155150166Y-87578959D01*
X155150166Y-87774113D01*
X154955012Y-87774113D01*
X154759859Y-87774113D01*
X154759859Y-87578959D01*
X154759859Y-87383806D01*
X154955012Y-87383806D01*
G37*
G36*
X150106194Y-82925295D02*
G01*
X150106194Y-83120449D01*
X149911041Y-83120449D01*
X149715887Y-83120449D01*
X149715887Y-82925295D01*
X149715887Y-82730141D01*
X149911041Y-82730141D01*
X150106194Y-82730141D01*
X150106194Y-82925295D01*
G37*
G36*
X150106194Y-81364066D02*
G01*
X150106194Y-81559219D01*
X150301348Y-81559219D01*
X150496502Y-81559219D01*
X150496502Y-81364066D01*
X150496502Y-81168912D01*
X150691655Y-81168912D01*
X150886809Y-81168912D01*
X150886809Y-81559219D01*
X150886809Y-81949527D01*
X150496502Y-81949527D01*
X150106194Y-81949527D01*
X150106194Y-81754373D01*
X150106194Y-81559219D01*
X149911041Y-81559219D01*
X149715887Y-81559219D01*
X149715887Y-81364066D01*
X149715887Y-81168912D01*
X149911041Y-81168912D01*
X150106194Y-81168912D01*
X150106194Y-81364066D01*
G37*
G36*
X160389291Y-81168912D02*
G01*
X160584445Y-81168912D01*
X160584445Y-81364066D01*
X160584445Y-81559219D01*
X160389291Y-81559219D01*
X160194137Y-81559219D01*
X160194137Y-81364066D01*
X160194137Y-81168912D01*
X160389291Y-81168912D01*
G37*
G36*
X159998984Y-80778605D02*
G01*
X160194137Y-80778605D01*
X160194137Y-80973758D01*
X160194137Y-81168912D01*
X159998984Y-81168912D01*
X159803830Y-81168912D01*
X159803830Y-80973758D01*
X159803830Y-80778605D01*
X159998984Y-80778605D01*
G37*
G36*
X150886809Y-80223167D02*
G01*
X150886809Y-80418321D01*
X151081963Y-80418321D01*
X151277116Y-80418321D01*
X151277116Y-80223167D01*
X151277116Y-80028014D01*
X151472270Y-80028014D01*
X151667424Y-80028014D01*
X151667424Y-80223167D01*
X151667424Y-80418321D01*
X151862577Y-80418321D01*
X152057731Y-80418321D01*
X152057731Y-80223167D01*
X152057731Y-80028014D01*
X152252885Y-80028014D01*
X152448038Y-80028014D01*
X152448038Y-80223167D01*
X152448038Y-80418321D01*
X152252885Y-80418321D01*
X152057731Y-80418321D01*
X152057731Y-80598463D01*
X152057731Y-80778605D01*
X152252885Y-80778605D01*
X152448038Y-80778605D01*
X152448038Y-80598463D01*
X152448038Y-80418321D01*
X152823334Y-80418321D01*
X153198629Y-80418321D01*
X153198629Y-80598463D01*
X153198629Y-80778605D01*
X152823334Y-80778605D01*
X152448038Y-80778605D01*
X152448038Y-80973758D01*
X152448038Y-81168912D01*
X152057731Y-81168912D01*
X151667424Y-81168912D01*
X151667424Y-80973758D01*
X151667424Y-80778605D01*
X151277116Y-80778605D01*
X150886809Y-80778605D01*
X150886809Y-80598463D01*
X150886809Y-80418321D01*
X150691655Y-80418321D01*
X150496502Y-80418321D01*
X150496502Y-80223167D01*
X150496502Y-80028014D01*
X150691655Y-80028014D01*
X150886809Y-80028014D01*
X150886809Y-80223167D01*
G37*
G36*
X152448038Y-87969267D02*
G01*
X152448038Y-88164420D01*
X152252885Y-88164420D01*
X152057731Y-88164420D01*
X152057731Y-87969267D01*
X152057731Y-87774113D01*
X152252885Y-87774113D01*
X152448038Y-87774113D01*
X152448038Y-87969267D01*
G37*
G36*
X155735627Y-85822576D02*
G01*
X155930781Y-85822576D01*
X155930781Y-86212884D01*
X155930781Y-86603191D01*
X155735627Y-86603191D01*
X155540473Y-86603191D01*
X155540473Y-86212884D01*
X155540473Y-85822576D01*
X155735627Y-85822576D01*
G37*
G36*
X155540473Y-85627423D02*
G01*
X155540473Y-85822576D01*
X155345320Y-85822576D01*
X155150166Y-85822576D01*
X155150166Y-85627423D01*
X155150166Y-85432269D01*
X155345320Y-85432269D01*
X155540473Y-85432269D01*
X155540473Y-85627423D01*
G37*
G36*
X155930781Y-85237115D02*
G01*
X155930781Y-85432269D01*
X155735627Y-85432269D01*
X155540473Y-85432269D01*
X155540473Y-85237115D01*
X155540473Y-85041962D01*
X155735627Y-85041962D01*
X155930781Y-85041962D01*
X155930781Y-85237115D01*
G37*
G36*
X159023215Y-84666666D02*
G01*
X159023215Y-85041962D01*
X158828062Y-85041962D01*
X158632908Y-85041962D01*
X158632908Y-84666666D01*
X158632908Y-84291371D01*
X158828062Y-84291371D01*
X159023215Y-84291371D01*
X159023215Y-84666666D01*
G37*
G36*
X159413523Y-83510756D02*
G01*
X159803830Y-83510756D01*
X159803830Y-83705910D01*
X159803830Y-83901063D01*
X159608676Y-83901063D01*
X159413523Y-83901063D01*
X159413523Y-84096217D01*
X159413523Y-84291371D01*
X159218369Y-84291371D01*
X159023215Y-84291371D01*
X159023215Y-83901063D01*
X159023215Y-83510756D01*
X159413523Y-83510756D01*
G37*
G36*
X160194137Y-82144680D02*
G01*
X160194137Y-82730141D01*
X160389291Y-82730141D01*
X160584445Y-82730141D01*
X160584445Y-82925295D01*
X160584445Y-83120449D01*
X160194137Y-83120449D01*
X159803830Y-83120449D01*
X159803830Y-82925295D01*
X159803830Y-82730141D01*
X159608676Y-82730141D01*
X159413523Y-82730141D01*
X159413523Y-82925295D01*
X159413523Y-83120449D01*
X159218369Y-83120449D01*
X159023215Y-83120449D01*
X159023215Y-83315602D01*
X159023215Y-83510756D01*
X158437755Y-83510756D01*
X157852294Y-83510756D01*
X157852294Y-83315602D01*
X157852294Y-83120449D01*
X158242601Y-83120449D01*
X158632908Y-83120449D01*
X158632908Y-82925295D01*
X158632908Y-82730141D01*
X158047447Y-82730141D01*
X157461986Y-82730141D01*
X157461986Y-82534988D01*
X157461986Y-82339834D01*
X158047447Y-82339834D01*
X158632908Y-82339834D01*
X158632908Y-82534988D01*
X158632908Y-82730141D01*
X158828062Y-82730141D01*
X159023215Y-82730141D01*
X159023215Y-82534988D01*
X159023215Y-82339834D01*
X159218369Y-82339834D01*
X159413523Y-82339834D01*
X159413523Y-82144680D01*
X159413523Y-81949527D01*
X159218369Y-81949527D01*
X159023215Y-81949527D01*
X159023215Y-81754373D01*
X159023215Y-81559219D01*
X159608676Y-81559219D01*
X160194137Y-81559219D01*
X160194137Y-82144680D01*
G37*
G36*
X151667424Y-81364066D02*
G01*
X151667424Y-81559219D01*
X151472270Y-81559219D01*
X151277116Y-81559219D01*
X151277116Y-81364066D01*
X151277116Y-81168912D01*
X151472270Y-81168912D01*
X151667424Y-81168912D01*
X151667424Y-81364066D01*
G37*
G36*
X156321088Y-87578959D02*
G01*
X156321088Y-88164420D01*
X155930781Y-88164420D01*
X155540473Y-88164420D01*
X155540473Y-87969267D01*
X155540473Y-87774113D01*
X155735627Y-87774113D01*
X155930781Y-87774113D01*
X155930781Y-87578959D01*
X155930781Y-87383806D01*
X155735627Y-87383806D01*
X155540473Y-87383806D01*
X155540473Y-87188652D01*
X155540473Y-86993498D01*
X155930781Y-86993498D01*
X156321088Y-86993498D01*
X156321088Y-87578959D01*
G37*
G36*
X160584445Y-84276359D02*
G01*
X160584445Y-85041962D01*
X160389291Y-85041962D01*
X160194137Y-85041962D01*
X160194137Y-84276359D01*
X160194137Y-83510756D01*
X160389291Y-83510756D01*
X160584445Y-83510756D01*
X160584445Y-84276359D01*
G37*
G36*
X158242601Y-84846808D02*
G01*
X158242601Y-85041962D01*
X158047447Y-85041962D01*
X157852294Y-85041962D01*
X157852294Y-84846808D01*
X157852294Y-84651654D01*
X158047447Y-84651654D01*
X158242601Y-84651654D01*
X158242601Y-84846808D01*
G37*
G36*
X158242601Y-84096217D02*
G01*
X158242601Y-84291371D01*
X158047447Y-84291371D01*
X157852294Y-84291371D01*
X157852294Y-84096217D01*
X157852294Y-83901063D01*
X158047447Y-83901063D01*
X158242601Y-83901063D01*
X158242601Y-84096217D01*
G37*
G36*
X149715887Y-83705910D02*
G01*
X149715887Y-83901063D01*
X149520733Y-83901063D01*
X149325580Y-83901063D01*
X149325580Y-83705910D01*
X149325580Y-83510756D01*
X149520733Y-83510756D01*
X149715887Y-83510756D01*
X149715887Y-83705910D01*
G37*
G36*
X149715887Y-82144680D02*
G01*
X149715887Y-82339834D01*
X149520733Y-82339834D01*
X149325580Y-82339834D01*
X149325580Y-82144680D01*
X149325580Y-81949527D01*
X149520733Y-81949527D01*
X149715887Y-81949527D01*
X149715887Y-82144680D01*
G37*
G36*
X149715887Y-80598463D02*
G01*
X149715887Y-80778605D01*
X149520733Y-80778605D01*
X149325580Y-80778605D01*
X149325580Y-80598463D01*
X149325580Y-80418321D01*
X149520733Y-80418321D01*
X149715887Y-80418321D01*
X149715887Y-80598463D01*
G37*
G36*
X150106194Y-80223167D02*
G01*
X150106194Y-80418321D01*
X149911041Y-80418321D01*
X149715887Y-80418321D01*
X149715887Y-80223167D01*
X149715887Y-80028014D01*
X149911041Y-80028014D01*
X150106194Y-80028014D01*
X150106194Y-80223167D01*
G37*
G36*
X155930781Y-79832860D02*
G01*
X155930781Y-80418321D01*
X155735627Y-80418321D01*
X155540473Y-80418321D01*
X155540473Y-79832860D01*
X155540473Y-79247399D01*
X155735627Y-79247399D01*
X155930781Y-79247399D01*
X155930781Y-79832860D01*
G37*
G36*
X160584445Y-78271631D02*
G01*
X160584445Y-79637706D01*
X159218369Y-79637706D01*
X157852294Y-79637706D01*
X157852294Y-79247399D01*
X158242601Y-79247399D01*
X159218369Y-79247399D01*
X160194137Y-79247399D01*
X160194137Y-78271631D01*
X160194137Y-77295863D01*
X159218369Y-77295863D01*
X158242601Y-77295863D01*
X158242601Y-78271631D01*
X158242601Y-79247399D01*
X157852294Y-79247399D01*
X157852294Y-78271631D01*
X157852294Y-76905555D01*
X159218369Y-76905555D01*
X160584445Y-76905555D01*
X160584445Y-77295863D01*
X160584445Y-78271631D01*
G37*
G36*
X157461986Y-79247399D02*
G01*
X157461986Y-79637706D01*
X157266833Y-79637706D01*
X157071679Y-79637706D01*
X157071679Y-79247399D01*
X157071679Y-78857092D01*
X157266833Y-78857092D01*
X157461986Y-78857092D01*
X157461986Y-79247399D01*
G37*
G36*
X152057731Y-78271631D02*
G01*
X152057731Y-79637706D01*
X150691655Y-79637706D01*
X149325580Y-79637706D01*
X149325580Y-79247399D01*
X149715887Y-79247399D01*
X150691655Y-79247399D01*
X151667424Y-79247399D01*
X151667424Y-78271631D01*
X151667424Y-77295863D01*
X150691655Y-77295863D01*
X149715887Y-77295863D01*
X149715887Y-78271631D01*
X149715887Y-79247399D01*
X149325580Y-79247399D01*
X149325580Y-78271631D01*
X149325580Y-76905555D01*
X150691655Y-76905555D01*
X152057731Y-76905555D01*
X152057731Y-77295863D01*
X152057731Y-78271631D01*
G37*
G36*
X159803830Y-86798345D02*
G01*
X159803830Y-87383806D01*
X159218369Y-87383806D01*
X158632908Y-87383806D01*
X158632908Y-86798345D01*
X158632908Y-86212884D01*
X159218369Y-86212884D01*
X159803830Y-86212884D01*
X159803830Y-86798345D01*
G37*
G36*
X154759859Y-85627423D02*
G01*
X154759859Y-85822576D01*
X154564705Y-85822576D01*
X154369551Y-85822576D01*
X154369551Y-85627423D01*
X154369551Y-85432269D01*
X154564705Y-85432269D01*
X154759859Y-85432269D01*
X154759859Y-85627423D01*
G37*
G36*
X154174398Y-83510756D02*
G01*
X154369551Y-83510756D01*
X154369551Y-83705910D01*
X154369551Y-83901063D01*
X154564705Y-83901063D01*
X154759859Y-83901063D01*
X154759859Y-84276359D01*
X154759859Y-84651654D01*
X154564705Y-84651654D01*
X154369551Y-84651654D01*
X154369551Y-84846808D01*
X154369551Y-85041962D01*
X153979244Y-85041962D01*
X153588937Y-85041962D01*
X153588937Y-84846808D01*
X153588937Y-84651654D01*
X153213641Y-84651654D01*
X152838346Y-84651654D01*
X152838346Y-84471513D01*
X152838346Y-84291371D01*
X153213641Y-84291371D01*
X153588937Y-84291371D01*
X153588937Y-84471513D01*
X153588937Y-84651654D01*
X153784090Y-84651654D01*
X153979244Y-84651654D01*
X153979244Y-84081205D01*
X153979244Y-83510756D01*
X154174398Y-83510756D01*
G37*
G36*
X155150166Y-84651654D02*
G01*
X155540473Y-84651654D01*
X155540473Y-84846808D01*
X155540473Y-85041962D01*
X155150166Y-85041962D01*
X154759859Y-85041962D01*
X154759859Y-84846808D01*
X154759859Y-84651654D01*
X155150166Y-84651654D01*
G37*
G36*
X153979244Y-83315602D02*
G01*
X153979244Y-83510756D01*
X153784090Y-83510756D01*
X153588937Y-83510756D01*
X153588937Y-83315602D01*
X153588937Y-83120449D01*
X153784090Y-83120449D01*
X153979244Y-83120449D01*
X153979244Y-83315602D01*
G37*
G36*
X153198629Y-83705910D02*
G01*
X153198629Y-83901063D01*
X152823334Y-83901063D01*
X152448038Y-83901063D01*
X152448038Y-83705910D01*
X152448038Y-83510756D01*
X152823334Y-83510756D01*
X153198629Y-83510756D01*
X153198629Y-83705910D01*
G37*
G36*
X155930781Y-83120449D02*
G01*
X155930781Y-83510756D01*
X155735627Y-83510756D01*
X155540473Y-83510756D01*
X155540473Y-83120449D01*
X155540473Y-82730141D01*
X155735627Y-82730141D01*
X155930781Y-82730141D01*
X155930781Y-83120449D01*
G37*
G36*
X158828062Y-81949527D02*
G01*
X159023215Y-81949527D01*
X159023215Y-82144680D01*
X159023215Y-82339834D01*
X158828062Y-82339834D01*
X158632908Y-82339834D01*
X158632908Y-82144680D01*
X158632908Y-81949527D01*
X158828062Y-81949527D01*
G37*
G36*
X158632908Y-81754373D02*
G01*
X158632908Y-81949527D01*
X158242601Y-81949527D01*
X157852294Y-81949527D01*
X157852294Y-81754373D01*
X157852294Y-81559219D01*
X158242601Y-81559219D01*
X158632908Y-81559219D01*
X158632908Y-81754373D01*
G37*
G36*
X155930781Y-82144680D02*
G01*
X155930781Y-82339834D01*
X155735627Y-82339834D01*
X155540473Y-82339834D01*
X155540473Y-82144680D01*
X155540473Y-81949527D01*
X155735627Y-81949527D01*
X155930781Y-81949527D01*
X155930781Y-82144680D01*
G37*
G36*
X152057731Y-85627423D02*
G01*
X152057731Y-85822576D01*
X151862577Y-85822576D01*
X151667424Y-85822576D01*
X151667424Y-85627423D01*
X151667424Y-85432269D01*
X151862577Y-85432269D01*
X152057731Y-85432269D01*
X152057731Y-85627423D01*
G37*
G36*
X159803830Y-78271631D02*
G01*
X159803830Y-78857092D01*
X159218369Y-78857092D01*
X158632908Y-78857092D01*
X158632908Y-78271631D01*
X158632908Y-77686170D01*
X159218369Y-77686170D01*
X159803830Y-77686170D01*
X159803830Y-78271631D01*
G37*
G36*
X151277116Y-78271631D02*
G01*
X151277116Y-78857092D01*
X150691655Y-78857092D01*
X150106194Y-78857092D01*
X150106194Y-78271631D01*
X150106194Y-77686170D01*
X150691655Y-77686170D01*
X151277116Y-77686170D01*
X151277116Y-78271631D01*
G37*
D12*
X138267836Y-81020000D02*
X138052164Y-81020000D01*
X138267836Y-80300000D02*
X138052164Y-80300000D01*
X141560000Y-84900000D02*
X141560000Y-82950000D01*
X141560000Y-84900000D02*
X141560000Y-86850000D01*
X136440000Y-84900000D02*
X136440000Y-81450000D01*
X136440000Y-84900000D02*
X136440000Y-86850000D01*
X130046359Y-96620000D02*
X130353641Y-96620000D01*
X130046359Y-97380000D02*
X130353641Y-97380000D01*
X139167836Y-80020000D02*
X138952164Y-80020000D01*
X139167836Y-79300000D02*
X138952164Y-79300000D01*
X142092164Y-116240000D02*
X142307836Y-116240000D01*
X142092164Y-116960000D02*
X142307836Y-116960000D01*
X140087836Y-81020000D02*
X139872164Y-81020000D01*
X140087836Y-80300000D02*
X139872164Y-80300000D01*
X140780000Y-132180000D02*
X140780000Y-129520000D01*
X156080000Y-132180000D02*
X140780000Y-132180000D01*
X156080000Y-132180000D02*
X156080000Y-129520000D01*
X157350000Y-132180000D02*
X158680000Y-132180000D01*
X158680000Y-132180000D02*
X158680000Y-130850000D01*
X156080000Y-129520000D02*
X140780000Y-129520000D01*
X148400000Y-93680000D02*
X148400000Y-91020000D01*
X156080000Y-93680000D02*
X148400000Y-93680000D01*
X156080000Y-93680000D02*
X156080000Y-91020000D01*
X157350000Y-93680000D02*
X158680000Y-93680000D01*
X158680000Y-93680000D02*
X158680000Y-92350000D01*
X156080000Y-91020000D02*
X148400000Y-91020000D01*
D11*
X162450000Y-133750000D02*
X136950000Y-133750000D01*
X136950000Y-133750000D02*
X136950000Y-89250000D01*
X136950000Y-89250000D02*
X162450000Y-89250000D01*
X162450000Y-89250000D02*
X162450000Y-133750000D01*
D12*
X124953641Y-103980000D02*
X124646359Y-103980000D01*
X124953641Y-103220000D02*
X124646359Y-103220000D01*
X138040000Y-79006359D02*
X138040000Y-79313641D01*
X137280000Y-79006359D02*
X137280000Y-79313641D01*
X124953641Y-102880000D02*
X124646359Y-102880000D01*
X124953641Y-102120000D02*
X124646359Y-102120000D01*
X124440000Y-99107836D02*
X124440000Y-98892164D01*
X125160000Y-99107836D02*
X125160000Y-98892164D01*
X142624500Y-82272164D02*
X142624500Y-82487836D01*
X141904500Y-82272164D02*
X141904500Y-82487836D01*
X130046359Y-95520000D02*
X130353641Y-95520000D01*
X130046359Y-96280000D02*
X130353641Y-96280000D01*
X124953641Y-101780000D02*
X124646359Y-101780000D01*
X124953641Y-101020000D02*
X124646359Y-101020000D01*
X140840000Y-79006359D02*
X140840000Y-79313641D01*
X140080000Y-79006359D02*
X140080000Y-79313641D01*
%LPC*%
D13*
X123752944Y-71462500D03*
X124455888Y-69765444D03*
X124455888Y-73159556D03*
X126152944Y-69062500D03*
D14*
X126152944Y-71462500D03*
D13*
X126152944Y-73862500D03*
X127850000Y-69765444D03*
X127850000Y-73159556D03*
X128552944Y-71462500D03*
D15*
X150160000Y-126140000D03*
D16*
X150160000Y-123600000D03*
X152700000Y-126140000D03*
X152700000Y-123600000D03*
X155240000Y-126140000D03*
X155240000Y-123600000D03*
X157780000Y-126140000D03*
X157780000Y-123600000D03*
X160320000Y-126140000D03*
X160320000Y-123600000D03*
D17*
X160120000Y-74750000D03*
D18*
X158120000Y-74750000D03*
D13*
X123752944Y-130462500D03*
X124455888Y-128765444D03*
X124455888Y-132159556D03*
X126152944Y-128062500D03*
D14*
X126152944Y-130462500D03*
D13*
X126152944Y-132862500D03*
X127850000Y-128765444D03*
X127850000Y-132159556D03*
X128552944Y-130462500D03*
D15*
X136500000Y-92300000D03*
X131500000Y-92300000D03*
D19*
X142950000Y-85062500D03*
X135050000Y-85062500D03*
D20*
X139000000Y-74812500D03*
D15*
X153800000Y-118900000D03*
X145600000Y-128100000D03*
D21*
X125200000Y-114500000D03*
D22*
X130200000Y-114500000D03*
D15*
X149700000Y-111500000D03*
D13*
X163722944Y-71462500D03*
X164425888Y-69765444D03*
X164425888Y-73159556D03*
X166122944Y-69062500D03*
D14*
X166122944Y-71462500D03*
D13*
X166122944Y-73862500D03*
X167820000Y-69765444D03*
X167820000Y-73159556D03*
X168522944Y-71462500D03*
D15*
X141500000Y-128100000D03*
X153800000Y-115300000D03*
D13*
X163752944Y-130462500D03*
X164455888Y-128765444D03*
X164455888Y-132159556D03*
X166152944Y-128062500D03*
D14*
X166152944Y-130462500D03*
D13*
X166152944Y-132862500D03*
X167850000Y-128765444D03*
X167850000Y-132159556D03*
X168552944Y-130462500D03*
D23*
X138640000Y-80660000D03*
X137680000Y-80660000D03*
D24*
X137095000Y-82425000D03*
X138365000Y-82425000D03*
X139635000Y-82425000D03*
X140905000Y-82425000D03*
X140905000Y-87375000D03*
X139635000Y-87375000D03*
X138365000Y-87375000D03*
X137095000Y-87375000D03*
D25*
X129690000Y-97000000D03*
X130710000Y-97000000D03*
D23*
X139540000Y-79660000D03*
X138580000Y-79660000D03*
D26*
X141720000Y-116600000D03*
X142680000Y-116600000D03*
D23*
X140460000Y-80660000D03*
X139500000Y-80660000D03*
D15*
X157350000Y-130850000D03*
D16*
X154810000Y-130850000D03*
X152270000Y-130850000D03*
X149730000Y-130850000D03*
X147190000Y-130850000D03*
X144650000Y-130850000D03*
X142110000Y-130850000D03*
X149730000Y-92350000D03*
X152270000Y-92350000D03*
X154810000Y-92350000D03*
D15*
X157350000Y-92350000D03*
D27*
X125310000Y-103600000D03*
X124290000Y-103600000D03*
D28*
X137660000Y-78650000D03*
X137660000Y-79670000D03*
D27*
X125310000Y-102500000D03*
X124290000Y-102500000D03*
D29*
X124800000Y-99480000D03*
X124800000Y-98520000D03*
D30*
X142264500Y-81900000D03*
X142264500Y-82860000D03*
D25*
X129690000Y-95900000D03*
X130710000Y-95900000D03*
D27*
X125310000Y-101400000D03*
X124290000Y-101400000D03*
D28*
X140460000Y-78650000D03*
X140460000Y-79670000D03*
%LPD*%
M02*
